<?xml version="1.0" standalone="no"?><!DOCTYPE svg PUBLIC "-//W3C//DTD SVG 1.1//EN" "http://www.w3.org/Graphics/SVG/1.1/DTD/svg11.dtd"><svg t="1695543993353" class="icon" viewBox="0 0 1945 1024" version="1.1" xmlns="http://www.w3.org/2000/svg" p-id="8819" xmlns:xlink="http://www.w3.org/1999/xlink" width="379.8828125" height="200"><path d="M0 504.0128c109.704533 86.528 216.405333 126.702933 320.2048 120.558933 155.682133-9.216 364.202667-90.180267 431.786667-78.848 67.652267 11.332267 201.557333 53.316267 228.625066 58.4704 18.0224 3.447467 35.157333 4.642133 51.234134 3.584-20.821333-73.250133-9.489067-129.774933 34.065066-169.608533 65.365333-59.733333 87.04-61.781333 102.5024-62.327467 10.274133-0.341333 18.773333-1.024 25.4976-2.048-67.857067-37.546667-104.174933-83.3536-108.987733-137.557333-7.236267-81.3056 3.584-109.704533 54.033067-169.984 50.414933-60.347733 152.234667-76.629333 202.410666-60.279467 50.141867 16.349867 121.070933 48.093867 157.661867 111.035734 36.590933 62.941867 45.226667 94.754133 47.547733 111.650133 1.536 11.264 3.2768 30.583467 5.2224 57.9584 35.84-21.9136 77.1072-32.529067 123.767467-31.8464 69.973333 1.024 122.538667 11.9808 183.637333 66.525867 61.166933 54.545067 97.723733 149.879467 83.217067 233.028266-14.472533 83.1488-94.549333 161.928533-164.932267 168.209067-70.382933 6.280533-75.093333 2.4576-91.989333 1.2288-11.264-0.8192-19.114667-3.4816-23.552-8.021333-49.288533 111.445333-112.981333 187.4944-191.044267 228.1472-117.077333 60.928-220.945067 90.043733-366.7968 30.071466-145.8176-59.938133-263.3728-137.762133-338.432-152.644266-75.0592-14.916267-227.089067-16.384-303.2064-22.869334-76.117333-6.485333-221.866667-75.776-306.551466-142.5408A1051.7504 1051.7504 0 0 1 0 504.0128z m321.570133 192.955733c69.973333 35.498667 138.069333 54.715733 204.219734 57.5488 99.259733 4.266667 218.3168 4.437333 268.4928 19.797334 50.176 15.291733 201.216 95.0272 245.179733 119.671466 43.963733 24.644267 215.722667 120.251733 380.928 21.742934s196.266667-220.228267 191.965867-231.970134c-4.3008-11.741867-43.349333-39.185067-53.0432-77.994666-9.659733-38.8096-11.946667-111.377067 36.5568-155.8528 48.5376-44.509867 125.952-55.534933 163.157333-30.0032 37.239467 25.531733 71.099733 82.773333 58.436267 108.407466-12.629333 25.6-36.932267 19.729067-52.1216-18.944-15.1552-38.673067-59.392-64.853333-98.304-44.8512-38.946133 19.968-72.669867 45.192533-51.950934 124.3136 20.753067 79.086933 131.310933 127.931733 212.753067 53.794134 81.476267-74.103467 67.515733-149.981867 48.503467-202.6496-19.012267-52.667733-69.700267-115.3024-152.4736-131.925334-82.807467-16.5888-174.421333 21.6064-223.573334 74.410667-49.117867 52.804267-72.4992 85.4016-91.3408 214.903467-18.807467 129.536-96.597333 183.1936-160.187733 200.430933-63.624533 17.237333-112.469333 30.993067-242.005333-6.144-129.467733-37.137067-166.638933-65.092267-239.854934-74.6496-73.216-9.591467-213.4016-16.861867-269.175466-16.008533-37.205333 0.580267-95.914667-0.750933-176.128-4.027734z m161.006934-46.626133c117.282133-3.925333 202.752-0.8192 256.341333 9.284267 80.452267 15.1552 247.9104 85.469867 303.035733 97.8944 55.125333 12.458667 178.517333 39.424 247.057067-33.8944 68.539733-73.284267 97.006933-123.153067 57.105067-213.504-39.936-90.3168-134.4512-91.716267-159.4368-85.435734-24.9856 6.314667-104.6528 33.518933-108.885334 109.9776-4.232533 76.458667 40.891733 106.734933 74.888534 111.2064 33.9968 4.437333 64.989867-3.9936 82.261333-38.263466 17.2032-34.304 22.050133-45.056 38.058667-43.008 16.008533 2.013867 40.994133 35.703467-11.639467 92.16-52.667733 56.456533-110.865067 47.3088-133.051733 39.355733-14.813867-5.290667-32.256-15.121067-52.360534-29.559467-43.690667-0.443733-84.2752-5.802667-121.787733-16.1792-56.251733-15.496533-141.892267-54.784-197.700267-53.76-55.808 1.024-116.701867 11.0592-156.672 23.210667-26.624 8.192-65.706667 18.3296-117.213866 30.5152z m898.935466-180.224s22.698667-61.303467 50.551467-93.866667a394.581333 394.581333 0 0 1 63.761067-59.392c2.048-99.396267-22.016-168.994133-72.260267-208.861866-75.3664-59.767467-187.733333-84.548267-260.471467 10.717866-72.738133 95.232 0 170.2912 27.272534 191.453867 27.306667 21.162667 104.994133 29.184 126.2592-9.216 21.230933-38.365867 1.1264-74.308267-15.018667-83.490133-16.110933-9.216-46.728533-19.5584-42.496-43.895467 4.232533-24.3712 33.041067-31.8464 62.941867-7.338667 29.9008 24.4736 61.576533 58.402133 52.770133 119.1936s-35.293867 67.242667-54.272 76.9024c-12.629333 6.417067-30.549333 13.6192-53.725867 21.504 32.5632 11.639467 53.998933 21.845333 64.238934 30.651734 15.36 13.243733 50.449067 55.637333 50.449066 55.637333z" fill="#D4B993" p-id="8820"></path></svg>