<svg xmlns="http://www.w3.org/2000/svg" width="94.039" height="92.466" viewBox="0 0 94.039 92.466">
  <defs>
    <style>
      .cls-1 {
        fill: #95e5c0;
      }

      .cls-2 {
        fill: #06c26c;
      }
    </style>
  </defs>
  <g id="组_265" data-name="组 265" transform="translate(7345.834 466.015)">
    <g id="secundary" transform="translate(-7342.547 -462.954)">
      <path id="路径_287" data-name="路径 287" class="cls-1" d="M83.234,52.146a32.493,32.493,0,0,0,4.14-1.279,31.193,31.193,0,0,1,8.96-2.059l-.207-2.251A33.571,33.571,0,0,0,86.6,48.743,25.234,25.234,0,0,1,76.332,50.55H54.471L66.309,32.435c2.977-4.551,6.714-4.828,11.043-5.146a19.463,19.463,0,0,0,9.532-2.435L85.679,22.94a17.443,17.443,0,0,1-8.493,2.094,23.693,23.693,0,0,0-6.817,1.188l7.06-10.8-1.894-1.236-6.9,10.562a23.274,23.274,0,0,0-1.124-5.533A20.807,20.807,0,0,1,66.4,9.7l-2.237-.324a22.946,22.946,0,0,0,1.183,10.476c1.123,3.833,2.011,6.858-.929,11.355h0L52.757,49.039,40.568,9.207,38.4,9.869l11.8,38.571L19.014,22.9l-1.43,1.748,31.23,25.571L8.857,46.557l-.207,2.251,39.975,3.661L13.3,72.056l1.095,1.977L49.84,54.381,32.379,90.961l2.039.973,17.41-36.474L58.074,95.4l2.233-.349L54.064,55.124,81.7,84.576l1.646-1.547L54.991,52.81H76.112a12.569,12.569,0,0,1,9.572,3.9,19.408,19.408,0,0,0,9.609,5.084l.464-2.211A17.265,17.265,0,0,1,87.16,55,21.173,21.173,0,0,0,83.234,52.146Z" transform="translate(-8.649 -9.207)"/>
    </g>
    <g id="primary" transform="translate(-7345.834 -466.015)">
      <circle id="椭圆_146" data-name="椭圆 146" class="cls-2" cx="3.39" cy="3.39" r="3.39" transform="translate(43.629 42.144)"/>
      <circle id="椭圆_147" data-name="椭圆 147" class="cls-2" cx="3.39" cy="3.39" r="3.39" transform="translate(67.359 42.144)"/>
      <circle id="椭圆_148" data-name="椭圆 148" class="cls-2" cx="3.39" cy="3.39" r="3.39" transform="translate(87.259 38.147)"/>
      <circle id="椭圆_149" data-name="椭圆 149" class="cls-2" cx="3.39" cy="3.39" r="3.39" transform="translate(86.772 51.153)"/>
      <circle id="椭圆_150" data-name="椭圆 150" class="cls-2" cx="3.39" cy="3.39" r="3.39" transform="translate(77.836 14.138)"/>
      <circle id="椭圆_151" data-name="椭圆 151" class="cls-2" cx="3.39" cy="3.39" r="3.39" transform="translate(67.731 5.268)"/>
      <circle id="椭圆_152" data-name="椭圆 152" class="cls-2" cx="3.39" cy="3.39" r="3.39" transform="translate(56.525)"/>
      <circle id="椭圆_153" data-name="椭圆 153" class="cls-2" cx="3.39" cy="3.39" r="3.39" transform="translate(30.733 0.002)"/>
      <circle id="椭圆_154" data-name="椭圆 154" class="cls-2" cx="3.39" cy="3.39" r="3.39" transform="translate(9.547 14.237)"/>
      <circle id="椭圆_155" data-name="椭圆 155" class="cls-2" cx="3.39" cy="3.39" r="3.39" transform="translate(0 38.147)"/>
      <circle id="椭圆_156" data-name="椭圆 156" class="cls-2" cx="3.39" cy="3.39" r="3.39" transform="translate(5.094 63.51)"/>
      <circle id="椭圆_157" data-name="椭圆 157" class="cls-2" cx="3.39" cy="3.39" r="3.39" transform="translate(24.646 81.912)"/>
      <circle id="椭圆_158" data-name="椭圆 158" class="cls-2" cx="3.39" cy="3.39" r="3.39" transform="translate(50.438 85.686)"/>
      <circle id="椭圆_159" data-name="椭圆 159" class="cls-2" cx="3.39" cy="3.39" r="3.39" transform="translate(73.766 74.266)"/>
      <circle id="椭圆_160" data-name="椭圆 160" class="cls-2" cx="3.39" cy="3.39" r="3.39" transform="translate(56.653 22.316)"/>
      <circle id="椭圆_161" data-name="椭圆 161" class="cls-2" cx="3.39" cy="3.39" r="3.39" transform="translate(47.274 65.594)"/>
      <circle id="椭圆_162" data-name="椭圆 162" class="cls-2" cx="3.39" cy="3.39" r="3.39" transform="translate(60.122 59.191)"/>
      <circle id="椭圆_163" data-name="椭圆 163" class="cls-2" cx="3.39" cy="3.39" r="3.39" transform="translate(33.372 63.634)"/>
      <circle id="椭圆_164" data-name="椭圆 164" class="cls-2" cx="3.39" cy="3.39" r="3.39" transform="translate(22.775 53.457)"/>
      <circle id="椭圆_165" data-name="椭圆 165" class="cls-2" cx="3.39" cy="3.39" r="3.39" transform="translate(20.031 39.983)"/>
      <circle id="椭圆_166" data-name="椭圆 166" class="cls-2" cx="3.39" cy="3.39" r="3.39" transform="translate(25.284 27.123)"/>
      <circle id="椭圆_167" data-name="椭圆 167" class="cls-2" cx="3.39" cy="3.39" r="3.39" transform="translate(36.671 19.405)"/>
    </g>
  </g>
</svg>
