<svg xmlns="http://www.w3.org/2000/svg" width="66.638" height="88.85" viewBox="0 0 66.638 88.85">
  <defs>
    <style>
      .cls-1 {
        fill: #95e5c0;
      }

      .cls-2 {
        fill: #06c26c;
      }
    </style>
  </defs>
  <g id="组_263" data-name="组 263" transform="translate(7496.067 464.72)">
    <g id="secundary" transform="translate(-7496.067 -464.72)">
      <path id="路径_281" data-name="路径 281" class="cls-1" d="M32.979,59.457A20.978,20.978,0,1,1,53.957,38.479,20.978,20.978,0,0,1,32.979,59.457Zm0-39.489a18.51,18.51,0,1,0,18.51,18.51,18.51,18.51,0,0,0-18.51-18.51Z" transform="translate(-12 1.01)"/>
      <path id="路径_282" data-name="路径 282" class="cls-1" d="M41.106,43.213A11.106,11.106,0,1,1,52.213,32.106,11.106,11.106,0,0,1,41.106,43.213Zm0-19.744a8.638,8.638,0,1,0,8.638,8.638,8.638,8.638,0,0,0-8.638-8.638Z" transform="translate(14.425 6.149)"/>
      <path id="路径_283" data-name="路径 283" class="cls-1" d="M42.51,68.021a18.51,18.51,0,1,1,18.51-18.51,18.51,18.51,0,0,1-18.51,18.51Zm0-34.553A16.042,16.042,0,1,0,58.553,49.51,16.042,16.042,0,0,0,42.51,33.468Z" transform="translate(5.617 20.829)"/>
      <path id="路径_284" data-name="路径 284" class="cls-1" d="M38.106,34.213A11.106,11.106,0,1,1,49.213,23.106,11.106,11.106,0,0,1,38.106,34.213Zm0-19.744a8.638,8.638,0,1,0,8.638,8.638,8.638,8.638,0,0,0-8.638-8.638Z" transform="translate(10.021 -7.064)"/>
      <path id="路径_285" data-name="路径 285" class="cls-1" d="M27.638,27.276a8.638,8.638,0,1,1,8.638-8.638A8.638,8.638,0,0,1,27.638,27.276Zm0-14.808a6.17,6.17,0,1,0,6.17,6.17,6.17,6.17,0,0,0-6.17-6.17Z" transform="translate(-1.724 -10)"/>
    </g>
    <g id="primary" transform="translate(-7491.131 -459.784)">
      <circle id="椭圆_138" data-name="椭圆 138" class="cls-2" cx="8.638" cy="8.638" r="8.638" transform="translate(0 24.681)"/>
      <circle id="椭圆_139" data-name="椭圆 139" class="cls-2" cx="6.17" cy="6.17" r="6.17" transform="translate(19.744 27.149)"/>
      <circle id="椭圆_140" data-name="椭圆 140" class="cls-2" cx="1.234" cy="1.234" r="1.234" transform="translate(44.425 32.085)"/>
      <circle id="椭圆_141" data-name="椭圆 141" class="cls-2" cx="3.702" cy="3.702" r="3.702" transform="translate(49.361 29.617)"/>
      <circle id="椭圆_142" data-name="椭圆 142" class="cls-2" cx="4.936" cy="4.936" r="4.936" transform="translate(29.617 59.233)"/>
      <circle id="椭圆_143" data-name="椭圆 143" class="cls-2" cx="7.404" cy="7.404" r="7.404" transform="translate(41.957 56.765)"/>
      <circle id="椭圆_144" data-name="椭圆 144" class="cls-2" cx="6.17" cy="6.17" r="6.17" transform="translate(37.021 4.936)"/>
      <circle id="椭圆_145" data-name="椭圆 145" class="cls-2" cx="3.702" cy="3.702" r="3.702" transform="translate(17.276)"/>
    </g>
  </g>
</svg>
