<svg xmlns="http://www.w3.org/2000/svg" width="92.585" height="92.585" viewBox="0 0 92.585 92.585">
  <g id="Icon_ionic-ios-arrow-dropdown" data-name="Icon ionic-ios-arrow-dropdown" transform="translate(-3.375 -3.375)">
    <path id="路径_351" data-name="路径 351" d="M11.235,15.685a4.312,4.312,0,0,0,0,6.076l21.3,21.232a4.291,4.291,0,0,0,5.92.134L59.441,22.206a4.288,4.288,0,1,0-6.054-6.076L35.36,33.89,17.31,15.662A4.292,4.292,0,0,0,11.235,15.685Z" transform="translate(14.307 23.901)"/>
    <path id="路径_352" data-name="路径 352" d="M3.375,49.667A46.292,46.292,0,1,0,49.667,3.375,46.285,46.285,0,0,0,3.375,49.667ZM77.354,21.981A39.154,39.154,0,1,1,21.981,77.354,39.154,39.154,0,1,1,77.354,21.981Z"/>
  </g>
</svg>
