<svg xmlns="http://www.w3.org/2000/svg" viewBox="0 0 188.51 186.94"><defs><style>.cls-1{fill:#d4bc8b;}</style></defs><g id="图层_2" data-name="图层 2"><g id="图层_1-2" data-name="图层 1"><path class="cls-1" d="M152.77,64c0,.25,0,.48,0,.73a12.32,12.32,0,0,1-5.35,9.75,21.93,21.93,0,0,1-8.28,3.44c-.9,1.95-3.19,6.37-7.07,8.77a17.1,17.1,0,0,1-8.77,2.55,13,13,0,0,1-9.3-3.63,23.21,23.21,0,0,1-10.71,2.1C98.59,87.51,93,85.87,87,80.66c-5.42-4.73-9.67-8.65-15.5-9-4.88-.19-10,2.28-16.87,7.86-6.53,5.29-11.4,6.7-15,6.54A11.65,11.65,0,0,1,37,85.67c3.52-.57,7.62-2.44,11.66-6.68,5-5.35,7.65-13.7,12.48-19.47,6-7.14,12.1-10.3,21.26-10a30.31,30.31,0,0,1,5.31.73c0-.55-.07-1.11-.07-1.68a17.78,17.78,0,0,1,4.63-12c4.89-5.45,12.44-9.65,20.15-9.68a18.41,18.41,0,0,1,13,5.21,13.85,13.85,0,0,1,4.75-.83c3.19,0,7.38,1.16,11.26,5.3,2.65,2.87,3.55,7.1,3.58,10.81a17.27,17.27,0,0,1-.62,4.71,13.69,13.69,0,0,1,2.85,1.33A11.84,11.84,0,0,1,152.77,64ZM138.3,57.83c-.82-9.18-10.07-10.74-11.38-10.65-.76,0-1.22.13-1.67-.77-2.62-5.16-8.86-7.21-13-7-5.32.28-11.24,3.73-13,10.14a20.84,20.84,0,0,0-.3,6.1c.65,4.58,3.92,7.5,6.23,9.06A12.5,12.5,0,0,0,113,66.62a11.9,11.9,0,0,0,4.73-1.42,7.8,7.8,0,0,0,3.65-6.56,7,7,0,0,0-5.54-7.18,3.21,3.21,0,0,0-3.73,2.92c-.31,2.43,2.21,3.73,3.43,3.1s2.66-.23,3.09.9a3,3,0,0,1-1.05,3c-2.95,2.34-7.46,1.79-10,0a6.33,6.33,0,0,1-2.71-5,10.32,10.32,0,0,1,.38-3.12c1-4.14,5-6.46,9.41-6.71,3.84-.25,7.66,1.7,9,3.92.38.6.79.77,1.69.86,3.87.41,6.15,3.34,6.75,7.34a7.3,7.3,0,0,1-2,5.46A9.13,9.13,0,0,1,124,67a2.38,2.38,0,0,0-2.21,1.19c-1,1.5-4.71,4.66-12.36,3.65-5.89-.77-9.88-3.7-13.9-8-5-5.29-12.86-6.17-18-5.59a20.23,20.23,0,0,0-7.27,2.78A28.7,28.7,0,0,0,61.12,70a26.53,26.53,0,0,1,5.71-4.55c5.91-3.45,11.58-3.11,16.58-2.22s7.4,3.42,9.63,6.45a21.4,21.4,0,0,0,14.66,8.64c9.27,1.28,14.62-3.44,16.3-6.49.37-.65.65-.77,1.61-.72C134.73,71.6,138.81,63.45,138.3,57.83Z"/><path class="cls-1" d="M62.29,103.47a7.83,7.83,0,0,0,5.84,2.32c5.47-.15,10.58-5.23,10.41-12.54l0-.69a11.2,11.2,0,0,0-4.31-8.29,13.06,13.06,0,0,0-8.34-2.58A15.6,15.6,0,0,0,54.55,87c-3.2,3.61-6.53,5.87-10.89,6a17.06,17.06,0,0,1-6.37-1.22,20.3,20.3,0,0,0-7.69-1.24A22.89,22.89,0,0,0,17.73,94.2C6,101.45,0,114.05,0,114.05s13.54-12.8,25.77-12.71c4.13,0,7.13,1.57,10.46,3.83s6.67,5.15,11.66,5.83a13.46,13.46,0,0,0,1.89.1A14.93,14.93,0,0,0,60,106.21,24.15,24.15,0,0,0,62.29,103.47Zm-6.59-2.1a9.2,9.2,0,0,1-6.08,3.09c-4.35.47-7.33-.67-10.82-3.07s-7.63-4.59-13.18-4.28a21.49,21.49,0,0,0-5.75,1.14,22.76,22.76,0,0,1,9.75-3,15,15,0,0,1,6.06.74c2.93,1.1,6.29,3.64,8.75,3.93,9,1,11.27-5.34,13.07-8.09,1.51-2.32,3.15-4.59,7.1-5.36a9.29,9.29,0,0,1,6.12,1.15A7.58,7.58,0,0,1,74,93.15a6,6,0,0,1-6.13,7.16,3.34,3.34,0,0,1-2.93-1.4,3.09,3.09,0,0,1-.5-1.59,1.17,1.17,0,0,1,.47-1,2.4,2.4,0,0,1,1.38-.46,1.74,1.74,0,0,1,1.48.59,1.85,1.85,0,0,0,1.5.79c2,0,3.12-4.15.37-5.49A7.6,7.6,0,0,0,66,91a7.32,7.32,0,0,0-4.2,1.43,9.79,9.79,0,0,0-3.14,4.13A14.59,14.59,0,0,1,55.7,101.37Z"/><path class="cls-1" d="M106.47,28.31c0,.18,0,.36,0,.55A9.24,9.24,0,0,1,102,36.29a19.09,19.09,0,0,1-6.87,2.62A16,16,0,0,1,89.3,45.6,15.2,15.2,0,0,1,82,47.54a11.27,11.27,0,0,1-7.71-2.77,20.65,20.65,0,0,1-8.89,1.6A22.43,22.43,0,0,1,52,41c-4.5-3.61-8-6.59-12.86-6.83-4-.14-8.28,1.74-14,6-5.42,4-9.46,5.11-12.42,5a10.68,10.68,0,0,1-2.2-.33,17.69,17.69,0,0,0,9.66-5.09c4.18-4.08,6.35-10.44,10.36-14.84,4.94-5.44,10-7.85,17.62-7.6a26.6,26.6,0,0,1,4.41.56c0-.42-.06-.85-.07-1.28a13,13,0,0,1,3.85-9.18A24.42,24.42,0,0,1,73,0,16.09,16.09,0,0,1,83.82,4a12.66,12.66,0,0,1,3.94-.63,13.16,13.16,0,0,1,9.33,4c2.2,2.19,3,5.41,3,8.24a12.26,12.26,0,0,1-.51,3.59,11.74,11.74,0,0,1,2.37,1A8.86,8.86,0,0,1,106.47,28.31Zm-12-4.72c-.69-7-8.35-8.18-9.44-8.11-.64,0-1,.09-1.39-.59C81.48,11,76.31,9.4,72.91,9.55c-4.41.21-9.32,2.84-10.75,7.72a14.84,14.84,0,0,0-.24,4.66c.53,3.49,3.25,5.71,5.17,6.9a11.06,11.06,0,0,0,6.42,1.46,10.48,10.48,0,0,0,3.92-1.08,5.84,5.84,0,0,0,3-5,5.4,5.4,0,0,0-4.59-5.48A2.65,2.65,0,0,0,72.77,21a2.23,2.23,0,0,0,2.84,2.36,2,2,0,0,1,2.57.68,2.15,2.15,0,0,1-.88,2.27c-2.44,1.78-6.18,1.36-8.29,0a4.74,4.74,0,0,1-2.25-3.83,7.27,7.27,0,0,1,.32-2.38c.87-3.16,4.18-4.92,7.8-5.12,3.18-.18,6.35,1.3,7.45,3,.32.45.65.58,1.4.65,3.21.31,5.1,2.54,5.6,5.59a5.29,5.29,0,0,1-1.7,4.16,7.75,7.75,0,0,1-5,2.25c-1.14.11-1.46.38-1.83.91-.81,1.14-3.91,3.55-10.25,2.79-4.89-.59-8.19-2.83-11.53-6.1-4.1-4-10.66-4.71-14.88-4.26a17.43,17.43,0,0,0-6,2.12,23,23,0,0,0-7.59,6.8,21.93,21.93,0,0,1,4.73-3.47C40.1,26.77,44.81,27,49,27.7a11.72,11.72,0,0,1,8,4.92A18.08,18.08,0,0,0,69.1,39.2c7.68,1,12.12-2.62,13.52-4.94.3-.5.53-.59,1.33-.55C91.52,34.08,94.9,27.87,94.48,23.59Z"/><path class="cls-1" d="M49.51,160.93s13.06,12.87,30.24,2.15c10.63-6.62,13.38-4.59,20.5,2.55s20,8.32,23.94.27,5.11-29.55,27.47-21.54c0,0,5.8-13.09,22.51-7.52,14.34,4.78,8.61,18.93,8.61,18.93s11.28,9,2.19,18.34c-7.16,7.33-20.21,1.37-20.21,1.37s-4.46,6-11,6.76c-9.17,1.09-11.31-10.76-18.57-2.37s-19.11,10.54-32.35-.4-18-8.79-29.43-4S49.51,160.93,49.51,160.93Zm98.25,16.22c7.63,2.75,13-2.68,14.6-4.92,1.37-1.92,1.92-2,2.71-1.8,8.88,2.65,15.33.4,16-5.53.9-7.91-5.44-10.06-7.15-10.62-1.27-.41-1.4-.78-1.08-1.91a6.41,6.41,0,0,0-2.82-6.88c-6.32-4.31-13.33-1.23-18.16,3.69-1.46,1.5-3-.87-7.94-.36-7.16.74-10.61,6.46-7.87,11.4,3,5.32,12.12,7.87,15.56,8a17.88,17.88,0,0,0,5.46-.63c3.27-1.1,4.33-3.15,4.61-4.88.41-2.41-1.61-5.41-5.73-6.33-1.13-.26-3.85-.19-4.44,2-.53,1.91,2.23,3.21,3.65,2.84s3,.09,3.43,1c.18.41,0,1.63-1.41,2.28-3.51,1.56-11.29,1.1-14.45-3.3-.93-1.3-1.66-3.88-.35-5.78.88-1.28,3.49-2.72,6.92-2.2,1.36.21,2.45.42,2.92,0,4.09-3.4,7.82-4.8,11.86-3.92,5.39,1.17,4.57,5.3,5.9,7.21.39.52.41.38,1.85.87,3.41,1.17,4,3.46,4,5a5.21,5.21,0,0,1-3.75,5.25c-1.6.53-3.46.41-6.28-.15-1.51-.3-2.25-.69-2.82-.18-1.21,1.1-6.85,8.19-15.85,4.71-8.3-3.22-10.74-9.75-16.35-4.91-6.1,5.27-9.8,12.49-21.92,8.12S93.5,158,78.87,168c0,0,5.87-2.81,11.32-1,6.81,2.25,15.74,14,28.45,14.62,9.24.42,11.69-10.85,17.43-9.94C141,172.42,144,175.78,147.76,177.15Z"/><path class="cls-1" d="M120.3,153.75a12.17,12.17,0,0,1-8.8,2.86,9.2,9.2,0,0,1-1.52-.28c-4-1.08-6.38-3.85-8.81-6s-4.72-3.76-8.06-4.23c-9.89-1.37-22.21,7.53-22.21,7.53s6.22-9.55,16.47-14.17a18.86,18.86,0,0,1,10-1.71,16.86,16.86,0,0,1,6.09,1.84,13.85,13.85,0,0,0,5,1.66c3.54.37,6.47-1.1,9.45-3.67a12.74,12.74,0,0,1,9.72-3.09,10.7,10.7,0,0,1,6.48,3,9.16,9.16,0,0,1,2.6,7.16c0,.19,0,.38-.05.57-.65,5.94-5.33,9.49-9.77,9a6.4,6.4,0,0,1-4.48-2.5A17.85,17.85,0,0,1,120.3,153.75Zm0-8a8,8,0,0,1,3-3,6,6,0,0,1,3.55-.7,6.32,6.32,0,0,1,2.87,1c2.08,1.38.77,4.6-.89,4.4a1.51,1.51,0,0,1-1.13-.8,1.46,1.46,0,0,0-1.13-.63,1.92,1.92,0,0,0-1.17.23,1,1,0,0,0-.49.75,2.47,2.47,0,0,0,.24,1.34,2.7,2.7,0,0,0,2.22,1.45,4.86,4.86,0,0,0,5.72-5.14,6.18,6.18,0,0,0-2.06-4.79,7.6,7.6,0,0,0-4.83-1.58c-3.29.2-4.85,1.86-6.33,3.58-1.74,2-4.27,7-11.44,5.14-2-.49-4.41-2.91-6.66-4.11a12.09,12.09,0,0,0-4.82-1.25A18.63,18.63,0,0,0,88.67,143a17.76,17.76,0,0,1,4.78-.3c4.52.34,7.64,2.59,10.2,4.87s4.86,3.56,8.44,3.64a7.53,7.53,0,0,0,5.24-1.84A12,12,0,0,0,120.25,145.79Z"/><path class="cls-1" d="M161.62,119.73a2.66,2.66,0,0,1,2.14-2.54,1.38,1.38,0,0,1,1.52.59.68.68,0,1,0,1.23-.57,2.7,2.7,0,0,0-3-1.36,4,4,0,0,0-3.27,3.73,4.33,4.33,0,0,0,.15,1.66c-3.17,2.16-11.2,3.58-20.83-1.28-6.38-3.22-11.57-9.88-15.12-16.37a35.6,35.6,0,0,0,7.09,7.78,23.14,23.14,0,0,0,2.23,1.57c12,7.51,21.75,4,26.42-1.22,2.92-3.29,3.22-6.13,2.95-7.93A7,7,0,0,0,160,98.92a5.19,5.19,0,0,0-4.15-.75,4.8,4.8,0,0,0-3.09,3,5.08,5.08,0,0,0-1.18-.91,3.54,3.54,0,0,0-4.52.58.68.68,0,0,0,.06,1,.69.69,0,0,0,1-.06,2.21,2.21,0,0,1,2.83-.3,3.2,3.2,0,0,1,1.66,3.6,4.85,4.85,0,0,1-4.94,3.07,5.94,5.94,0,0,1-1.17-.31l-.13,0a7.22,7.22,0,0,1-3.94-3.66c-.69-1.57-1.07-4.12,1.1-7.42,3.76-5.75,10-2.18,10.24-2a.7.7,0,0,0,.63,0,.69.69,0,0,0,.39-.5c0-.24,1.11-6,5.63-5.68,5.14.31,6.41,5.79,6.42,5.84a.67.67,0,0,0,1,.45c1.44-.8,4.93-.88,7.29.23,1.44.67,6.17,3.33,6.16,9A9.08,9.08,0,0,1,175,113a.68.68,0,0,0-.46.43.66.66,0,0,0,.09.61,7,7,0,0,1,.8,5.25,8.3,8.3,0,0,1-3.88,5.46,6.33,6.33,0,0,1-6.84-.21,7.33,7.33,0,0,1-2.79-3.2.56.56,0,0,0,0-.12A3,3,0,0,1,161.62,119.73Z"/><path class="cls-1" d="M156.51,107a2.76,2.76,0,0,0,2.28-2.45,2.27,2.27,0,0,0-1.56-2.45.68.68,0,1,0-.46,1.27.94.94,0,0,1,.67,1.05,1.37,1.37,0,0,1-1.13,1.23c-1.18.17-2-1.19-2.22-1.94a3.16,3.16,0,0,1,.1-2.39,3.36,3.36,0,0,1,2.05-1.82,3.82,3.82,0,0,1,3.06.6,5.61,5.61,0,0,1,2.51,3.91c.33,2.17-.58,4.53-2.62,6.83-4.31,4.86-13.36,8-24.68,1-3.69-2.29-7.23-6.15-10.22-11a28.08,28.08,0,0,0,10,8.22c6.4,2.82,10.74.85,11.91.19a8.22,8.22,0,0,0,1.19.28,6.34,6.34,0,0,0,6.34-3.65A3,3,0,0,0,156.51,107Z"/></g></g></svg>