<svg xmlns="http://www.w3.org/2000/svg" viewBox="0 0 3.11 3.08"><defs><style>.cls-1{fill:#9b805a;}</style></defs><g id="图层_2" data-name="图层 2"><g id="图层_1-2" data-name="图层 1"><path class="cls-1" d="M.12,1.49c.4,0,1-.2,1,.05s-.54.09-1,.08c-.07,0-.07-.12,0-.13Z"/><path class="cls-1" d="M.11.06,1,.89A.15.15,0,0,1,1,1.1a.15.15,0,0,1-.22,0L0,.14C0,.08.06,0,.11.06Z"/><path class="cls-1" d="M0,3,.76,2c.11-.15.35,0,.23.18S.12,3,.11,3.06,0,3,0,3Z"/><path class="cls-1" d="M3,1.62c-.4,0-1,.2-1-.05s.54-.09,1-.08c.07,0,.07.13,0,.13Z"/><path class="cls-1" d="M3.09.14l-.74,1c-.11.15-.35,0-.23-.19L3,.06c0-.06.14,0,.09.08Z"/><path class="cls-1" d="M3,3.06l-.87-.84C2,2.09,2.2,1.88,2.34,2l.75,1c.05.06,0,.14-.09.09Z"/><path class="cls-1" d="M1.62.06c0,.39.2,1-.05,1S1.48.48,1.5.06a.06.06,0,0,1,.12,0Z"/><path class="cls-1" d="M1.62,2c0,.4.2,1-.05,1s-.09-.54-.07-1c0-.07.12-.07.12,0Z"/><circle class="cls-1" cx="1.56" cy="1.56" r="0.18"/></g></g></svg>