<svg xmlns="http://www.w3.org/2000/svg" viewBox="0 0 69.46 69.46"><defs><style>.cls-1{fill:#d4bc8b;}</style></defs><g id="图层_2" data-name="图层 2"><g id="图层_1-2" data-name="图层 1"><path class="cls-1" d="M34,16H33.2V0l-.79.05A34.82,34.82,0,0,0,.05,32.41l0,.79H27.17v3.08H0l.05.79A34.84,34.84,0,0,0,32.41,69.41l.79,0V53.51h3.06V69.46l.79,0A34.82,34.82,0,0,0,69.41,37.07l0-.79H42.3V33.2H69.46l0-.79A34.82,34.82,0,0,0,37.05.05l-.79,0V16h-.82m2.3-14.38A33.34,33.34,0,0,1,67.87,31.72H37.75V28.65H64.89l-.2-.9a30.39,30.39,0,0,0-23-23l-.91-.21V16H37.74ZM50.22,48.84v6l1.33-1.77a17.11,17.11,0,0,0,3-6.49l.21-.91h-14V52H37.74V42.29H63A28.87,28.87,0,0,1,42.29,63V47.18H52.89a14.49,14.49,0,0,1-1.19,2.94V48.84ZM31.72,52H28.58V45.7h-14l.2.91a17.11,17.11,0,0,0,3,6.49l1.33,1.77v-6H17.69v1.28a15.08,15.08,0,0,1-1.19-2.94H27.09V63A28.84,28.84,0,0,1,6.38,42.29H31.72V52Zm4.55-11.22H33.2l0-4.53H28.65V33.2h4.53V28.66h3.09V33.2h4.55v3.08H36.27ZM19.17,20.62v-6l-1.33,1.77a17.11,17.11,0,0,0-3,6.49l-.2.91h14V17.45h3.14v9.72H6.38A28.86,28.86,0,0,1,27.1,6.45V22.28H16.5a15.08,15.08,0,0,1,1.19-2.94v1.28Zm21.65,3.14h14l-.21-.91a17.11,17.11,0,0,0-3-6.49l-1.33-1.77v6H51.7V19.34a14.49,14.49,0,0,1,1.19,2.94H42.3V6.45A28.89,28.89,0,0,1,63,27.17H37.74V17.45h3.07Zm-4.56-6.31v9.72H33.2V17.45ZM1.59,31.72A33.35,33.35,0,0,1,31.72,1.59V16H28.58V4.57l-.91.21a30.37,30.37,0,0,0-23,23l-.21.9H31.7v3.06H1.59ZM31.72,67.87A33.35,33.35,0,0,1,1.6,37.77H31.69l0,3H4.5l.21.91a30.34,30.34,0,0,0,23,23l.91.21V53.51h3.14ZM33.2,52V42.3h3.06V52ZM67.87,37.76A33.35,33.35,0,0,1,37.74,67.87V53.51h3.07V64.89l.91-.21a30.37,30.37,0,0,0,23-23l.2-.91H37.75v-3H67.87Z"/></g></g></svg>