<svg xmlns="http://www.w3.org/2000/svg" viewBox="0 0 3.16 3.16"><defs><style>.cls-1{fill:none;stroke:#9b805a;stroke-miterlimit:10;stroke-width:0.21px;}</style></defs><g id="图层_2" data-name="图层 2"><g id="图层_1-2" data-name="图层 1"><rect class="cls-1" x="0.1" y="0.1" width="2.95" height="2.95" rx="0.46" transform="translate(3.16 3.16) rotate(180)"/><path class="cls-1" d="M1.43,1,1.28.93A.3.3,0,0,0,.94,1h0a.32.32,0,0,0-.12.29l.05.34v.08L.82,2a.33.33,0,0,0,.12.29h0a.32.32,0,0,0,.34,0l.15-.08a.32.32,0,0,1,.3,0l.15.08a.32.32,0,0,0,.34,0h0A.33.33,0,0,0,2.34,2l0-.35V1.59l0-.34A.32.32,0,0,0,2.22,1h0a.3.3,0,0,0-.34,0L1.73,1A.32.32,0,0,1,1.43,1Z"/></g></g></svg>