<?xml version="1.0" standalone="no"?><!DOCTYPE svg PUBLIC "-//W3C//DTD SVG 1.1//EN" "http://www.w3.org/Graphics/SVG/1.1/DTD/svg11.dtd"><svg t="1695544032339" class="icon" viewBox="0 0 1024 1024" version="1.1" xmlns="http://www.w3.org/2000/svg" p-id="9609" xmlns:xlink="http://www.w3.org/1999/xlink" width="200" height="200"><path d="M150.55 549.55h722.9c7.78 0 14.08-6.3 14.08-14.08v-46.95c0-7.78-6.3-14.08-14.08-14.08h-722.9c-7.78 0-14.08 6.3-14.08 14.08v46.95c0 7.78 6.31 14.08 14.08 14.08z" p-id="9610"></path><path d="M535.47 638.74c0-7.78 6.3-14.09 14.08-14.09h384.82c6.51 0 12.27-4.43 13.75-10.77 7.62-32.73 11.66-66.84 11.66-101.89 0-33.34-3.71-65.8-10.63-97.06-1.42-6.41-7.21-10.91-13.77-10.91H549.55c-7.78 0-14.08-6.3-14.08-14.08v-0.01c0-7.78 6.3-14.08 14.08-14.08h369.31c9.86 0 16.63-9.86 13.21-19.11-55.6-150.4-189.64-262.7-352.48-287.36-8.42-1.28-15.95 5.45-15.95 13.96v198.63c0 7.78 6.3 14.08 14.08 14.08h215.4c11.38 0 17.97-12.76 11.57-22.18-39.58-58.24-98.13-94-136.38-112.59-9.34-4.54-20.17 2.33-20.17 12.71v34.24c0 5.33 3.01 10.21 7.78 12.59l9.39 4.7c6.95 3.48 9.77 11.93 6.3 18.89v0.01c-3.48 6.95-11.93 9.77-18.89 6.3l-24.96-12.48a14.07 14.07 0 0 1-7.78-12.59v-93.89c0-9.5 9.21-16.27 18.28-13.44 6.39 1.99 157.07 50.43 215.29 186.27 3.98 9.29-2.83 19.63-12.94 19.63H549.55c-7.78 0-14.08-6.3-14.08-14.08V78.43c0-7.7-6.19-13.93-13.89-14.1-3.19-0.07-6.38-0.1-9.58-0.1s-6.4 0.04-9.58 0.1c-7.7 0.17-13.89 6.4-13.89 14.1v231.73c0 7.78-6.3 14.08-14.08 14.08H183.41c-10.11 0-16.92-10.33-12.94-19.63 58.22-135.84 208.9-184.28 215.29-186.27 9.07-2.84 18.28 3.94 18.28 13.44v93.89c0 5.33-3.01 10.21-7.78 12.59l-24.96 12.48c-6.95 3.48-15.41 0.66-18.89-6.3v-0.01c-3.48-6.95-0.66-15.41 6.3-18.89l9.39-4.7a14.07 14.07 0 0 0 7.78-12.59v-34.24c0-10.39-10.83-17.25-20.17-12.71-38.26 18.6-96.81 54.35-136.38 112.59-6.4 9.42 0.18 22.18 11.57 22.18h215.4c7.78 0 14.08-6.3 14.08-14.08V83.37c0-8.52-7.53-15.24-15.95-13.96-162.86 24.65-296.89 136.96-352.5 287.35-3.42 9.25 3.35 19.11 13.21 19.11h369.31c7.78 0 14.08 6.3 14.08 14.08v0.01c0 7.78-6.3 14.08-14.08 14.08H88.62c-6.56 0-12.35 4.5-13.77 10.91A448.38 448.38 0 0 0 64.22 512c0 35.05 4.04 69.16 11.66 101.89 1.48 6.34 7.24 10.77 13.75 10.77h384.82c7.78 0 14.08 6.3 14.08 14.08v0.01c0 7.78-6.3 14.08-14.08 14.08H106.98c-9.92 0-16.71 9.98-13.16 19.25 56.67 147.96 189.52 258.13 350.6 282.53 8.42 1.28 15.95-5.45 15.95-13.96V742.01c0-7.78-6.3-14.08-14.08-14.08H238.84c-11.91 0-18.61 14.03-10.86 23.08 42.61 49.72 93.06 82.08 127.21 100.23 9.39 4.99 20.67-1.82 20.67-12.46v-35.75c0-7.78 6.3-14.08 14.08-14.08h0.01c7.78 0 14.08 6.3 14.08 14.08v79.81c0 9.74-9.65 16.53-18.81 13.26-5.56-1.98-136.98-50.04-213.8-174.87-5.77-9.38 0.97-21.46 11.99-21.46h291.04c7.78 0 14.08 6.3 14.08 14.08v231.73c0 7.7 6.19 13.93 13.89 14.1 3.19 0.07 6.38 0.1 9.58 0.1s6.4-0.04 9.58-0.1c7.7-0.17 13.89-6.4 13.89-14.1V713.84c0-7.78 6.3-14.08 14.08-14.08h291.04c11.02 0 17.76 12.08 11.99 21.46-76.82 124.83-208.24 172.88-213.8 174.87-9.17 3.27-18.81-3.52-18.81-13.26v-79.81c0-7.78 6.3-14.08 14.08-14.08h0.01c7.78 0 14.08 6.3 14.08 14.08v35.75c0 10.64 11.28 17.45 20.67 12.46 34.16-18.16 84.6-50.52 127.21-100.23 7.75-9.05 1.06-23.08-10.86-23.08H577.71c-7.78 0-14.08 6.3-14.08 14.08v198.63c0 8.52 7.53 15.24 15.95 13.96 161.08-24.39 293.93-134.57 350.6-282.53 3.55-9.26-3.24-19.25-13.16-19.25H549.55c-7.78 0.01-14.08-6.29-14.08-14.07z m-427.16-75.1V460.36c0-7.78 6.3-14.08 14.08-14.08h779.23c7.78 0 14.08 6.3 14.08 14.08v103.28c0 7.78-6.3 14.08-14.08 14.08H122.39c-7.78 0-14.08-6.31-14.08-14.08z" p-id="9611"></path></svg>