<svg xmlns="http://www.w3.org/2000/svg" viewBox="0 0 54.59 54.59"><defs><style>.cls-1{fill:#d4bc8b;}</style></defs><g id="图层_2" data-name="图层 2"><g id="图层_1-2" data-name="图层 1"><path class="cls-1" d="M0,27.28A27.3,27.3,0,1,0,27.31,0,27.29,27.29,0,0,0,0,27.28Zm6.5,0a20.69,20.69,0,0,1,5.62-14.2A28.12,28.12,0,0,1,16,27.29a28.2,28.2,0,0,1-3.85,14.2A20.71,20.71,0,0,1,6.5,27.29ZM34.63,20a21.82,21.82,0,0,0-1.74,7.33,21.92,21.92,0,0,0,1.73,7.33,21.74,21.74,0,0,0-7.33-1.74A21.82,21.82,0,0,0,20,34.63,21.82,21.82,0,0,0,21.7,27.3,21.92,21.92,0,0,0,20,20a21.82,21.82,0,0,0,7.33,1.74A21.82,21.82,0,0,0,34.63,20ZM27.29,48.09a20.69,20.69,0,0,1-14.2-5.62,28.18,28.18,0,0,1,28.4,0A20.66,20.66,0,0,1,27.29,48.09Zm20.8-20.78a20.68,20.68,0,0,1-5.62,14.2,28.13,28.13,0,0,1,0-28.41A20.68,20.68,0,0,1,48.09,27.31ZM27.31,6.5a20.72,20.72,0,0,1,14.2,5.62A28.06,28.06,0,0,1,27.3,16a28,28,0,0,1-14.2-3.85A20.72,20.72,0,0,1,27.31,6.5Z"/></g></g></svg>