<svg xmlns="http://www.w3.org/2000/svg" width="694" height="354.895" viewBox="0 0 694 354.895">
  <g id="路径_421" data-name="路径 421" transform="translate(0 16.895)" fill="#fff">
    <path d="M 693.5 337.4999694824219 L 0.5 337.4999694824219 L 0.5 0.4999759495258331 L 600.556640625 0.4999759495258331 L 600.7929077148438 0.4999759495258331 L 600.9429321289062 0.3174304962158203 L 614.4713134765625 -16.14251327514648 L 630.2974243164062 0.3462486565113068 L 630.4450073242188 0.4999759495258331 L 630.658203125 0.4999759495258331 L 693.5 0.4999759495258331 L 693.5 337.4999694824219 Z" stroke="none"/>
    <path d="M 614.5003051757812 -15.39028930664062 L 601.0291748046875 0.999969482421875 L 1 0.999969482421875 L 1 336.9999694824219 L 693 336.9999694824219 L 693 0.999969482421875 L 630.23193359375 0.999969482421875 L 614.5003051757812 -15.39028930664062 M 614.4423828125 -16.89474487304688 L 630.658203125 -3.0517578125e-05 L 694 -3.0517578125e-05 L 694 337.9999694824219 L 0 337.9999694824219 L 0 -3.0517578125e-05 L 600.556640625 -3.0517578125e-05 L 614.4423828125 -16.89474487304688 Z" stroke="none" fill="#707070"/>
  </g>
</svg>
