<svg xmlns="http://www.w3.org/2000/svg" width="479.138" height="279.372" viewBox="0 0 479.138 279.372">
  <g id="oodargon-1" transform="translate(-162.393 -6.966)">
    <g id="组_272" data-name="组 272" transform="translate(165.9 9.499)">
      <path id="路径_390" data-name="路径 390" d="M327.134,1.4V21.713s-26.164,1.712-29.1,8.559c-.358.843-.639,3.373-.843,7.154,0,.23-.026.46-.026.715-1.354,27.85.869,117.379.869,117.379s-9.786,33.752-1.482,49.67a43.288,43.288,0,0,0-1.814,5.723c-2.683,10.655-3.5,25.934-3.143,38.862.077,3.015.23,5.9.46,8.559.537,7.256,1.533,12.9,2.785,15.1h-21c1.252-2.2,2.248-7.844,2.785-15.1.23-2.657.383-5.544.46-8.559.358-12.929-.46-28.208-3.143-38.862a43.276,43.276,0,0,0-1.814-5.723c8.3-15.918-1.482-49.67-1.482-49.67s2.223-89.529.869-117.379c0-.256-.025-.485-.025-.715-.2-3.781-.486-6.311-.843-7.154-2.938-6.848-29.1-8.559-29.1-8.559V1.4h85.594Z" transform="translate(-48.276 0.901)" fill="#f6e2bb" stroke="#231815" stroke-miterlimit="10" stroke-width="5"/>
      <path id="路径_391" data-name="路径 391" d="M391.563,188.553a43.285,43.285,0,0,0-1.814-5.723c8.3-15.918-1.482-49.67-1.482-49.67s2.223-89.529.869-117.379l-39.118,1.1v26.01s-2.351,22.025-33.676,33.752c-31.3,11.753-50.13,8.074-69.472,11.012-19.316,2.938-44.765,8.074-44.765,8.074L165.9,179.891s31.81,6.592,55.521,1.226c9.633-2.2,14.666-5.468,17.144-9.275,0,0,14.922,62.752,5.468,72.87h30.661s-2.3-44.356,20.875-45.659c23.149-1.3,39.45,23.481,41.085,37.508,19.9.307,56.39-.562,57.591-.588.23-2.657.383-5.544.46-8.559.358-12.929-.46-28.208-3.143-38.862Zm-56.824-4.471c-8.815.46-15.816.767-18.32.945-6.848.485-28.361-4.727-36.18-34.9a323.12,323.12,0,0,0-18.933-53.171s99.315-19.418,108.948,8a209.664,209.664,0,0,1,6.822,24.35c4.522,20.262,6.285,39.936,6.388,51.306-12.622,1.559-33.42,2.708-48.725,3.475Z" transform="translate(-165.9 23.263)" fill="#f6e2bb" stroke="#231815" stroke-miterlimit="10" stroke-width="5"/>
      <path id="路径_392" data-name="路径 392" d="M180.84,81.207c-1.712-4.65,10.271-15.637,20.057-18.09S215.1,69.709,216.56,80.236c.869,6.26,2.683,13.031-.971,18.626" transform="translate(-142.923 96.244)" fill="#f6e2bb" stroke="#231815" stroke-miterlimit="10" stroke-width="5"/>
      <path id="路径_393" data-name="路径 393" d="M255.3,101.96h-.026" transform="translate(-26.925 157.278)" fill="#f6e2bb" stroke="#231815" stroke-miterlimit="10" stroke-width="5"/>
      <path id="路径_394" data-name="路径 394" d="M282.539,121.64H241.965l-3.935-35.72L274.9,83.8l-.664,18.7-17.451,1.686-1.942-9.122" transform="translate(-53.734 129.038)" fill="#f6e2bb" stroke="#231815" stroke-miterlimit="10" stroke-width="5"/>
      <path id="路径_395" data-name="路径 395" d="M312.188,59.608c-9.633-27.416-108.948-8-108.948-8a323.121,323.121,0,0,1,18.933,53.171c7.818,30.175,29.332,35.388,36.18,34.9s47.141-1.967,67.045-4.42c-.153-15.969-3.577-48.265-13.21-75.655Zm-37.84,75.349a41.75,41.75,0,1,1,41.75-41.75A41.764,41.764,0,0,1,274.347,134.957Z" transform="translate(-107.834 68.606)" fill="#fff" stroke="#231815" stroke-miterlimit="10" stroke-width="5"/>
      <path id="路径_396" data-name="路径 396" d="M256.48,47.49a41.75,41.75,0,1,0,41.75,41.75,41.747,41.747,0,0,0-41.75-41.75Zm1.84,58.46a15.088,15.088,0,1,1,15.075-15.1,15.113,15.113,0,0,1-15.075,15.1Z" transform="translate(-89.966 72.574)" fill="#84190b" stroke="#231815" stroke-miterlimit="10" stroke-width="5"/>
      <path id="路径_397" data-name="路径 397" d="M256.055,73.635A15.088,15.088,0,1,1,240.98,58.56a15.092,15.092,0,0,1,15.075,15.075Z" transform="translate(-72.628 89.788)" fill="#fc9f3f" stroke="#231815" stroke-miterlimit="10" stroke-width="5"/>
      <path id="路径_398" data-name="路径 398" d="M279.5,86.658V46.288s.485-15.892-18.831-14.922-40.114,3.679-45.122,6.107S204.791,57.658,207.6,69.155s8.815,13.21,16.276,12.469,11.242,20.057,4.778,21.641-37.074,4.293-42.567,4.293S172.879,78.2,172.01,59.727s2.683-38.275,7.589-42.312S288.316-1.287,313.994.68c16.633,1.1,18.831,4.037,19.929,33.88s0,49.772-14.564,50.641-39.884,1.456-39.884,1.456Z" transform="translate(-156.603 -0.499)" fill="#f6e2bb" stroke="#231815" stroke-miterlimit="10" stroke-width="5"/>
      <path id="路径_399" data-name="路径 399" d="M300.652,53.524l-.971-15.2c-.664-9.479.383-21.411-8.943-27.007-4.139-2.657-9.173-3.6-14.155-3.807a287.112,287.112,0,0,0-30.329,1.38c-10.092.894-20.185,2.044-30.226,3.552-6.234.92-12.52,2.044-18.626,3.526-10.195,2.248-14.462,6.9-15.611,17.4-.894,9.939.664,20.262,1.38,30.2.588,4.982,1.405,10.041,3.3,14.538.945,2.2,2.325,4.318,4.318,4.574,5.826.639,18.115,3.449,17.758-5.672l.332-.051a7.211,7.211,0,0,1-.077,3.96c-3.245,6.311-12.6,4.395-18.32,3.807-3.041-.46-4.829-3.3-5.851-5.826-3.756-9.888-3.628-20.313-4.548-30.354-.562-9.863-1.814-22.152,6.183-29.613,2.811-2.683,7.1-3.679,10.731-4.727,6.183-1.482,12.545-2.606,18.805-3.526,20.211-2.759,40.447-5.059,60.887-4.8,15.3.256,24.477,9.147,23.839,24.682l.332,7.614.562,15.254H300.7Z" transform="translate(-144.513 7.825)" fill="#f6e2bb"/>
      <path id="路径_400" data-name="路径 400" d="M213.685,45.634c16.506-13.542,33.471-29,55.266-32.654l-.026,2.555c-16.3-1.252-41.75,21.156-53.528,31.989l-1.737-1.891h0Z" transform="translate(-91.63 18.909)" fill="#f6e2bb"/>
      <path id="路径_401" data-name="路径 401" d="M210.44,30.517C224.058,12.58,246.364-3.056,269.819,3.1l-.792,2.427c-22.05-8.559-44.535,8.994-56.467,26.445l-2.1-1.456h0Z" transform="translate(-96.638 1.423)" fill="#f6e2bb"/>
      <path id="路径_402" data-name="路径 402" d="M204.61,30.37c2.555-10.808,7.921-20.364,14.462-29.23L220.937,2.9c-7.691,6.873-11.779,18.064-13.8,27.952l-2.5-.485h0Z" transform="translate(-105.704 0.497)" fill="#f6e2bb"/>
      <path id="路径_403" data-name="路径 403" d="M194.13,30.607a68.823,68.823,0,0,1,5.11-27.7l2.146,1.405c-1.967,1.3-2.427,3.756-3.143,5.851a53.919,53.919,0,0,0-1.533,20.313l-2.555.153h0Z" transform="translate(-122.026 3.249)" fill="#f6e2bb"/>
      <path id="路径_404" data-name="路径 404" d="M194.445,41.045c-10.3-6.822-17.5-19.776-10.322-31.427.843-1.533,1.916-2.836,2.223-4.778L188.364,6.4c-1.737.741-2.581,2.248-3.373,3.7-2.376,4.318-3.424,9.556-1.942,14.308,1.942,6.337,7.078,11.242,12.75,14.487l-1.38,2.146h0Z" transform="translate(-142.066 6.251)" fill="#f6e2bb"/>
      <path id="路径_405" data-name="路径 405" d="M209.2,45.84a37.247,37.247,0,0,1-31.325-16.071c-2.632-3.219-3.6-7.18-6.388-10.322l2.351-1c.332,4.037,3.092,7.231,5.161,10.5a33.507,33.507,0,0,0,30.1,14.334l.077,2.555h0Z" transform="translate(-157.207 27.415)" fill="#f6e2bb"/>
      <path id="路径_406" data-name="路径 406" d="M261.178,227.415c.077,3.015.23,5.9.46,8.559,1.2.026,37.687.894,57.591.588,1.635-14.027,17.937-38.811,41.085-37.508,23.174,1.3,20.875,45.659,20.875,45.659H411.85c-9.454-10.118,5.468-72.87,5.468-72.87,2.478,3.807,7.512,7.077,17.144,9.275,23.711,5.366,55.521-1.226,55.521-1.226L453.778,95.728s-25.448-5.136-44.765-8.074c-19.342-2.938-38.173.741-69.472-11.012-31.325-11.728-33.676-33.752-33.676-33.752V16.879l-39.118-1.1c-1.354,27.85.869,117.379.869,117.379s-9.786,33.752-1.482,49.67a43.287,43.287,0,0,0-1.814,5.723c-2.683,10.655-3.5,25.934-3.143,38.862Zm11.242-46.809c.1-11.37,1.865-31.044,6.388-51.306a209.653,209.653,0,0,1,6.822-24.35c9.633-27.416,108.948-8,108.948-8a323.117,323.117,0,0,0-18.933,53.171c-7.819,30.175-29.332,35.388-36.18,34.9-2.5-.179-9.5-.485-18.32-.945C305.841,183.315,285.042,182.165,272.42,180.607Z" transform="translate(-17.86 23.263)" fill="#f6e2bb" stroke="#231815" stroke-miterlimit="10" stroke-width="5"/>
      <path id="路径_407" data-name="路径 407" d="M323.576,98.862c-3.654-5.6-1.84-12.366-.971-18.626,1.456-10.527,5.877-19.572,15.662-17.119s21.769,13.44,20.057,18.09" transform="translate(75.881 96.244)" fill="#f6e2bb" stroke="#231815" stroke-miterlimit="10" stroke-width="5"/>
      <path id="路径_408" data-name="路径 408" d="M261.326,101.96H261.3" transform="translate(-17.548 157.278)" fill="#f6e2bb" stroke="#231815" stroke-miterlimit="10" stroke-width="5"/>
      <path id="路径_409" data-name="路径 409" d="M261.13,121.64h40.6l3.909-35.72L268.77,83.8l.664,18.7,17.451,1.686,1.967-9.122" transform="translate(-17.812 129.038)" fill="#f6e2bb" stroke="#231815" stroke-miterlimit="10" stroke-width="5"/>
      <path id="路径_410" data-name="路径 410" d="M265.53,135.264c19.9,2.453,60.2,3.935,67.045,4.42s28.361-4.727,36.18-34.9a323.123,323.123,0,0,1,18.933-53.171s-99.315-19.418-108.948,8c-9.633,27.39-13.056,59.686-13.21,75.655Zm9.3-42.056a41.75,41.75,0,1,1,41.75,41.75,41.731,41.731,0,0,1-41.75-41.75Z" transform="translate(-10.97 68.606)" fill="#fff" stroke="#231815" stroke-miterlimit="10" stroke-width="5"/>
      <path id="路径_411" data-name="路径 411" d="M269.17,89.24a41.75,41.75,0,1,0,41.75-41.75,41.747,41.747,0,0,0-41.75,41.75Zm24.835,1.61a15.088,15.088,0,1,1,15.075,15.1,15.07,15.07,0,0,1-15.075-15.1Z" transform="translate(-5.309 72.574)" fill="#84190b" stroke="#231815" stroke-miterlimit="10" stroke-width="5"/>
      <path id="路径_412" data-name="路径 412" d="M278.89,73.635A15.088,15.088,0,1,0,293.965,58.56,15.092,15.092,0,0,0,278.89,73.635Z" transform="translate(9.806 89.788)" fill="#fc9f3f" stroke="#231815" stroke-miterlimit="10" stroke-width="5"/>
      <path id="路径_413" data-name="路径 413" d="M335.894,86.658V46.288s-.485-15.892,18.831-14.922,40.114,3.679,45.122,6.107,10.757,20.185,7.946,31.683-8.815,13.21-16.276,12.469-11.242,20.057-4.778,21.641,37.074,4.293,42.567,4.293,13.21-29.358,14.078-47.831S440.7,21.453,435.8,17.416,327.079-1.287,301.4.68c-16.633,1.1-18.831,4.037-19.929,33.88s0,49.772,14.564,50.641,39.884,1.456,39.884,1.456Z" transform="translate(13.331 -0.499)" fill="#f6e2bb" stroke="#231815" stroke-miterlimit="10" stroke-width="5"/>
      <path id="路径_414" data-name="路径 414" d="M289.29,53.44c.179-5.085.664-17.988.894-22.868-.613-15.535,8.457-24.4,23.839-24.682a402.869,402.869,0,0,1,75.936,7.461c4.855,1.226,10.655,2.121,14.487,5.57,8,7.461,6.72,19.725,6.183,29.613-1.175,8.329-.281,33.727-10.425,36.18-6.311,1.073-20.415,2.325-18.4-7.767l.332.051c-.588,5.953,5.647,6.848,10.323,6.49a66.814,66.814,0,0,0,7.435-.818c1.993-.256,3.373-2.376,4.318-4.574,3.73-9.275,3.577-19.751,4.548-29.69.613-10.3,2.1-24.375-8.432-30.1a49.625,49.625,0,0,0-7.052-2.351c-16.02-3.756-32.475-5.519-48.853-7.078A280.439,280.439,0,0,0,314.1,7.5c-4.957.179-10.016,1.15-14.155,3.807-9.352,5.647-8.3,17.5-8.943,27.007l-.971,15.2h-.715Z" transform="translate(25.979 7.883)" fill="#f6e2bb"/>
      <path id="路径_415" data-name="路径 415" d="M281.3,12.98c11.268.664,20.67,7,29.766,12.852,9.045,5.953,16.812,13.388,25.5,19.8l-1.737,1.891c-7.129-7.972-16.071-14.1-24.784-20.211C301.4,21.82,291.72,15.637,281.3,15.535l-.026-2.555h0Z" transform="translate(13.507 18.909)" fill="#f6e2bb"/>
      <path id="路径_416" data-name="路径 416" d="M282.9,3.241c23.583-7.026,45.25,10.169,59.38,27.416l-2.1,1.456C328.789,14,305.665-2,283.718,5.668l-.792-2.427h0Z" transform="translate(16.042 1.258)" fill="#f6e2bb"/>
      <path id="路径_417" data-name="路径 417" d="M307.43,1.15c7.384,8.432,11.038,18.78,14.462,29.23l-2.5.511c-1.15-10.246-6.873-20.517-13.8-27.952l1.865-1.763h0Z" transform="translate(51.326 0.513)" fill="#f6e2bb"/>
      <path id="路径_418" data-name="路径 418" d="M321.776,2.926c4.957,8.687,3.986,18.32,5.11,27.7l-2.555-.153c1.073-2.172.562-4.522.562-6.822-.409-6.592-1.482-13.925-5.263-19.342L321.776,2.9h0Z" transform="translate(73.159 3.234)" fill="#f6e2bb"/>
      <path id="路径_419" data-name="路径 419" d="M339.1,4.83c8.355,11.012,6.439,24.043-4.344,32.526-1.329,1.124-2.785,1.967-3.73,3.7l-1.38-2.146c3.526-.485,5.7-3.526,8.023-5.851,7.333-7.793,6.592-19.035-.562-26.649l2.018-1.559h0Z" transform="translate(88.741 6.235)" fill="#f6e2bb"/>
      <path id="路径_420" data-name="路径 420" d="M368.043,19.456C362.421,32.411,351,43.678,336.411,44.981c-2.019.281-4.011,0-6.081.869l.077-2.555c3.782,1.431,7.818.026,11.549-.818,11.523-3.194,19.648-13.159,23.711-24.018l2.351,1h0Z" transform="translate(89.798 27.431)" fill="#f6e2bb"/>
    </g>
  </g>
</svg>
