<svg xmlns="http://www.w3.org/2000/svg" width="197.274" height="115.014" viewBox="0 0 197.274 115.014">
  <g id="oodargon-1" transform="translate(-164.497 0.514)">
    <g id="组_272" data-name="组 272" transform="translate(165.9 0.499)">
      <path id="路径_390" data-name="路径 390" d="M276.8,1.4V9.767s-10.777.705-11.987,3.526a13.093,13.093,0,0,0-.347,2.947c0,.095-.011.189-.011.295-.558,11.471.358,48.349.358,48.349s-4.031,13.9-.61,20.459a17.829,17.829,0,0,0-.747,2.357,65.094,65.094,0,0,0-1.294,16.007c.032,1.242.095,2.431.189,3.526.221,2.989.631,5.315,1.147,6.22h-8.651c.516-.905.926-3.231,1.147-6.22.095-1.095.158-2.284.189-3.526A65.092,65.092,0,0,0,254.885,87.7a17.827,17.827,0,0,0-.747-2.357c3.42-6.557-.61-20.459-.61-20.459s.916-36.877.358-48.349c0-.105-.01-.2-.01-.295a13.1,13.1,0,0,0-.347-2.947c-1.21-2.821-11.987-3.526-11.987-3.526V1.4H276.8Z" transform="translate(-161.934 -0.452)" fill="none" stroke="#231815" stroke-miterlimit="10" stroke-width="2"/>
      <path id="路径_391" data-name="路径 391" d="M258.851,86.945a17.828,17.828,0,0,0-.747-2.357c3.42-6.557-.61-20.459-.61-20.459s.916-36.877.358-48.349l-16.113.453V26.946s-.968,9.072-13.871,13.9-20.649,3.326-28.616,4.536-18.439,3.326-18.439,3.326L165.9,83.378s13.1,2.715,22.869.505c3.968-.905,6.041-2.252,7.062-3.82,0,0,6.146,25.848,2.252,30.015h12.629s-.947-18.27,8.6-18.807,16.25,9.672,16.923,15.45c8.2.126,23.227-.232,23.722-.242.095-1.095.158-2.284.189-3.526a65.092,65.092,0,0,0-1.294-16.007ZM235.445,85.1c-3.631.189-6.515.316-7.546.389-2.821.2-11.682-1.947-14.9-14.376a133.094,133.094,0,0,0-7.8-21.9s40.908-8,44.876,3.294a86.357,86.357,0,0,1,2.81,10.03,109.83,109.83,0,0,1,2.631,21.133c-5.2.642-13.766,1.116-20.07,1.431Z" transform="translate(-165.9 0.302)" fill="none" stroke="#231815" stroke-miterlimit="10" stroke-width="2"/>
      <path id="路径_392" data-name="路径 392" d="M180.743,70.33c-.705-1.915,4.231-6.441,8.262-7.451s5.852,2.715,6.451,7.051c.358,2.578,1.105,5.367-.4,7.672" transform="translate(-165.125 2.762)" fill="none" stroke="#231815" stroke-miterlimit="10" stroke-width="2"/>
      <path id="路径_393" data-name="路径 393" d="M255.281,101.96h-.011" transform="translate(-161.214 4.82)" fill="none" stroke="#231815" stroke-miterlimit="10" stroke-width="2"/>
      <path id="路径_394" data-name="路径 394" d="M256.363,99.386H239.651L238.03,84.674l15.187-.874-.274,7.7-7.188.695-.8-3.757" transform="translate(-162.118 3.868)" fill="none" stroke="#231815" stroke-miterlimit="10" stroke-width="2"/>
      <path id="路径_395" data-name="路径 395" d="M248.116,50.981c-3.968-11.293-44.876-3.294-44.876-3.294a133.094,133.094,0,0,1,7.8,21.9c3.22,12.429,12.082,14.576,14.9,14.376s19.417-.81,27.616-1.821a108.677,108.677,0,0,0-5.441-31.162ZM232.529,82.017a17.2,17.2,0,1,1,17.2-17.2A17.2,17.2,0,0,1,232.529,82.017Z" transform="translate(-163.942 1.831)" fill="none" stroke="#231815" stroke-miterlimit="10" stroke-width="2"/>
      <path id="路径_396" data-name="路径 396" d="M231.927,47.49a17.2,17.2,0,1,0,17.2,17.2,17.2,17.2,0,0,0-17.2-17.2Zm.758,24.08a6.215,6.215,0,1,1,6.209-6.22,6.225,6.225,0,0,1-6.209,6.22Z" transform="translate(-163.34 1.964)" fill="none" stroke="#231815" stroke-miterlimit="10" stroke-width="2"/>
      <path id="路径_397" data-name="路径 397" d="M238.309,64.769A6.215,6.215,0,1,1,232.1,58.56a6.216,6.216,0,0,1,6.209,6.209Z" transform="translate(-162.755 2.545)" fill="none" stroke="#231815" stroke-miterlimit="10" stroke-width="2"/>
      <path id="路径_398" data-name="路径 398" d="M216.208,35.988V19.36s.2-6.546-7.756-6.146-16.523,1.516-18.586,2.515-4.431,8.314-3.273,13.05,3.631,5.441,6.7,5.136,4.631,8.262,1.968,8.914S179.994,44.6,177.732,44.6s-5.441-12.092-5.8-19.7,1.105-15.765,3.126-17.428,44.781-7.7,55.358-6.893c6.851.453,7.756,1.663,8.209,13.955s0,20.5-6,20.859-16.428.6-16.428.6Z" transform="translate(-165.587 -0.499)" fill="none" stroke="#231815" stroke-miterlimit="10" stroke-width="2"/>
      <path id="路径_399" data-name="路径 399" d="M229.493,25.488l-.4-6.262c-.274-3.9.158-8.819-3.684-11.124a11.6,11.6,0,0,0-5.83-1.568,118.262,118.262,0,0,0-12.492.568c-4.157.368-8.314.842-12.45,1.463-2.568.379-5.157.842-7.672,1.452-4.2.926-5.957,2.842-6.43,7.167-.368,4.094.274,8.346.568,12.44a22.244,22.244,0,0,0,1.358,5.988c.389.905.958,1.779,1.779,1.884,2.4.263,7.462,1.421,7.314-2.336l.137-.021a2.97,2.97,0,0,1-.032,1.631c-1.337,2.6-5.188,1.81-7.546,1.568a3.461,3.461,0,0,1-2.41-2.4c-1.547-4.073-1.494-8.367-1.873-12.5-.232-4.062-.747-9.125,2.547-12.2,1.158-1.105,2.926-1.516,4.42-1.947,2.547-.61,5.167-1.073,7.746-1.452A169.619,169.619,0,0,1,219.621,5.86c6.3.105,10.082,3.768,9.819,10.166l.137,3.136.232,6.283h-.295Z" transform="translate(-165.179 -0.219)" fill="none"/>
      <path id="路径_400" data-name="路径 400" d="M213.671,26.43c6.8-5.578,13.787-11.945,22.764-13.45l-.011,1.052c-6.715-.516-17.2,8.714-22.048,13.176l-.716-.779h0Z" transform="translate(-163.396 0.155)" fill="none"/>
      <path id="路径_401" data-name="路径 401" d="M210.44,13.591C216.049,6.2,225.237-.238,234.9,2.3l-.326,1C225.49-.228,216.228,7,211.314,14.19l-.863-.6h0Z" transform="translate(-163.565 -0.434)" fill="none"/>
      <path id="路径_402" data-name="路径 402" d="M204.61,13.18a33.277,33.277,0,0,1,5.957-12.04l.768.726c-3.168,2.831-4.852,7.441-5.683,11.514l-1.031-.2h0Z" transform="translate(-163.87 -0.466)" fill="none"/>
      <path id="路径_403" data-name="路径 403" d="M194.12,14.318a28.348,28.348,0,0,1,2.1-11.408l.884.579a4.212,4.212,0,0,0-1.294,2.41,22.209,22.209,0,0,0-.631,8.367l-1.052.063h0Z" transform="translate(-164.421 -0.373)" fill="none"/>
      <path id="路径_404" data-name="路径 404" d="M186.671,19.753c-4.241-2.81-7.209-8.146-4.252-12.945a5.835,5.835,0,0,0,.916-1.968l.831.642a3.009,3.009,0,0,0-1.389,1.526,7.675,7.675,0,0,0-.8,5.894,10.933,10.933,0,0,0,5.252,5.967l-.568.884h0Z" transform="translate(-165.096 -0.272)" fill="none"/>
      <path id="路径_405" data-name="路径 405" d="M187.024,29.732a15.342,15.342,0,0,1-12.9-6.62c-1.084-1.326-1.484-2.957-2.631-4.252l.968-.41c.137,1.663,1.273,2.978,2.126,4.325a13.8,13.8,0,0,0,12.4,5.9l.032,1.052h0Z" transform="translate(-165.607 0.442)" fill="none"/>
      <path id="路径_406" data-name="路径 406" d="M261.132,102.953c.032,1.242.095,2.431.189,3.526.495.011,15.523.368,23.722.242.674-5.778,7.388-15.986,16.923-15.45s8.6,18.807,8.6,18.807h12.629c-3.894-4.168,2.252-30.015,2.252-30.015,1.021,1.568,3.094,2.915,7.062,3.82,9.767,2.21,22.869-.505,22.869-.505L340.464,48.711s-10.482-2.115-18.439-3.326-15.723.305-28.616-4.536-13.871-13.9-13.871-13.9V16.233l-16.113-.453c-.558,11.471.358,48.349.358,48.349s-4.031,13.9-.61,20.459a17.829,17.829,0,0,0-.747,2.357,65.094,65.094,0,0,0-1.294,16.007Zm4.631-19.281a109.83,109.83,0,0,1,2.631-21.133,86.357,86.357,0,0,1,2.81-10.03c3.968-11.293,44.876-3.294,44.876-3.294a133.093,133.093,0,0,0-7.8,21.9c-3.22,12.429-12.082,14.576-14.9,14.376-1.031-.074-3.915-.2-7.546-.389C279.528,84.788,270.961,84.314,265.762,83.672Z" transform="translate(-160.909 0.302)" fill="none" stroke="#231815" stroke-miterlimit="10" stroke-width="2"/>
      <path id="路径_407" data-name="路径 407" d="M322.285,77.6c-1.5-2.3-.758-5.094-.4-7.672.6-4.336,2.421-8.062,6.451-7.051s8.967,5.536,8.262,7.451" transform="translate(-157.748 2.762)" fill="none" stroke="#231815" stroke-miterlimit="10" stroke-width="2"/>
      <path id="路径_408" data-name="路径 408" d="M261.311,101.96H261.3" transform="translate(-160.898 4.82)" fill="none" stroke="#231815" stroke-miterlimit="10" stroke-width="2"/>
      <path id="路径_409" data-name="路径 409" d="M261.13,99.386h16.723l1.61-14.713L264.277,83.8l.274,7.7,7.188.695.81-3.757" transform="translate(-160.907 3.868)" fill="none" stroke="#231815" stroke-miterlimit="10" stroke-width="2"/>
      <path id="路径_410" data-name="路径 410" d="M265.53,82.143c8.2,1.01,24.8,1.621,27.616,1.821s11.682-1.947,14.9-14.376a133.094,133.094,0,0,1,7.8-21.9s-40.908-8-44.876,3.294a108.68,108.68,0,0,0-5.441,31.162Zm3.831-17.323a17.2,17.2,0,1,1,17.2,17.2,17.189,17.189,0,0,1-17.2-17.2Z" transform="translate(-160.676 1.831)" fill="none" stroke="#231815" stroke-miterlimit="10" stroke-width="2"/>
      <path id="路径_411" data-name="路径 411" d="M269.17,64.687a17.2,17.2,0,1,0,17.2-17.2,17.2,17.2,0,0,0-17.2,17.2Zm10.23.663a6.215,6.215,0,1,1,6.209,6.22,6.207,6.207,0,0,1-6.209-6.22Z" transform="translate(-160.486 1.964)" fill="none" stroke="#231815" stroke-miterlimit="10" stroke-width="2"/>
      <path id="路径_412" data-name="路径 412" d="M278.89,64.769A6.215,6.215,0,1,0,285.1,58.56a6.216,6.216,0,0,0-6.209,6.209Z" transform="translate(-159.976 2.545)" fill="none" stroke="#231815" stroke-miterlimit="10" stroke-width="2"/>
      <path id="路径_413" data-name="路径 413" d="M303.7,35.988V19.36s-.2-6.546,7.756-6.146,16.523,1.516,18.586,2.515,4.431,8.314,3.273,13.05-3.631,5.441-6.7,5.136-4.631,8.262-1.968,8.914S339.917,44.6,342.18,44.6s5.441-12.092,5.8-19.7S346.874,9.13,344.853,7.467,300.072-.237,289.5.574c-6.851.453-7.756,1.663-8.209,13.955s0,20.5,6,20.859,16.428.6,16.428.6Z" transform="translate(-159.857 -0.499)" fill="none" stroke="#231815" stroke-miterlimit="10" stroke-width="2"/>
      <path id="路径_414" data-name="路径 414" d="M289.29,25.476c.074-2.094.274-7.409.368-9.419-.253-6.4,3.484-10.051,9.819-10.166a165.942,165.942,0,0,1,31.278,3.073c2,.505,4.389.874,5.967,2.294,3.294,3.073,2.768,8.125,2.547,12.2-.484,3.431-.116,13.892-4.294,14.9-2.6.442-8.409.958-7.578-3.2l.137.021c-.242,2.452,2.326,2.821,4.252,2.673a27.519,27.519,0,0,0,3.063-.337c.821-.105,1.389-.979,1.779-1.884,1.537-3.82,1.473-8.135,1.873-12.229.253-4.241.863-10.04-3.473-12.4a20.44,20.44,0,0,0-2.9-.968A150.472,150.472,0,0,0,312,7.121a115.513,115.513,0,0,0-12.492-.568,11.522,11.522,0,0,0-5.83,1.568c-3.852,2.326-3.42,7.209-3.684,11.124l-.4,6.262H289.3Z" transform="translate(-159.431 -0.217)" fill="none"/>
      <path id="路径_415" data-name="路径 415" d="M281.281,12.98c4.641.274,8.514,2.884,12.261,5.294,3.726,2.452,6.925,5.515,10.5,8.156l-.716.779c-2.936-3.284-6.62-5.809-10.209-8.325-3.557-2.263-7.546-4.81-11.84-4.852l-.011-1.052h0Z" transform="translate(-159.851 0.155)" fill="none"/>
      <path id="路径_416" data-name="路径 416" d="M282.9,2.293c9.714-2.894,18.639,4.189,24.458,11.293l-.863.6C301.8,6.724,292.277.136,283.237,3.293l-.326-1h0Z" transform="translate(-159.766 -0.44)" fill="none"/>
      <path id="路径_417" data-name="路径 417" d="M306.348,1.15c3.042,3.473,4.547,7.735,5.957,12.04l-1.031.21A21.271,21.271,0,0,0,305.59,1.887l.768-.726h0Z" transform="translate(-158.576 -0.465)" fill="none"/>
      <path id="路径_418" data-name="路径 418" d="M320.514,2.911c2.042,3.578,1.642,7.546,2.1,11.408l-1.052-.063a6.04,6.04,0,0,0,.232-2.81c-.168-2.715-.61-5.736-2.168-7.967l.884-.579h0Z" transform="translate(-157.84 -0.373)" fill="none"/>
      <path id="路径_419" data-name="路径 419" d="M333.544,4.83c3.441,4.536,2.652,9.9-1.789,13.4a5.434,5.434,0,0,0-1.537,1.526l-.568-.884c1.452-.2,2.347-1.452,3.3-2.41a7.852,7.852,0,0,0-.232-10.977l.831-.642h0Z" transform="translate(-157.314 -0.272)" fill="none"/>
      <path id="路径_420" data-name="路径 420" d="M345.864,18.87c-2.315,5.336-7.02,9.977-13.029,10.514a9.059,9.059,0,0,0-2.5.358l.032-1.052c1.558.589,3.22.011,4.757-.337,4.746-1.316,8.093-5.42,9.767-9.893l.968.41h0Z" transform="translate(-157.279 0.442)" fill="none"/>
    </g>
  </g>
</svg>
