<svg xmlns="http://www.w3.org/2000/svg" width="1358.5" height="1328.928" viewBox="0 0 1358.5 1328.928">
  <g id="组_313" data-name="组 313" transform="translate(-177.557 -9842.546)">
    <g id="中华人民共和国" transform="translate(-114.443 9719.046)">
      <path id="国界" d="M301.2,600.694V589.758l-2.734,2.734L293,581.557l10.935-5.468-2.734-8.2,8.2-8.2,2.734,2.734,8.2-8.2h5.468V548.75l8.2,2.734,5.468-5.468,2.734,8.2h16.4l13.669-21.871,13.669,2.734,8.2-8.2,2.734,2.734v-5.468l16.4-5.468,8.2-8.2,19.137-5.468V485.871l8.2-8.2-2.734-2.734,8.2-2.734V461.266l-8.2-19.137v-16.4l-10.935-5.468V414.79l35.54-10.936,21.871,5.468,2.734-2.734-8.2-8.2v-5.468l16.4-49.21,19.137,8.2,24.6,2.734,10.935-5.468,5.468-5.468-5.468-30.073L569.121,302.7l5.468,2.734,8.2-5.468,5.468-10.935-2.734-2.734,5.468-5.468h16.4l5.468,19.137,13.669,5.468L632,316.371h16.4l2.734,8.2,8.2-2.734v5.468l8.2,5.468,5.468,19.137h5.468l2.734,8.2v8.2l-5.468,5.468,2.734,8.2-5.468,8.2,2.734,19.137,2.734-2.734,8.2,5.468,2.734-2.734,16.4,5.468h27.339l30.073,21.871H776.9l-2.734,8.2h5.468l2.734,13.669,16.4,24.6,16.4-2.734,51.944,8.2h43.742l19.137,13.669,2.734-2.734,13.669,8.2,27.339,2.734,2.734,5.468,10.936,2.734,8.2-8.2,46.476-19.137,27.339,2.734,30.073-8.2L1121.363,464l10.935-2.734,8.2-8.2-10.936-16.4,2.734-13.669,8.2-10.935,35.54,10.935,10.936-5.468,13.669-16.4h19.137l16.4-13.669-2.734-2.734,13.669-13.669h10.935l2.734-8.2,10.936,2.734,5.468-5.468,13.669-2.734,5.468,5.468,19.137-2.734-2.734-13.669L1285.4,319.1l-13.669-2.734-10.936,10.935-24.6-5.468-8.2,8.2-8.2-8.2v-5.468l5.468-5.468,19.137-54.677,21.871,10.935,19.137-13.669,16.4-5.468,2.734-8.2h-5.468v-5.468l13.669-19.137,5.468-21.871,8.2-8.2h5.468l2.734-8.2-2.734-13.669-5.468-5.468-8.2,2.734v-5.468l21.871-21.871,2.734,2.734L1386.549,125h10.936l10.935,8.2,2.734-2.734,5.468,8.2,8.2,2.734h16.4v8.2h5.468l2.734,10.935,8.2,5.468-2.734,8.2,5.468,2.734-2.734,2.734,8.2,13.669-2.734,2.734,5.468,2.734v16.4l8.2,8.2,2.734,19.137h5.468l-2.734,13.669,8.2,10.935,19.137-2.734V269.9h16.4v5.468h5.468l10.935,13.669h10.936l-5.468,8.2,8.2,10.936-5.468,5.468,10.936,16.4,30.073-2.734,13.669-13.669,5.468,2.734,19.137-10.935H1649l-8.2,2.734-2.734,13.669,5.468,5.468-16.4,16.4,2.734,2.734-8.2,19.137,2.734,8.2-19.137,35.54-8.2,2.734-19.137-8.2-5.468,5.468,2.734,2.734-16.4,5.468,8.2,27.339v16.4l-5.468,16.4-13.669,5.468,2.734,8.2-8.2-8.2v-5.468l-8.2-2.734-2.734,13.669-5.468,5.468-2.734-2.734-8.2,13.669H1493.17l8.2,13.669-5.468,5.468-19.137-2.734-5.468-5.468,2.734-2.734h-5.468l2.734-2.734-8.2,2.734-13.669,24.6-19.137,8.2-16.4,13.669M410.556,783.863l-8.2-8.2v-5.468l8.2-8.2,5.468,10.935,5.468-5.468V756.524l-13.669-16.4V729.186l8.2-8.2-16.4-10.935-5.468-21.871-13.669,2.734-19.137-8.2v-5.468l-8.2,2.734-5.468-8.2,2.734-8.2-8.2-8.2h-5.468V649.9l-21.871-5.468,5.468-5.468,5.468,2.734m702.605,388.21h-5.468l2.734-8.2h-5.468l5.468-10.935-5.468-5.468-13.669,2.734L995.6,997.1h-5.468l-5.468,10.935H971l-8.2,8.2-5.468-5.468h-5.468l-8.2,8.2-8.2-8.2h-5.468l-2.734,8.2-13.669-2.734v32.806l-10.935-2.734v-10.936l-21.871,5.468v-5.468h-5.468l-2.734-8.2H861.645v-16.4l5.468-5.468-13.669-5.468V988.9l-5.468-5.468,5.468-5.468h-16.4L826.1,983.436l-2.734-2.734,5.468-5.468-5.468-5.468,5.468-10.936L826.1,956.1l21.871-21.871-2.734-2.734,5.468-10.935V898.686l-8.2-8.2v5.468l-5.468-5.468V879.549L826.1,874.081v-5.468l-5.468,5.468,2.734,2.734H817.9l2.734,8.2-8.2,5.468L793.3,876.815H782.363l-8.2,2.734v5.468l-8.2,5.468-13.669,2.734-16.4,16.4-10.935,2.734H703.081v-16.4H692.145l-2.734-13.669-13.669,2.734-24.6-8.2L640.2,887.75l-5.468,13.669-5.468-5.468L632,882.282l-5.468-2.734-5.468,5.468L607.4,887.75H596.46l-13.669-8.2-5.468,5.468-5.468-5.468v5.468l-10.935-10.935-8.2,2.734-2.734-10.935-8.2,2.734-13.669-13.669v-5.468l-10.935,5.468-13.669-13.669H498.04v-5.468l-2.734,2.734-2.734-5.468H487.1l-2.734-8.2L470.7,822.137l-5.468,10.936L426.96,805.734l-8.2,2.734-8.2-8.2v-16.4m642.46,256.984-13.669-2.734-10.935-8.2m32.806,363.605-2.734-24.6m24.6-205.04,8.2,10.935,2.734,13.669m10.935,65.613-5.468,21.871m38.274,174.968,21.871-8.2m60.145-76.548,13.669-16.4m51.943-65.613,8.2-24.6m2.734-90.218v24.6m21.871-92.952-13.669,21.871m54.677-87.484-16.4,21.871m30.073-62.879,5.468-27.339" transform="translate(0 0)" fill="none" stroke="#201920" stroke-linecap="round" stroke-linejoin="round" stroke-width="2"/>
      <path id="争议" d="M320.6,340.008l5.468-5.468-5.468-5.468V307.2l-5.468-5.468-8.2-2.734-5.468,5.468L296,299" transform="translate(5.202 301.694)" fill="none" stroke="#201920" stroke-linejoin="round" stroke-dashoffset="4" stroke-width="2" stroke-dasharray="4 4"/>
      <path id="港澳" d="M616,459.2h0m13.669-8.2H624.2l-2.734,8.2h13.669v-5.468L629.669,451" transform="translate(560.041 565.242)" fill="none" stroke="gray" stroke-linecap="round" stroke-linejoin="round" stroke-width="1" stroke-dasharray="8 4 4 4"/>
      <path id="海洋" d="M704.96,759.9v-5.468l-5.468,2.734-2.734-8.2-2.734,13.669-5.468,5.468-2.734-2.734v5.468l-8.2-2.734-5.468,5.468-8.2-2.734-5.468,5.468-27.339,5.468-10.935,8.2v5.468l8.2,8.2-5.468,5.468H612.008l-5.468-16.4,5.468-10.936L606.54,776.3l-5.468,5.468H595.6V776.3L571,779.032m51.944,8.2h0m0,0v0m71.081-24.6h0M704.96,759.9h0m0,0h0m0,0h0M833.452,653.274l-8.2,2.734h5.468l2.734,8.2-8.2,2.734,2.734,8.2-5.468,5.468h10.936l-5.468,5.468-8.2-2.734v5.468h-5.468l2.734,2.734-2.734,2.734v-5.468l-5.468,10.935-2.734-2.734,2.734,2.734-5.468,8.2-8.2-2.734v5.468l-16.4,19.137H767.839l-10.935,16.4H740.5l-5.468,5.468-5.468-5.468-8.2,8.2L715.9,748.96v5.468l-2.734,2.734v-5.468l-5.468,5.468h5.468l-8.2,2.734M833.452,653.274h0m41.008-60.145-5.468,10.936,2.734,8.2-8.2,8.2-2.734-2.734-2.734,8.2-2.734-2.734-21.871,35.54-2.734-2.734,5.468-5.468-2.734,2.734m35.54-262.452-5.468,5.468H852.589l2.734,8.2-2.734-2.734-2.734,8.2-8.2,2.734v0l-24.6,30.073,27.339,21.871,10.936,27.339v10.935l13.669,10.935-2.734,2.734,10.935,5.468v5.468l-13.669-5.468-5.468,5.468,5.468,5.468m0,0,16.4,13.669-2.734,2.734,5.468,5.468-10.935-5.468-13.669,8.2,8.2,2.734,10.935,13.669h5.468l-8.2,5.468,5.468,2.734-2.734,10.935m-8.2-202.306h0m0,0h0m16.4-71.081-8.2,10.935-10.935,5.468-8.2-2.734,13.669-8.2v-5.468l-2.734,2.734-8.2-8.2h5.468v-5.468L885.4,289.669l-2.734-8.2-2.734,2.734-5.468-5.468L860.79,276l-13.669,13.669v5.468l-19.137,8.2-8.2,8.2v5.468l-16.4,10.935v5.468l-8.2-2.734V325.21H789.71l-5.468,10.935v10.936h5.468v5.468l19.137,2.734,8.2,8.2,2.734-2.734v5.468l-8.2,2.734v5.468l8.2,8.2h10.935v-5.468l10.936-8.2-2.734-2.734,10.935-2.734,16.4,5.468v5.468l16.4-2.734,10.935,5.468-8.2,13.669h-16.4m0,0h0m5.468,202.306h0m0,0h0m0,0h0m2.734,0H874.46m2.734,0h0m5.468-21.871h0m0,0h0m0,0h0m2.734,0h-2.734m0,0-5.468-5.468h5.468l2.734,5.468m0,0h0m0-5.468,2.734-2.734L885.4,565.79m0,0h0m0-246.048h0m46.476-21.871L926.4,308.807H910l-24.6,10.935m2.734,232.379h0m0,0h0m5.468-2.734h0M590.137,776.3h0m5.468,13.669h0m8.2,27.339h0m0,284.323,2.734-5.468,8.2,2.734-2.734-2.734-8.2,5.468m2.734-243.315-21.871-10.936v-16.4l13.669-13.669,32.806-8.2,8.2,10.936-8.2,8.2-5.468,16.4-16.4,8.2-2.734,5.468m8.2,232.379,2.734-2.734-2.734,2.734m8.2-292.524h0m2.734-10.936h0m0,303.46h0m0-5.468,2.734-2.734-2.734,2.734m2.734-295.258v0m0,16.4h0m0,278.855h0m0-292.524h0m13.669,117.556h0m5.468-27.339,2.734-2.734-2.734,2.734m0,191.371h0m0-177.7h0m0,161.3h0m2.734,38.274h0m0-5.468h0m0-194.1h0m0-2.734h0m0,194.1,2.734,2.734-2.734-2.734m0-185.9h0m0,169.5,2.734,2.734-2.734-2.734m0-177.7h0m2.734,199.573h0m0-199.573h0m0,8.2,2.734-2.734-2.734,2.734m0-5.468,2.734-2.734-2.734,2.734m0,8.2h0m5.468,180.436h0m0-185.9h0m0,278.855h0m5.468-109.355h0m0,0h0m0,109.355h0m0-289.79h0m0,24.6h0m0-30.072,2.734,2.734-2.734-2.734m0,183.169,2.734,2.734-2.734-2.734m0,109.355h0m2.734-109.355h0m0,73.815h0m0-254.25h0m0,2.734h0m2.734,10.936-2.734,2.734,2.734-2.734m0-123.024h0m0,360.871h0m0-229.645,2.734-2.734-2.734,2.734m0-10.936,2.734-2.734-2.734,2.734m0,155.831h0m0,87.484,2.734-2.734-2.734,2.734m0-5.468,2.734,2.734-2.734-2.734m2.734-65.613h0m0,62.879h0m0,19.137h0m0-374.54h0m0,363.6h0m0,5.468h0m0-248.782,2.734,2.734-2.734-2.734m0,254.25h0m2.734-377.274-2.734,2.734,2.734-2.734m0,125.758h0m0-8.2h0M677.621,776.3l-2.734-2.734,2.734,2.734m0,289.79h0m0-289.79h0m0,112.089h0m0,202.307h0m0-38.274h0m0,0h0m2.734,101.153h0m0-76.548h0m0-251.516h0m0,224.177h0m0-278.855h0m2.734-2.734h0m0,2.734h0m2.734-2.734h0m0,355.4h0m0-38.274h0m0,0,2.734-2.734-2.734,2.734m8.2-322.6h0m0,273.387h0m0,73.815h0m0-43.742,2.734-2.734-2.734,2.734m2.734-5.468h0m0-292.524h0m0,147.629h0m0-147.629h0m0,0h0m0,0h0m0,328.065,2.734-2.734-2.734,2.734m2.734,5.468h0m0-344.468h0m0,8.2h0m0,68.347h0m0-71.081h0m0,278.855h0m0-123.024h0m0-5.468,2.734,2.734-2.734-2.734m0,174.968,2.734-2.734-2.734,2.734m0,8.2,13.669-8.2,2.734,2.734-5.468,5.468H699.492m2.734-30.073-2.734,2.734,2.734-2.734m0-155.831h0m0,158.565h0m0-2.734,2.734,2.734-2.734-2.734m0-144.9h0m2.734,120.29h0m0-19.137h0m0,62.879h0m0-177.7h0m0-144.9h0m2.734,5.468h0m0,287.056h0m0-295.258h0m0,8.2h0m0,300.726h0m0-164.032h0m0-139.427h0m0,153.1h0m0,117.556h0m0,10.936h0m0-284.323h0m0,153.1,2.734,2.734-2.734-2.734m2.734,133.96h0m0-38.274h0m0-256.984h0m0,265.186h0m0-259.718h0m0,278.855h0m0-13.669h0m0-16.4h0m2.734-103.887h0m0,139.427h0m0-128.492h0m0,131.226h0m0-24.6h0m0,2.734h0m0,19.137h0m0,41.008,2.734-2.734-2.734,2.734m2.734-41.008h0m0,0h0m0-32.806h0m0,32.806h0m0,24.6,2.734-2.734-2.734,2.734m0-153.1h0m0,128.492,2.734-2.734-2.734,2.734m0-32.806,2.734-2.734-2.734,2.734m0-254.25h0m2.734,339h0m0-13.669h0m0-49.21h0m0-24.6h0m0,10.936,2.734-2.734-2.734,2.734m0-117.557h0m0,144.9h0m2.734,35.54h0m0-65.613h0m0-106.621h0m0,114.823h0m0,79.282h0m0-16.4h0m2.734-65.613h0m0-117.556h0m0,194.1h0m0-82.016h0m5.468,60.145,2.734,2.734-2.734-2.734m0-2.734,2.734,2.734-2.734-2.734m2.734-35.54h0m0-84.75h0m2.734,101.153h0m0-10.936h0m0,32.807,2.734-2.734-2.734,2.734m5.468-46.476h0m0,0h0m0,0h0m0,2.734,2.734-2.734-2.734,2.734m2.734-2.734h0m0,19.137,2.734-2.734-2.734,2.734m0-27.339h0m2.734-232.379h0m0-2.734,2.734,2.734-2.734-2.734m0,270.653h0m2.734-16.4h0m2.734,10.936h0m2.734,13.669h0m2.734-19.137h0m0,13.669h0m0-13.669h0m0-13.669h0m2.734,13.669h0m2.734-16.4h0m0-131.226h0m0,109.355,2.734,2.734-2.734-2.734m0-210.508h0m0,265.185h0M765.1,795.436v0m0,235.113h0m8.2-297.992h0m0,295.258h0m0-2.734h0m2.734,10.935h0m0-8.2,2.734-2.734-2.734,2.734m0-10.935h0m0,24.6h0m2.734-21.871h0m5.468,8.2h0m0-8.2h0m0-92.952,2.734-2.734-2.734,2.734m2.734,98.419h0m5.468-317.129h0m2.734,0-2.734-2.734,2.734,2.734m0,2.734,2.734-2.734-2.734,2.734m5.468-2.734-2.734,2.734,2.734-2.734m5.468-380.008h0m2.734-2.734h0m0,0,2.734,2.734-2.734-2.734m13.669,412.814h0m0-46.476,2.734-2.734-2.734,2.734m2.734,43.742h0m0-8.2h0m0,0h0m0-46.476h0m2.734-13.669h0m0,62.879-2.734,2.734,2.734-2.734m0-51.944h0m0,2.734h0m0-24.6,2.734-2.734-2.734,2.734m0,30.073h0m0,0h0m2.734-30.073h0m2.734,24.6h0m0-13.669h0m0,5.468h0m2.734,60.145h0m0-68.347-2.734,2.734,2.734-2.734m0-5.468h0m2.734,0h0m0-2.734h0m0-5.468h0m0-229.645h0m2.734,226.911h0m0,112.089h0m0-112.089h0m2.734-281.589h0m2.734,295.258h0m2.734-300.726-2.734-2.734,2.734,2.734m0,407.347L838.919,748.96l-2.734-19.137,16.4-27.339,13.669-13.669h5.468l5.468,5.468v13.669l-10.935,32.806-10.935,13.669v16.4l-5.468-2.734m0-410.081h0m0,2.734h0m2.734-5.468h0m0-68.347h0m0,62.879h0m2.734-2.734h0m0,2.734h0m2.734,51.944h0m0,221.444h0m0,10.935h0m0-10.935,2.734-2.734-2.734,2.734m2.734,0,2.734-2.734L860.79,623.2m5.468-98.419,13.669,8.2-2.734,2.734-16.4-10.935h5.468m0-19.137h0m0,246.048h0m2.734,13.669h0m2.734,2.734h0m0-235.113h0m0,60.145h0m2.734,10.936h0m0-65.613-5.468-2.734,5.468,2.734m0-2.734,5.468,2.734-5.468-2.734m0,32.806h0m0,32.807h0m0,2.734,2.734-2.734-2.734,2.734m2.734,5.468h0m0-41.008-2.734,2.734,2.734-2.734m0-30.073h0m0,71.081h0m0,73.815h0m0,16.4h0m0-131.226h0m0-27.339,2.734-2.734-2.734,2.734m0,21.871h0m2.734,30.073h0m0-16.4h0m0-5.468h0m0-5.468h0m0-10.935h0m0,16.4h0m0,0h0m2.734,0h0m0,0h0m0-5.468h0m0-2.734,2.734,2.734-2.734-2.734m0,2.734h0m0,19.137h0m0-5.468-2.734-2.734,2.734,2.734m0,0h0m0-8.2,2.734,2.734-2.734-2.734m2.734,2.734h0m0,0h0m0,5.468-2.734-2.734,2.734,2.734m0-5.468,2.734-2.734v5.468l-2.734-2.734m2.734-248.782h0m0,246.048h0m0-10.936h0m2.734,0h0m0-235.113h0m0-2.734h0m0,232.379h0M893.6,325.21l2.734-2.734L893.6,325.21m2.734,243.314h0m0-237.847-2.734-2.734,2.734,2.734m0,221.444h0m0,0h0M901.8,314.274l-2.734,2.734,2.734-2.734m0,2.734h0m2.734,13.669h0m2.734,347.2h0m5.468-2.734h0m2.734-2.734,2.734,2.734-2.734-2.734m0,8.2h0m0-2.734h0m0,2.734h0m0-371.806h0m19.137,363.6-2.734,2.734,2.734-2.734" transform="translate(482.016 261.815)" fill="none" stroke="#4190da" stroke-linecap="round" stroke-linejoin="round" stroke-width="1"/>
      <path id="省界" d="M573.113,666.573l-24.6-8.2H521.169L499.3,663.839l-8.2,13.669H469.226l-19.137,10.935-24.6-2.734-2.734-8.2H411.815v5.468h-5.468l-5.468,8.2-32.806-5.468v5.468l-5.468,5.468-2.734-2.734-2.734,13.669-5.468,5.468-2.734-2.734L338,715.782m410.081,46.476h-5.468v5.468l-8.2,8.2h-5.468l-2.734,8.2-8.2-5.468-2.734,8.2-5.468-5.468-8.2,2.734-5.468-5.468,2.734-8.2-2.734,2.734-5.468-5.468h0l-8.2-8.2-16.4,5.468L652.4,762.258l-5.468-5.468H627.79l-13.669-8.2h-16.4l-10.935-5.468-16.4-21.871h5.468V699.379h-5.468l-2.734-8.2,8.2-16.4-10.935-5.468,8.2-2.734m60.145-79.282-19.137,2.734-5.468,5.468h-16.4l-2.734,5.468-8.2,2.734,2.734,5.468h5.468v13.669h5.468l13.669,19.137h-5.468l-8.2,8.2v5.468l8.2,2.734-5.468,10.935-16.4-5.468-5.468,5.468-2.734-2.734M838.3,734.919l-2.734,2.734-2.734-5.468h-5.468L816.428,721.25v-5.468l2.734-2.734,24.6,8.2v-5.468h5.468l-8.2-8.2v-5.468l10.935-10.935-2.734-2.734,10.936-5.468-2.734-8.2H862.9l2.734-5.468-5.468-16.4-8.2-8.2,5.468-5.468-16.4-16.4-2.734,2.734L827.363,620.1l-24.6-19.137v5.468h-5.468L775.42,584.557,761.75,587.29l-5.468,5.468-13.669-10.935H731.678l2.734,13.669-8.2,8.2v5.468l-5.468-2.734-5.468,5.468-10.935-8.2-24.6,2.734-5.468-13.669-10.935,2.734v-5.468H649.661l-2.734-8.2-13.669,5.468m87.484-109.355-10.935,8.2,5.468,8.2-5.468,10.935-13.669,5.468-8.2-2.734-21.871,19.137L660.6,538.081l-16.4,2.734-5.468,27.339-8.2,10.935,2.734,8.2m259.718,43.742L873.839,620.1v-16.4l10.935-5.468,8.2-13.669-5.468-5.468,2.734-2.734-8.2-2.734-16.4,10.935L854.7,579.089l-16.4,5.468,5.468,5.468-5.468,5.468-19.137-8.2-2.734-10.936-27.339-13.669,16.4-21.871-2.734-8.2H780.887v5.468l-2.734-2.734-8.2,5.468v-5.468l-8.2,5.468v-8.2l-8.2-5.468-5.468-10.935,2.734-5.468L737.145,475.2m43.742,371.807-5.468-38.274-8.2-13.669,8.2-2.734L764.484,781.4l-5.468-16.4-10.935-2.734M838.3,734.919l-2.734,13.669-10.935-5.468,2.734,13.669-16.4,5.468-5.468-5.468-2.734,2.734-5.468-10.935-2.734,8.2-19.137-8.2L764.484,721.25l-10.935-2.734-5.468,2.734v5.468h-5.468v5.468l8.2,8.2-8.2,8.2,2.734,2.734h-5.468l2.734,8.2,5.468,2.734m10.935,112.089v-5.468l10.936,5.468V852.476l5.468,5.468V847.008h5.468m133.96,38.274-2.734-8.2-10.936,5.468-5.468-5.468v-16.4H884.774v8.2l-10.935,5.468,2.734,8.2L862.9,896.218l2.734,19.137-8.2,8.2v-5.468l-19.137,8.2v-5.468h-5.468V909.887l-16.4-21.871,2.734-2.734-5.468-5.468-5.468,5.468-8.2-8.2V863.411l-8.2-5.468-5.468,5.468v10.935l-5.468-5.468V847.008m139.427-95.686-2.734,8.2h-16.4l-8.2-8.2,2.734-8.2-5.468-10.935L871.1,729.452l-8.2-13.669-16.4,10.935,8.2,8.2-13.669,13.669L838.3,734.919M966.791,620.1l-8.2-8.2-16.4-5.468,10.936-19.137-5.468-10.936-10.936,2.734v5.468l-2.734-2.734-5.468,10.935v21.871l-5.468,8.2-30.073,8.2m0,0h5.468l19.137,19.137-2.734,2.734,5.468,10.935v13.669h5.468v5.468h5.468l8.2,8.2V680.242l13.669-8.2v-5.468l-10.936-5.468V644.7l5.468-5.468h10.935M914.847,885.282v5.468l-10.935,5.468H892.976l-8.2-5.468-5.468,10.936,2.734,13.669,16.4-5.468,2.734,2.734-8.2,24.6,8.2,8.2h5.468l-8.2,13.669m0,0v5.468h10.936l5.468,10.935,13.669-2.734,5.468,5.468L931.25,989.17l-2.734-2.734-8.2,8.2m87.484-68.347-2.734,8.2-8.2-2.734-2.734,2.734H999.6v5.468l-8.2-2.734-2.734,8.2-10.936-5.468,2.734,2.734-10.935,5.468-8.2-2.734-2.734-8.2L931.25,959.1l-19.137-8.2-10.936,10.935-2.734-2.734m41.008-92.952-5.468-5.468-10.936,5.468v5.468l2.734-2.734,10.935,5.468,2.734,5.468-5.468,5.468H914.847m43.742-246.048V644.7l19.137,10.935,2.734-2.734,8.2,8.2v24.6l-5.468,5.468-13.669-2.734v10.935l-27.339-5.468,2.734,8.2-5.468,5.468,8.2,8.2h-5.468l2.734,19.137h-16.4l-2.734,8.2,5.468,2.734-8.2,8.2-2.734-2.734m65.613,19.137h-16.4l-2.734-5.468h-5.468l2.734-2.734-5.468,2.734-5.468-5.468,2.734-2.734-19.137,2.734-5.468-5.468-8.2,2.734-2.734-5.468m82.016,114.823-2.734,8.2h-5.468l-10.936-21.871H972.258l-5.468-5.468h-5.468v10.935l-8.2-2.734-5.468,10.935h-5.468v-5.468l-2.734,5.468m0,0-2.734-10.935H925.782v-5.468l-10.936-10.935,10.936-10.935-5.468-5.468,10.936-5.468,5.468,5.468,8.2-2.734v5.468l8.2,2.734,8.2-8.2V808.734L974.992,806V795.065l10.935-8.2-5.468-10.935,5.468-5.468M958.589,639.234V628.3l8.2-8.2m76.548-43.742v-5.468l-8.2,8.2h-8.2l-5.468-5.468,2.734,2.734-5.468,5.468L1016,579.089l2.734,2.734L999.6,600.96v13.669h-5.468l-5.468,10.935L966.791,620.1M985.927,770.46l24.6,13.669m0,0L1024.2,797.8v5.468L1007.8,814.2h-24.6v5.468l5.468,2.734-5.468,10.935h5.468l8.2,8.2-2.734,2.734,5.468-2.734,2.734,8.2m0,0v16.4m103.887-13.669h-5.468l-2.734-19.137-10.935,8.2-2.734-8.2-13.669,8.2L1059.742,830.6h-10.936l-5.468-5.468H1032.4v10.935l-19.137-2.734v5.468l-2.734-2.734-8.2,13.669m5.468,76.548v-5.468h-5.468l5.468-21.871-13.669,2.734v-5.468H999.6l-2.734-2.734,10.935-5.468-5.468-21.871m60.145,92.952-2.734-2.734-8.2,5.468V950.9H1040.6l10.936-19.137h-5.468l-2.734-13.669H1032.4l-8.2,10.935-5.468-5.468-5.468,5.468-5.468-2.734M1040.6,743.121l-5.468,5.468-5.468-5.468H1007.8l5.468,10.935,2.734-2.734,8.2,8.2h-10.936l-5.468,5.468,2.734,19.137m2.734,251.516v2.734m0-2.734,10.936-10.935,2.734,2.734v-5.468l8.2-2.734v-5.468l8.2-8.2h5.468v-16.4l16.4-21.871-2.734-8.2M1016,1068.452h2.734m2.734,0,5.468-2.734m0-358.137-2.734-8.2,8.2-19.137-5.468-38.274,10.936-16.4-8.2-8.2V611.9l8.2-8.2,2.734-13.669,5.468-5.468-2.734-8.2m-16.4,131.226,13.669,35.54m-13.669-35.54,27.339-5.468,8.2-8.2,2.734,2.734v-5.468h16.4l16.4-10.935,2.734-19.137m-71.081,404.613,2.734-2.734m103.887-270.653-5.468-5.468-8.2,2.734-2.734-8.2-13.669,2.734-5.468-10.935,2.734-2.734-5.468-5.468-5.468,5.468-5.468-5.468-19.137,2.734-10.936-5.468-16.4-19.137m0,2.734h0m68.347-207.774v5.468l-27.339,5.468v5.468l-8.2-5.468-13.669,21.871-8.2-2.734v5.468l-8.2,2.734M1062.476,959.1l5.468-10.935h10.936v5.468h5.468l2.734-8.2h-5.468l5.468-5.468,10.935,5.468,8.2-5.468m32.806-273.387-8.2-2.734-2.734,5.468-27.339-8.2m0,0-5.468-10.936h5.468V644.7l2.734,2.734-2.734-8.2,8.2-8.2V620.1l-5.468-10.935h-5.468V598.226l5.468-5.468-2.734-5.468,13.669-2.734,5.468-10.935-2.734-8.2-10.935-5.468v-5.468l2.734,2.734V551.75l8.2-2.734-8.2-10.935m46.476,295.258-5.468,2.734-10.936-5.468v5.468h-5.468l-8.2,8.2h-10.936l-8.2,8.2m0,87.484V929.024l5.468-5.468h-5.468l2.734-8.2-5.468-5.468V896.218l-5.468-5.468v-5.468l13.669-13.669V860.678l-5.468-8.2m0,87.484v5.468h16.4V950.9h-5.468l-5.468,10.935,5.468,2.734,19.137-8.2,10.935,5.468-2.734-2.734,5.468-5.468m71.081-431.952-19.137-2.734V497.073l-2.734,2.734-5.468-5.468,2.734-2.734-5.468-10.936-16.4,5.468-10.936,16.4-2.734-2.734-8.2,8.2-5.468-5.468-10.935,5.468v5.468h-10.936l2.734-10.935-10.936-5.468-5.468,16.4-8.2,2.734,5.468,21.871m46.476,169.5v5.468l8.2,2.734,2.734,8.2-8.2,8.2-10.935-10.936-5.468,5.468,2.734,8.2h-5.468l-2.734,8.2-10.936,5.468,8.2,8.2v5.468h16.4v16.4l-8.2,2.734-5.468,10.935m19.137,41.008-8.2-16.4V806l5.468-5.468-16.4-8.2m57.411-185.9L1180.032,620.1H1169.1l-8.2,8.2-2.734-2.734-2.734,8.2h-5.468v5.468L1136.291,652.9l2.734,13.669m16.4,41.008h-16.4v-5.468h-5.468v-5.468l-2.734,2.734-5.468-5.468,21.871-21.871h5.468v-5.468l-16.4,10.935,2.734-10.935m10.936,287.057-2.734-8.2,19.137-30.073-2.734-8.2,10.936-5.468,2.734-8.2-5.468-5.468,8.2-2.734v-5.468l8.2,2.734,16.4-10.935M1177.3,986.436l-8.2-24.6h-5.468l-5.468-5.468,2.734-2.734H1149.96m49.21-109.355v-5.468h-10.936l-8.2-8.2h-5.468l2.734,2.734-8.2,5.468-2.734-2.734,5.468-5.468-5.468-5.468-10.935,8.2m2.734-125.758h-2.734m68.347-10.935h-10.936v5.468l-8.2,2.734-2.734,8.2-8.2-8.2-5.468,5.468-8.2-2.734v5.468l-10.936-16.4-8.2,2.734-2.734,8.2m73.815,90.218-2.734,2.734-5.468-5.468h-10.936l-2.734-2.734,5.468-5.468H1210.1V781.4l-2.734,2.734-5.468-5.468,5.468-5.468-2.734-2.734h5.468l-2.734-8.2h10.936l2.734-8.2-8.2-2.734v5.468H1201.9v-5.468l-8.2-8.2,5.468-10.935h-10.936l2.734-2.734-8.2-8.2-24.6-13.669m24.6-155.831-5.468-5.468,8.2-8.2h-10.936l-10.936-10.935-5.468,5.468,2.734,2.734-16.4,8.2,5.468,5.468-10.936,10.935v5.468l8.2,8.2h10.935l5.468-5.468,5.468,2.734m19.137,27.339-8.2,2.734-13.669-8.2,5.468-10.935-2.734-10.935m2.734-2.734-2.734,2.734m2.734-2.734h5.468V557.218m0,0-8.2,2.734,2.734,8.2m5.468,418.283,2.734,2.734m2.734-437.419-5.468,5.468m2.734,434.686h2.734m0-440.153,8.2,8.2H1185.5v5.468l10.935,16.4m2.734,262.452,16.4-16.4-2.734-2.734,13.669-8.2-5.468-5.468,8.2-2.734,2.734-10.935m-32.806,46.476-2.734,8.2,8.2,8.2v10.935m43.742,27.339-2.734-8.2-10.935,5.468-5.468-10.935-8.2,8.2-8.2-2.734V871.613h-8.2m16.4-349.936,5.468-5.468V488.871l13.669,13.669v5.468l16.4-16.4,2.734,2.734,8.2-8.2h10.935l5.468-8.2h21.871l8.2-8.2h5.468V458.8m-84.75,101.153v-8.2l-8.2-8.2h-5.468v-5.468l-8.2-2.734,8.2-13.669m38.274,278.855-8.2,8.2L1231.976,797.8m21.871,103.887h2.734m0-297.992h5.468m19.137,183.169-13.669-8.2-2.734,16.4-5.468,5.468m8.2,10.935-8.2-10.935m10.935,10.935h2.734m41.008-464.758v5.468l-2.734-2.734-5.468,5.468-13.669-19.137,2.734-8.2,38.274-32.806,5.468,16.4,5.468-32.806L1355,272.9l-2.734-21.871,19.137-41.008L1355,188.145l-8.2,5.468v5.468l-41.008,2.734-8.2-24.6,2.734-8.2-10.935-10.936-8.2,8.2h-5.468v-5.468l-8.2-5.468,10.935-16.4L1272.984,128m0,683.468,2.734-2.734m2.734,0h2.734M1283.92,806h2.734m5.468,0h2.734m2.734-2.734h2.734m188.637-347.2h-13.67l-10.935-16.4-5.468,5.468v-5.468l-8.2,5.468-2.734-2.734-5.468,10.935h-5.468l-10.936-16.4-2.734-13.669-8.2,8.2,2.734,2.734-8.2,2.734-8.2-16.4-8.2,2.734,2.734-13.669-5.468-5.468H1368.67l-5.468-10.936-24.6,2.734-10.935-10.935v-16.4l-19.137,2.734m0,0-2.734-10.936,13.669-5.468v-5.468l-2.734,2.734-2.734-5.468m-5.468,24.6-8.2,5.468v10.935l-8.2-8.2-8.2,2.734-5.468-5.468-2.734,8.2,8.2,5.468,5.468,10.935-5.468,8.2,5.468,21.871,13.669-2.734,5.468-5.468,8.2,24.6v5.468h-5.468l8.2,5.468m-5.468-112.089h0m0,0h0m0,0h0M1319.46,458.8l2.734-2.734,13.669,13.669V475.2l8.2-8.2,2.734,2.734,5.468,21.871,5.468,5.468,2.734-2.734L1355,499.807v10.935h5.468l-2.734,2.734,8.2,8.2-5.468,10.935h5.468M928.516,685.71l2.734-2.734-2.734,2.734M1007.8,909.887l2.734-2.734-2.734,2.734m76.548-76.548h0" transform="translate(78.024 5.202)" fill="none" stroke="rgba(116,117,105,0.6)" stroke-linecap="round" stroke-linejoin="round" stroke-width="1"/>
      <path id="北京市" d="M672.008,287.669h5.468l-13.669-2.734L658.339,274l-13.669,13.669-8.2,2.734,5.468,5.468-2.734,5.468-8.2,2.734v8.2l8.2,8.2h10.935l5.468-5.468,2.734,2.734,5.468-5.468-2.734-8.2,13.669-2.734-5.468-5.468Z" transform="translate(586.049 258.347)" fill="rgba(238,238,238,0.5)" stroke="rgba(51,136,255,0)" stroke-linecap="round" stroke-linejoin="round" stroke-width="3" fill-rule="evenodd"/>
      <path id="天津市" d="M665.6,307.6l2.734-2.734-8.2-8.2V291.2H665.6l-8.2-8.2-5.468,5.468V299.4l-8.2,2.734,2.734,10.935L641,324.008l21.871,5.468,5.468-10.935-2.734-2.734,5.468-5.468-8.2-2.734Zm0,0Z" transform="translate(603.387 273.952)" fill="rgba(238,238,238,0.5)" stroke="rgba(51,136,255,0)" stroke-linecap="round" stroke-linejoin="round" stroke-width="3" fill-rule="evenodd"/>
      <path id="河北省" d="M702.484,317.145l-5.468,5.468,13.669,13.669h-5.468v5.468l19.137,24.6,19.137-16.4v-8.2l10.935-5.468-5.468-16.4h-5.468l-8.2-8.2V306.21l8.2-8.2-21.871-2.734V273.4l-2.734,2.734-5.468-5.468,2.734-2.734L710.686,257l-16.4,5.468-8.2,16.4h-16.4l-13.669,5.468v5.468l-8.2-2.734v-8.2l-5.468-5.468h-5.468l-5.468,16.4-8.2,2.734v10.935l10.935,21.871H639.6l-13.669,8.2,10.935,5.468v16.4l-10.935,5.468-8.2,13.669v10.935l8.2,5.468,2.734,8.2-8.2,16.4L623.2,418.3,615,429.234l8.2,8.2,24.6,8.2,5.468-5.468,2.734,2.734V431.968l10.936-10.936,2.734-10.935,8.2-5.468,2.734,2.734,8.2-10.936H699.75l13.669-13.669-8.2-8.2H694.282l-8.2-5.468,5.468-10.935-5.468-13.669-5.468,5.468h-16.4l-5.468-5.468v-8.2l10.936-10.936-5.468-5.468,8.2-2.734,13.669-13.669,5.468,10.935Zm-5.468,16.4-8.2,2.734,2.734,8.2h5.468Zm13.669,19.137h0Zm21.871,5.468v0Z" transform="translate(558.307 228.871)" fill="rgba(238,238,238,0.5)" stroke="rgba(51,136,255,0)" stroke-linecap="round" stroke-linejoin="round" stroke-width="3" fill-rule="evenodd"/>
      <path id="山西省" d="M591.734,447.5l27.339-5.468,8.2-8.2,2.734,2.734V431.1h16.4l16.4-10.935,2.734-19.137-5.468-10.936,8.2-5.468-2.734-2.734,8.2-13.669-2.734-13.669-8.2-8.2,5.468-10.935-2.734-8.2,13.669-2.734,5.468-10.935-2.734-8.2-10.935-8.2,13.669-8.2h-5.468L676.484,278l-13.669,10.935-8.2-2.734-8.2,2.734-2.734,5.468-5.468-5.468L624.54,310.806l-5.468-2.734-8.2,8.2-8.2,27.339-8.2,8.2v5.468l8.2,8.2-10.935,16.4,5.468,32.806L589,439.3Z" transform="translate(513.226 265.282)" fill="rgba(238,238,238,0.5)" stroke="rgba(51,136,255,0)" stroke-linecap="round" stroke-linejoin="round" stroke-width="3" fill-rule="evenodd"/>
      <path id="内蒙古自治区" d="M484,475.2l13.669,35.54L492.2,516.21l16.4,16.4v8.2H519.54l5.468-5.468,2.734,2.734v-5.468h19.137l5.468,8.2-2.734,10.935-13.669,10.935,27.339,13.669V587.29h8.2l8.2,8.2h5.468l5.468-5.468-5.468-5.468,13.669-5.468,10.936,5.468,10.935-8.2,13.669-2.734,5.468,10.935-8.2,13.669-10.936,5.468v16.4l21.871,10.935,24.6-8.2,8.2-8.2V592.758l5.468-10.935,2.734,2.734v-5.468l8.2-2.734,8.2,8.2v5.468l-10.936,16.4,8.2,5.468h10.935v5.468l13.669,2.734v5.468h13.669l2.734-8.2,8.2-2.734-2.734-8.2,21.871-24.6-2.734-2.734,2.734,2.734,5.468-5.468-2.734-2.734,5.468,5.468h5.468l8.2-8.2,5.468,5.468,8.2-8.2,2.734,2.734,16.4-21.871,5.468,5.468,10.936-8.2,8.2,2.734,10.936-5.468-5.468-27.339,8.2-2.734,5.468-16.4h5.468l5.468,5.468-2.734,8.2,8.2,2.734,13.669-10.935,5.468,5.468,8.2-8.2,2.734,2.734,8.2-5.468V486.137h10.935l8.2-5.468,5.468,10.936-2.734,2.734,5.468,5.468,2.734-2.734v21.871l19.137,2.734,5.468-5.468v-16.4l-5.468-5.468,5.468-5.468,13.669,13.669v5.468l16.4-16.4,2.734,2.734,8.2-8.2h10.935l16.4-10.935,8.2,2.734,16.4-10.935v-5.468l-8.2-8.2h5.468v-5.468l-8.2-24.6-19.137,10.935-5.468-19.137,5.468-10.935-13.669-19.137,2.734-8.2,5.468,5.468,8.2-2.734,8.2,8.2V376.782l8.2-5.468-2.734-10.936,13.669-5.468-2.734-8.2h-5.468l2.734,2.734-5.468,5.468-5.468-2.734V346.71l-10.936-10.935,2.734-8.2,21.871-13.669,16.4-19.137,5.468,16.4,5.468-32.806,10.935-5.468-2.734-21.871,19.137-41.008-16.4-21.871-8.2,5.468v5.468h-41.008l-8.2-19.137,2.734-13.669h-5.468l-8.2-8.2-8.2,8.2-10.935-10.935,10.935-16.4-2.734-8.2L1008.9,128l-21.871,21.871v5.468H1000.7l2.734,19.137L984.3,193.613l2.734,2.734-13.669,19.137,2.734,2.734-8.2,16.4h5.468l-2.734,8.2-35.54,19.137-21.871-10.935-19.137,43.742V305.7l-5.468,2.734v8.2l8.2,8.2,8.2-8.2,24.6,8.2,10.936-13.669,13.669,2.734,27.339,27.339,2.734,13.669-5.468,5.468-13.669-2.734-5.468-5.468-21.871,8.2-5.468-2.734-5.468,8.2H915.952l-13.669,16.4,2.734,2.734-13.669,10.935H869.476l-13.669,16.4-10.936,5.468-16.4-2.734-8.2-8.2H806.6l-8.2,21.871L809.331,450.6,787.46,461.532l-13.669,16.4-32.806,10.935-30.073-2.734-24.6,8.2-30.073,19.137-8.2-2.734-2.734-5.468-30.073-2.734-10.936-8.2-5.468,2.734L579.686,483.4H522.274l-35.54-5.468Z" transform="translate(331.169 5.202)" fill="rgba(238,238,238,0.5)" stroke="rgba(51,136,255,0)" stroke-linecap="round" stroke-linejoin="round" stroke-width="3" fill-rule="evenodd"/>
      <path id="辽宁省" d="M760.153,357.355h10.936l19.137-21.871,2.734,2.734,16.4-13.669V313.613l-8.2-8.2,2.734-2.734h-5.468V291.742l5.468-5.468-2.734,2.734-5.468-5.468V272.6l-8.2-13.669-8.2,8.2v-8.2L765.621,248l-5.468,13.669-8.2,2.734,2.734,2.734H735.548V272.6l-5.468-2.734-8.2,8.2H710.944L683.6,299.944v-5.468l-13.669-13.669-5.468,5.468,5.468,5.468v13.669L659,319.081v8.2l8.2,8.2h5.468l5.468,16.4,16.4-8.2v-5.468l13.669-13.669h13.669l10.936,10.935-8.2,8.2,2.734,2.734-13.669,10.935,2.734,2.734-8.2,5.468,10.935,5.468v5.468l-2.734-2.734v5.468l-2.734-2.734-5.468,10.935,13.669-8.2,2.734,2.734-2.734-2.734,16.4-13.669Zm-19.137,13.669Zm-8.2,2.734Zm8.2-2.734,2.734,2.734Zm2.734,8.2-2.734-2.734Zm5.468-16.4-2.734,2.734Zm-10.936,8.2v0Zm-38.274-35.54Zm49.21,30.073Zm2.734,13.669Zm10.935-21.871h0Z" transform="translate(634.597 213.266)" fill="rgba(238,238,238,0.5)" stroke="rgba(51,136,255,0)" stroke-linecap="round" stroke-linejoin="round" stroke-width="3" fill-rule="evenodd"/>
      <path id="吉林省" d="M855.968,336.29l5.468-19.137H866.9l10.935,16.4v-5.468l-5.468-2.734,10.935-2.734,8.2-8.2,2.734-8.2-21.871-8.2V287.081l-5.468,5.468-5.468-5.468L850.5,292.548l-2.734,8.2H842.3l-10.935-16.4-2.734-13.669-8.2,8.2,2.734,2.734-8.2,2.734-8.2-16.4-8.2,2.734,2.734-13.669-5.468-5.468H773.952L768.484,240.6l-10.935,5.468-5.468-5.468-8.2,2.734L732.944,232.4V221.468L727.476,216H716.54L705.6,224.2v10.935l-8.2-8.2-8.2,2.734-5.468-5.468L681,232.4l8.2,5.468,5.468,13.669-5.468,5.468,5.468,21.871,5.468,2.734,13.669-10.935,8.2,24.6v5.468H716.54l5.468,5.468,5.468-2.734,8.2,8.2,2.734-2.734v8.2l5.468,5.468,5.468-8.2,2.734,2.734,5.468,21.871,5.468,5.468,2.734-2.734-5.468,5.468v10.935h5.468l-2.734,2.734,8.2,8.2v10.935l8.2-2.734,16.4-24.6,10.936,10.935,19.137,2.734-5.468-19.137H842.3l8.2-13.669Z" transform="translate(672.742 157.782)" fill="rgba(238,238,238,0.5)" stroke="rgba(51,136,255,0)" stroke-linecap="round" stroke-linejoin="round" stroke-width="3" fill-rule="evenodd"/>
      <path id="黑龙江省" d="M728.944,376.516h10.936v10.935l10.935,13.669,8.2-2.734,5.468,5.468,10.935-5.468,5.468,10.935h21.871l5.468,5.468-2.734,13.669,8.2-2.734,10.935,16.4H830.1l-2.734-8.2,8.2-5.468,2.734,13.669,10.936,16.4H854.7v-5.468l13.669-8.2,5.468,5.468,5.468-5.468V455.8l16.4,8.2,2.734-19.137-5.468-24.6,19.137-13.669,24.6,8.2,2.734-2.734V401.121l19.137-30.073-2.734-2.734,8.2-21.871-2.734-2.734,13.669-13.669V308.169l8.2-5.468-43.742,10.936-8.2,8.2-2.734-2.734,2.734,2.734-5.468,5.468L895.71,330.04l-10.935-13.669,5.468-5.468-8.2-13.669,5.468-8.2H876.573L857.436,269.9l-8.2,2.734-8.2-8.2-16.4,2.734-5.468-5.468V242.556h-5.468l-2.734-19.137-8.2-8.2,2.734-8.2h-5.468l2.734-8.2-5.468-2.734,2.734-2.734-8.2-10.936,2.734-2.734-10.935-21.871,2.734-2.734L775.419,149.6l2.734-2.734-5.468-5.468h-16.4L728.944,125l-41.008,5.468L685.2,133.2l5.468,10.935L677,160.54l8.2,2.734,2.734,8.2H693.4l8.2-8.2L712.54,174.21l-2.734,8.2,8.2,24.6,41.008-2.734,5.468-10.935,19.137,19.137-5.468,21.871-13.669,19.137,2.734,21.871-10.936,5.468-5.468,35.54-5.468-16.4L715.274,330.04l-8.2,2.734-2.734,8.2,13.669,19.137,5.468-5.468,2.734,2.734v-5.468l2.734,5.468,2.734-2.734v5.468l-13.669,2.734,2.734,10.936Z" transform="translate(665.807 0)" fill="rgba(238,238,238,0.5)" stroke="rgba(51,136,255,0)" stroke-linecap="round" stroke-linejoin="round" stroke-width="3" fill-rule="evenodd"/>
      <path id="上海市" d="M675,387.871l10.935,10.935,13.669-8.2-13.669-13.669h-5.468ZM696.871,374.2,683.2,366l-2.734,2.734,8.2,8.2H699.6Zm-2.734,8.2-5.468-5.468Zm0-2.734,8.2,2.734Zm-2.734-2.734h0Zm5.468,8.2v0Zm0-2.734Z" transform="translate(662.339 417.863)" fill="rgba(238,238,238,0.5)" stroke="rgba(51,136,255,0)" stroke-linecap="round" stroke-linejoin="round" stroke-width="3" fill-rule="evenodd"/>
      <path id="江苏省" d="M659.871,351.4l-2.734,2.734-8.2-13.669L638,345.936l19.137,16.4h8.2l5.468,10.935h5.468l-2.734,13.669h5.468l5.468,10.935,10.936-5.468,5.468,5.468-2.734,8.2-10.936-5.468,2.734,8.2-8.2,10.935,5.468,5.468,2.734-2.734v5.468h5.468l-5.468,8.2h16.4l-2.734,2.734h10.935l16.4,10.935,19.137-21.871-5.468-2.734,2.734-5.468,13.669,8.2v-8.2l-21.871-21.871-10.936-35.54-21.871-16.4L700.879,335l-8.2,2.734-8.2,16.4h-5.468l-5.468-8.2-5.468,5.468Z" transform="translate(598.186 364.113)" fill="rgba(238,238,238,0.5)" stroke="rgba(51,136,255,0)" stroke-linecap="round" stroke-linejoin="round" stroke-width="3" fill-rule="evenodd"/>
      <path id="浙江省" d="M660.2,446.815l8.2,2.734v16.4l8.2,2.734,10.935-8.2,2.734,8.2,10.935-2.734,5.468,8.2,2.734-10.935,10.936-5.468-2.734-8.2,2.734,2.734,10.935-5.468V424.944l8.2-2.734-5.468-10.935,8.2-5.468-10.935-2.734L717.613,389.4l5.468-5.468-8.2-8.2-8.2,8.2L690.274,373l-5.468,10.936-8.2,2.734,5.468,5.468-8.2,2.734-5.468,5.468,2.734,2.734L652,422.21v5.468l8.2,8.2v10.935Zm82.016-43.742,2.734,2.734v-5.468l-5.468-2.734Zm0-5.468v0Zm2.734,13.669Zm2.734-27.339Zm-5.468,10.935,2.734,2.734Zm2.734,2.734v0Zm-5.468,27.339v0Zm8.2-19.137Zm0-13.669Zm-13.669,41.008h0Zm10.936-27.339v0Zm-10.936,19.137Zm-13.669,38.274Zm16.4-79.282,2.734,2.734Zm0,57.411Zm5.468-30.073-2.734-2.734Zm5.468-8.2v0Zm2.734-16.4ZM736.75,441.347Zm2.734-43.742Zm8.2,5.468Zm-13.669,0,2.734-2.734Zm-16.4,62.879ZM736.75,422.21l2.734,2.734Zm2.734-13.669v0Zm-2.734-8.2Zm0-5.468Zm5.468,8.2Zm2.734,8.2v0Zm-24.6,46.476Zm35.54-57.411Zm-10.935-5.468Zm0,10.935Zm10.935-21.871Zm-38.274,71.081,2.734-2.734Zm2.734,0,2.734-2.734Zm27.339-51.944Zm8.2-19.137Zm-13.669,19.137h0Zm-2.734,0Zm-21.871,51.944v0Zm30.073-49.21Zm-5.468-2.734Z" transform="translate(622.46 430)" fill="rgba(238,238,238,0.5)" stroke="rgba(51,136,255,0)" stroke-linecap="round" stroke-linejoin="round" stroke-width="3" fill-rule="evenodd"/>
      <path id="安徽省" d="M664.274,356.4l2.734,2.734L656.073,364.6l-10.936-10.935v13.669h-5.468l-2.734,8.2L626,381.008l8.2,8.2v5.468h16.4v19.137h-5.468l-8.2,8.2,10.936,10.935h5.468l-8.2,10.935,10.936,21.871,8.2-2.734v-5.468l8.2,5.468-5.468,5.468,2.734,2.734,8.2-8.2h5.468l2.734,8.2,19.137,2.734,10.936-13.669-2.734-2.734,13.669-8.2-5.468-5.468h5.468l5.468-10.935-8.2-2.734,2.734-2.734h-16.4l5.468-5.468-10.936-10.935,5.468-10.935-2.734-8.2,10.936,5.468,2.734-8.2-5.468-5.468-10.936,5.468-5.468-10.935h-5.468l5.468-13.669H688.879l2.734-5.468-5.468-5.468H675.21L661.54,340l-5.468,2.734,2.734,5.468h5.468Zm49.21,65.613h0Zm-46.476,46.476Zm-27.339-71.081Z" transform="translate(577.379 372.782)" fill="rgba(238,238,238,0.5)" stroke="rgba(51,136,255,0)" stroke-linecap="round" stroke-linejoin="round" stroke-width="3" fill-rule="evenodd"/>
      <path id="福建省" d="M705.081,483.75l-2.734-8.2,5.468,5.468-2.734-2.734,8.2-2.734h-5.468v-5.468h16.4l-10.935-5.468h5.468V453.678l5.468-5.468-5.468-5.468h5.468v-5.468l2.734,2.734-5.468,5.468,8.2-2.734-2.734-2.734,8.2-8.2v-5.468H721.484L716.016,415.4l-5.468,8.2-8.2-2.734L696.879,399l-8.2,2.734V407.2l-10.935,5.468-8.2-2.734-8.2,8.2,2.734,5.468L650.4,437.274l2.734,8.2-5.468,10.935-8.2,5.468L634,483.75h10.935l5.468,5.468-2.734,2.734,8.2-2.734,2.734,19.137,8.2,8.2,19.137-16.4-2.734-8.2,10.935,2.734,5.468-5.468-2.734-2.734Zm-13.67,10.936-2.734,2.734Zm21.871-16.4,2.734-2.734Zm2.734-10.936Zm8.2-13.669v0Zm-38.274,43.742v0Zm38.274-57.411Zm-38.274,54.677-2.734-2.734Zm38.274-41.008Zm-5.468,0h0Zm8.2-8.2Zm-8.2,21.871v0Zm2.734-24.6Zm8.2,0Zm2.734-8.2Zm-2.734,2.734Zm-10.936,5.468,2.734-2.734Z" transform="translate(591.25 475.081)" fill="rgba(238,238,238,0.5)" stroke="rgba(51,136,255,0)" stroke-linecap="round" stroke-linejoin="round" stroke-width="3" fill-rule="evenodd"/>
      <path id="江西省" d="M717.153,402.137l-2.734-5.468H703.484l-2.734-8.2h-5.468l-8.2,8.2-2.734-2.734,5.468-5.468L684.347,383l-16.4,10.935-10.936-5.468v5.468H651.54l-8.2,8.2H632.4l-8.2,8.2,5.468,5.468v13.669l-10.936,10.935L616,451.347h5.468l-2.734,8.2,8.2,13.669-2.734,5.468h5.468L624.2,500.557l16.4,2.734L629.669,516.96l5.468,5.468,19.137-8.2,8.2,5.468,2.734-2.734,5.468-24.6,13.669-19.137-2.734-8.2,13.669-10.936-2.734-8.2,8.2-8.2,8.2,2.734,13.669-8.2V421.274l-8.2-10.935Z" transform="translate(560.041 447.339)" fill="rgba(238,238,238,0.5)" stroke="rgba(51,136,255,0)" stroke-linecap="round" stroke-linejoin="round" stroke-width="3" fill-rule="evenodd"/>
      <path id="山东省" d="M658.806,405.887l2.734-8.2,8.2-2.734,8.2,13.669h10.935l5.468-5.468,8.2,8.2,5.468-8.2h5.468l-2.734-2.734,5.468-5.468,10.935-2.734V386.75l19.137-19.137v0l8.2-2.734,2.734-8.2,2.734,2.734-2.734-8.2,2.734,2.734,21.871-10.935,8.2,2.734,8.2-16.4H770.9v-5.468l-16.4-5.468-10.935,2.734,2.734,2.734-10.936,8.2v5.468H724.419l-8.2-10.935,8.2-2.734V318.4l-8.2-8.2-8.2,2.734-13.669-8.2L680.677,318.4H669.742l-8.2,8.2-2.734-2.734v5.468l-2.734-2.734,2.734,2.734-8.2,2.734v5.468L636.935,351.21v24.6l16.4-10.935v5.468h-5.468L626,392.218l19.137,16.4Zm95.686-90.218h0Zm0-2.734Zm8.2,43.742h0ZM757.226,310.2v0Zm2.734-5.468v0Zm-16.4,71.081v0Zm10.935-60.145-2.734-2.734Zm2.734-10.935Zm16.4,19.137Zm0,0Zm0,0Zm-133.96,46.476Z" transform="translate(577.379 306.895)" fill="rgba(238,238,238,0.5)" stroke="rgba(51,136,255,0)" stroke-linecap="round" stroke-linejoin="round" stroke-width="3" fill-rule="evenodd"/>
      <path id="河南省" d="M641.944,429.621l8.2-2.734,8.2,5.468,5.468-5.468,5.468,19.137h13.669l2.734,5.468,8.2-2.734,5.468,5.468,2.734-8.2,10.935-2.734v-16.4H702.089l-5.468-10.935-8.2-2.734,10.935-5.468,8.2-24.6,10.935,10.935,10.935-5.468-10.935-19.137h-16.4v-5.468h-5.468l-2.734-5.468-2.734,2.734-2.734-8.2L715.758,331.2l-13.669,2.734-2.734,5.468,2.734-8.2-5.468-5.468-5.468,5.468-24.6-8.2-5.468,19.137-13.669,10.935-19.137-2.734-2.734,8.2L590,372.21l19.137,43.742,19.137,13.669h13.669Zm21.871,0v0Z" transform="translate(514.96 343.306)" fill="rgba(238,238,238,0.5)" stroke="rgba(51,136,255,0)" stroke-linecap="round" stroke-linejoin="round" stroke-width="3" fill-rule="evenodd"/>
      <path id="湖北省" d="M634.145,354H598.6l8.2,8.2h5.468l-2.734,8.2-8.2-2.734L598.6,378.6l2.734,13.669,10.935,8.2,2.734,10.935-19.137,10.936H574l5.468,8.2L574,441.484h5.468l8.2,8.2-2.734,2.734,5.468-2.734,2.734,8.2,2.734-8.2,5.468-5.468,2.734,2.734v-5.468l19.137,2.734V433.282l27.339,5.468,8.2,8.2h10.935l5.468-5.468,2.734,8.2,10.935-10.935v16.4l5.468,5.468,8.2-8.2h16.4l-2.734-2.734,16.4-10.935,8.2,5.468,2.734-2.734V430.548l-5.468-5.468V414.145l5.468-5.468-10.936-2.734-10.935-10.935-8.2,2.734-2.734-8.2-13.669,2.734-5.468-16.4h-35.54l-8.2-8.2-2.734,2.734ZM590.4,422.347ZM634.145,354Zm35.54,21.871Zm2.734,65.613h0Z" transform="translate(487.218 397.057)" fill="rgba(238,238,238,0.5)" stroke="rgba(51,136,255,0)" stroke-linecap="round" stroke-linejoin="round" stroke-width="3" fill-rule="evenodd"/>
      <path id="湖南省" d="M648.081,516.96l5.468-10.935h10.935v5.468h5.468l-2.734-8.2,5.468-5.468,10.935,5.468,8.2-8.2V484.153l5.468-2.734h-5.468l2.734-8.2-5.468-5.468v-16.4h-5.468v-5.468l2.734-8.2,8.2-2.734-2.734-2.734,5.468-5.468V415.807l-8.2-8.2-2.734,2.734L683.621,391.2l-10.935,8.2-2.734-8.2-5.468,5.468H653.549l-8.2-8.2L615.274,383v10.935H593.4l-5.468,10.935v30.073l5.468,10.935-5.468,5.468-2.734-2.734v5.468l-8.2,5.468,13.669-2.734,5.468,5.468v5.468h-5.468l-2.734,8.2L601.6,489.621v-8.2l10.935,5.468,5.468-8.2h16.4l-2.734,8.2h5.468l-10.935,24.6,10.935-5.468V516.96l10.936-2.734ZM593.4,467.75Z" transform="translate(492.419 447.339)" fill="rgba(238,238,238,0.5)" stroke="rgba(51,136,255,0)" stroke-linecap="round" stroke-linejoin="round" stroke-width="3" fill-rule="evenodd"/>
      <path id="广东省" d="M671.484,504.282l2.734-10.935,16.4,5.468,2.734-8.2,5.468,5.468,8.2-8.2,5.468,5.468,5.468-5.468h16.4l8.2-8.2V474.21l8.2-2.734-8.2-27.339-8.2,2.734,2.734-2.734-5.468-5.468H720.694v8.2h-5.468l-2.734-5.468-21.871,8.2-5.468-5.468L696.089,433.2l-2.734-5.468-13.669,2.734V425h-16.4l-5.468,5.468-2.734-2.734,5.468,5.468-5.468,5.468-5.468-5.468-10.935,2.734,2.734,2.734-5.468,5.468v16.4L622.274,474.21l2.734,8.2-8.2,10.936-8.2,2.734-2.734,8.2H600.4l-2.734,8.2-2.734-2.734-5.468,8.2-2.734-2.734,2.734,8.2L584,534.355l5.468,16.4H600.4l5.468-5.468-8.2-8.2,5.468-10.936,32.807-8.2,5.468-5.468h21.871Zm76.548-30.073Zm-92.952,41.008-2.734,2.734Zm-8.2,2.734h0Zm38.274-10.936Zm-82.016,21.871,2.734,2.734v-5.468Zm43.742-10.935v0Zm-43.742,13.669h0Zm71.081-21.871Zm0,0Zm-13.669,2.734Zm16.4-13.669Zm8.2,10.936Zm0,0h0Zm57.411,27.339,2.734,2.734-5.468,2.734H745.3Zm-84.75-24.6ZM600.4,539.823Zm5.468-5.468Zm0,13.669Zm117.557-19.137,2.734,2.734Zm0,2.734Zm-2.734-41.008Zm0,0Z" transform="translate(504.557 520.161)" fill="rgba(238,238,238,0.5)" stroke="rgba(51,136,255,0)" stroke-linecap="round" stroke-linejoin="round" stroke-width="3" fill-rule="evenodd"/>
      <path id="广西壮族自治区" d="M652.355,423.468l-2.734,8.2-8.2-2.734-2.734,2.734h5.468l-5.468,5.468-2.734-2.734-2.734,8.2-2.734-5.468h-5.468l-2.734,8.2h-5.468l-16.4-10.935-5.468,10.935-19.137,10.935-19.137-8.2-8.2,10.935H543l19.137,13.669,13.669-2.734,5.468,5.468-2.734,8.2h-5.468l-8.2,8.2,8.2,8.2,13.669-2.734,5.468,5.468-5.468,10.935,5.468,2.734-2.734,5.468,30.073,10.935,13.669-5.468,8.2,2.734v5.468h5.468l8.2-5.468,2.734,2.734v-5.468l2.734,2.734,8.2-8.2,2.734,2.734v-5.468l8.2-2.734v-5.468l16.4-13.669v-16.4l10.936-5.468-2.734-5.468,5.468-5.468L704.3,453.54l-8.2,5.468-2.734-13.669-5.468,5.468-2.734-2.734L696.1,428.935h-5.468V418H676.96l-8.2,8.2-5.468-5.468-2.734,8.2Zm-95.685,27.339Zm87.484,92.952Z" transform="translate(433.468 508.024)" fill="rgba(238,238,238,0.5)" stroke="rgba(51,136,255,0)" stroke-linecap="round" stroke-linejoin="round" stroke-width="3" fill-rule="evenodd"/>
      <path id="海南省" d="M608.807,474.734l-19.137,2.734L576,491.137v16.4l5.468,5.468,16.4,5.468,21.871-16.4v-8.2l10.935-10.936L622.476,472H608.807Zm46.476,363.6Zm21.871-92.952,2.734-2.734Zm-27.339,92.952ZM638.879,543.081l2.734-2.734Zm136.694,43.742v0ZM655.282,835.605ZM644.347,562.218h0Zm-2.734,0h0Zm49.21,194.1h10.935l5.468-5.468-2.734-2.734-10.935,8.2Zm2.734-30.073,2.734,2.734Zm0,2.734Zm-43.742-169.5Zm-5.468-2.734,2.734-2.734Zm10.935,172.234Zm35.54,32.806Zm8.2-32.806Zm-43.742-185.9,2.734,2.734ZM709.96,693.444Zm24.6,16.4v0Zm-27.339-5.468,2.734-2.734Zm-19.137,51.944,2.734-2.734Zm-92.952,5.468,5.468-5.468,5.468,2.734H595.137ZM745.5,726.25ZM660.75,567.686l2.734-2.734Zm2.734,161.3Zm41.008-46.476h0ZM660.75,559.484Zm87.484,133.96h0ZM658.016,545.815ZM638.879,556.75h0Zm87.484,147.629h0Zm-16.4,38.274Zm-5.468,2.734,2.734-2.734Zm16.4-8.2,2.734,2.734Zm-30.073,10.935,2.734-2.734Zm35.54-32.806Zm21.871,5.468Zm-62.879,5.468,2.734-2.734Zm24.6-46.476,2.734-2.734Zm-2.734-8.2v0Zm8.2,10.935ZM641.613,556.75Zm51.944,169.5v0Zm-87.484,24.6v0ZM753.7,668.839l2.734,2.734ZM644.347,554.016Zm16.4,2.734,2.734-2.734Zm-16.4,8.2h0Zm46.476,136.694v0Zm21.871,41.008Zm38.274-35.54v0Zm-27.339-8.2Zm32.807-8.2ZM709.96,562.218ZM737.3,718.048Zm-49.21,2.734Zm21.871,35.54Zm-5.468-71.081h0Zm73.815,0Zm-79.282,10.936Zm10.935-27.339ZM753.7,690.71ZM617.008,745.387l2.734-2.734Zm21.871-10.936Zm82.016,0h0Zm-43.742,10.936Zm19.137-62.879Zm71.081,13.669v0ZM699.024,564.952ZM619.742,745.387Zm106.621-8.2,2.734-2.734Zm-84.75,19.137Zm0-24.6h0Zm-24.6,19.137Zm41.008-24.6Zm90.218-19.137Zm-98.419,38.274Zm54.677-169.5ZM715.427,677.04h0ZM696.29,567.686Zm43.742,133.96v0Zm27.339-13.669v0Zm-54.678,76.548ZM668.952,726.25Zm-24.6,27.339Zm10.935-24.6ZM660.75,794.6h0Zm46.476-65.613v0Zm5.468,19.137v0Zm-41.008-10.935Zm13.669,32.807ZM753.7,559.484Zm13.669,142.161v0ZM671.686,485.669Zm32.806,79.282Zm-13.669-71.081ZM663.484,811h0Zm-21.871-62.879Zm13.669-21.871h0Zm13.669,24.6h0Zm-5.468,49.21Zm-2.734,0v0Zm62.879-185.9Zm-38.274,82.016Zm5.468-117.557ZM671.686,813.734Zm-8.2-2.734Zm-5.468-10.935Zm-2.734-251.516Zm0,24.6Zm8.2,232.379Zm-2.734-8.2Zm16.4-13.669Zm65.613-71.081Zm-27.339,46.476v0Zm-73.815-8.2Zm51.944-180.436Zm21.871-5.468v0ZM753.7,723.516ZM663.484,556.75h0Zm-30.072-79.282Zm98.419,215.976h0Zm32.806-8.2v0ZM666.218,559.484ZM734.565,690.71ZM660.75,712.581h0Zm46.476-136.694ZM767.371,677.04v0Zm8.2,2.734Zm-76.548,35.54Zm10.935-8.2v0Zm-46.476,84.75Z" transform="translate(490.686 601.653)" fill="rgba(238,238,238,0.5)" stroke="rgba(51,136,255,0)" stroke-linecap="round" stroke-linejoin="round" stroke-width="3" fill-rule="evenodd"/>
      <path id="重庆市" d="M571.871,458.686l2.734-8.2,2.734,8.2,10.936-10.935,2.734,2.734,5.468-10.935h5.468l2.734,8.2,10.935-5.468v10.935h5.468v5.468l8.2,8.2,8.2-10.935V445.016l-5.468-10.935h-5.468v-5.468l-10.936-2.734,5.468-10.936-5.468-5.468h5.468l2.734-5.468,8.2,2.734,21.871-8.2,2.734-8.2-5.468-8.2-5.468-5.468H634.75l-5.468-8.2L618.347,363v5.468h-5.468l5.468,10.935-10.935,10.935,2.734-2.734-5.468,13.669H593.742l2.734,2.734-10.935,16.4h-5.468l-2.734-8.2-8.2,2.734L558.2,409.476v5.468h-5.468l5.468,5.468-8.2,16.4,8.2,2.734v5.468h5.468l8.2,10.935Zm60.145-54.677v0Zm-76.548,13.669Zm76.548-10.935ZM585.54,420.411Z" transform="translate(445.605 412.661)" fill="rgba(238,238,238,0.5)" stroke="rgba(51,136,255,0)" stroke-linecap="round" stroke-linejoin="round" stroke-width="3" fill-rule="evenodd"/>
      <path id="四川省" d="M569.75,526.169l13.669,27.339,24.6-8.2V523.435l13.669-13.669V498.831l2.734,2.734L629.9,496.1l-2.734-2.734L638.1,487.9v10.935h5.468L638.1,504.3l5.468,5.468,16.4-5.468,2.734,8.2h19.137V501.565L670.9,496.1l-2.734,2.734v-5.468l8.2-8.2,8.2,8.2-2.734-10.935H670.9V476.96l-10.936-10.936,10.936-8.2-2.734-8.2-2.734,2.734,8.2-8.2,8.2,5.468,8.2-2.734v5.468l8.2,2.734,10.935-19.137,10.936-2.734V422.282l10.935-8.2-5.468-10.935h5.468v-5.468H720.113l-8.2-5.468-2.734,2.734v-5.468l-8.2,2.734-2.734-8.2L679.1,386.742v-5.468h-5.468l-5.468,5.468-2.734-8.2-2.734,8.2H646.3l-8.2-8.2,2.734-8.2L635.363,359.4l-19.137-2.734L608.024,343l-13.669,8.2,5.468,10.935-13.669,13.669-2.734-13.669-2.734,13.669-10.935-5.468,2.734,13.669-16.4,5.468-5.468-5.468-2.734,2.734-5.468-10.935-2.734,8.2-19.137-8.2L509.6,348.468H493.2L487.734,359.4l8.2,8.2-8.2,5.468,2.734,2.734L485,381.274l21.871,16.4,10.935,21.871-5.468,5.468,8.2,10.935,5.468,57.411,5.468,8.2V490.629l5.468-5.468L547.879,496.1l-2.734,8.2,8.2,8.2,5.468-5.468Zm112.089-76.548Zm16.4,2.734Zm-32.807-2.734Z" transform="translate(332.903 377.984)" fill="rgba(238,238,238,0.5)" stroke="rgba(51,136,255,0)" stroke-linecap="round" stroke-linejoin="round" stroke-width="3" fill-rule="evenodd"/>
      <path id="贵州省" d="M659.024,410.137l-2.734,8.2h-5.468l-2.734-8.2-2.734,2.734V407.4l-5.468-2.734V393.734L628.952,399.2v-5.468L620.75,391l-2.734,8.2h-5.468l-10.936,10.935-2.734-8.2-2.734,8.2-8.2-8.2-8.2,8.2V415.6l2.734-2.734,10.935,5.468v8.2h-16.4l-8.2,10.935-8.2,2.734-8.2-5.468-5.468,5.468-5.468-5.468L536,445.677l2.734,13.669,19.137-2.734-8.2,24.6,8.2,8.2h5.468l-8.2,10.935,5.468,5.468,10.935-10.936,16.4,10.936,5.468-5.468-2.734-2.734,16.4-5.468,5.468-10.935,5.468,2.734v5.468l13.669,2.734,5.468-5.468-2.734-2.734,10.935,2.734v-5.468l5.468,2.734,5.468-5.468h-5.468l2.734-2.734,8.2,2.734,2.734-13.669h-5.468V453.879h5.468V442.944l-13.669,2.734,5.468-5.468-2.734-2.734,10.935-5.468Zm5.468,41.008Zm0,2.734h0Z" transform="translate(421.331 461.21)" fill="rgba(238,238,238,0.5)" stroke="rgba(51,136,255,0)" stroke-linecap="round" stroke-linejoin="round" stroke-width="3" fill-rule="evenodd"/>
      <path id="云南省" d="M656.5,429.274l-5.468-10.935-2.734,5.468-8.2,2.734-5.468-5.468L640.1,415.6h-5.468l2.734-8.2H626.427v5.468l-5.468,5.468-2.734-2.734-2.734,13.669L604.556,440.21l2.734,19.137-8.2,8.2v-5.468l-16.4,8.2-19.137-27.339-5.468-10.935,2.734-2.734-5.468-5.468-5.468,5.468-8.2-8.2,2.734-8.2-10.935-10.935-5.468,5.468v10.935l-5.468-5.468V391h-5.468v10.935l-5.468-5.468-2.734,8.2,5.468,8.2-5.468,5.468-5.468-5.468-2.734,2.734,2.734,19.137,8.2-2.734,2.734,8.2v27.339h-5.468l2.734,5.468-21.871,21.871,2.734,2.734L487,508.557l5.468,5.468L487,519.492l2.734,2.734,10.935-5.468h16.4l-5.468,5.468,5.468,8.2-2.734,2.734,5.468,8.2h10.935l-8.2,21.871,13.669,2.734,10.935,13.669h10.936l5.468-5.468,5.468,5.468-2.734,2.734,10.935,5.468,2.734-13.669L574.484,560.5l5.468-5.468,8.2,2.734,8.2-8.2,10.936,8.2,8.2-8.2,10.936,5.468,8.2-8.2,2.734,5.468,10.936-5.468-2.734-2.734,8.2-8.2,8.2,2.734,8.2-8.2h5.468l2.734-8.2-5.468-5.468-13.669,2.734-8.2-10.935H640.1l5.468-13.669v-5.468l-8.2-8.2,5.468-24.6-5.468-2.734-10.935,5.468-5.468-8.2,5.468-16.4,5.468,5.468,5.468-5.468L648.3,440.21l8.2-8.2Z" transform="translate(336.371 461.21)" fill="rgba(238,238,238,0.5)" stroke="rgba(51,136,255,0)" stroke-linecap="round" stroke-linejoin="round" stroke-width="3" fill-rule="evenodd"/>
      <path id="西藏自治区" d="M581.782,330.2l-24.6-8.2H529.839l-21.871,5.468-8.2,13.669-2.734-2.734-5.468,5.468-8.2-5.468-24.6,13.669-24.6-2.734-2.734-8.2H420.484V346.6h-5.468l-5.468,8.2-32.806-5.468v5.468l-5.468,5.468-2.734-2.734-2.734,13.669-5.468,5.468H349.4l-10.935,10.935v10.935l13.669,19.137L349.4,431.355h-5.468l-2.734-8.2-8.2,2.734v10.936l8.2,5.468v16.4l8.2,8.2,8.2-2.734,13.669,13.669,2.734-2.734,10.935,5.468L395.879,491.5l5.468-10.936,13.669,2.734,32.806,30.073,5.468-5.468,8.2,2.734-2.734,2.734,13.669,13.669,8.2-2.734,5.468,10.935,8.2-2.734,5.468,10.935,5.468-5.468v5.468l10.935-5.468,8.2,8.2h21.871l5.468-5.468h10.936l-2.734,13.669,5.468,5.468,19.137-24.6,21.871,5.468,5.468,5.468,5.468-5.468,5.468,10.935,10.935,5.468,2.734,13.669,30.073-2.734,16.4-16.4,13.669-2.734,8.2-5.468v-5.468l8.2-2.734h10.935l19.137,10.935,8.2-5.468-2.734-2.734,5.468-10.935,13.669,10.935v-5.468l10.936,5.468V516.1l5.468,5.468V510.637h5.468l-5.468-24.6,2.734-2.734-5.468-19.137-5.468-5.468,8.2-2.734-10.936-10.935-5.468-16.4-19.137-2.734,2.734,8.2-2.734-2.734-2.734,8.2H734.879l2.734,8.2-10.936-5.468-2.734,8.2-5.468-5.468-8.2,2.734-5.468-5.468,2.734-8.2h-8.2l2.734-2.734-13.669-8.2-21.871,5.468-13.669-8.2h-16.4l-13.669-8.2h-16.4l-10.936-5.468-16.4-19.137,5.468-5.468V363.008h-5.468l-2.734-8.2,8.2-16.4-10.936-5.468Z" transform="translate(69.355 341.573)" fill="rgba(238,238,238,0.5)" stroke="rgba(51,136,255,0)" stroke-linecap="round" stroke-linejoin="round" stroke-width="3" fill-rule="evenodd"/>
      <path id="陕西省" d="M657.621,426.694l-2.734-8.2,8.2-19.137-5.468-38.274,10.936-16.4-8.2-16.4,10.936-10.935V306.4l5.468-8.2-2.734-8.2-10.936,8.2-10.935-5.468,2.734,2.734-5.468,5.468-2.734-2.734,2.734,2.734-19.137,19.137v13.669h-5.468l-5.468,10.935H608.411l-8.2-8.2-10.936,10.935v16.4l19.137,10.935,2.734-2.734,8.2,8.2v27.339H600.21v10.935l-27.339-5.468,2.734,8.2-5.468,5.468,8.2,8.2h-5.468l2.734,5.468-5.468,5.468,5.468,8.2H559.2l-2.734,8.2,5.468,2.734-5.468,8.2h5.468l5.468,5.468,16.4-2.734,2.734,8.2,8.2-2.734v5.468l2.734-2.734,8.2,8.2,8.2-2.734,27.339,13.669L638.484,484.1l5.468-5.468h10.936l-8.2-8.2-2.734,2.734V467.7l-5.468-2.734,24.6-2.734,2.734,5.468,5.468-5.468Zm13.669,30.073ZM564.669,475.9Z" transform="translate(447.339 286.089)" fill="rgba(238,238,238,0.5)" stroke="rgba(51,136,255,0)" stroke-linecap="round" stroke-linejoin="round" stroke-width="3" fill-rule="evenodd"/>
      <path id="甘肃省" d="M756.661,457.306l-2.734,13.669-10.935-5.468,2.734-2.734h-5.468l-8.2-8.2V427.234l-19.137-16.4L699.25,408.1l-5.468-8.2h-5.468v-16.4l10.936-5.468,8.2-13.669-5.468-10.935-13.669,2.734-8.2,8.2-13.669-5.468-8.2,2.734v8.2l-5.468,5.468-19.137-8.2L630.9,356.153h-5.468l-16.4-13.669h-8.2L614.5,331.548l5.468-10.935-2.734-8.2H595.363v5.468l-2.734-2.734-8.2,5.468v-5.468l-8.2,5.468v-8.2l-8.2-5.468-5.468-10.935V279.6L551.621,255l-21.871,5.468-5.468,5.468,5.468,8.2-2.734,8.2-16.4,8.2-8.2-2.734L480.54,306.944l-5.468,10.935-16.4,2.734L453.2,347.952,445,358.887l2.734,8.2,5.468-5.468h10.935v8.2h10.936l5.468,5.468,8.2-2.734,5.468,10.936h24.6l10.935,8.2,5.468-5.468,5.468,2.734v-5.468l8.2-8.2V361.621l24.6,10.935,2.734-8.2,5.468,5.468,5.468-5.468,8.2,2.734-2.734,2.734,19.137,16.4,5.468,2.734v-8.2l8.2,8.2,2.734-2.734L639.1,399.9l21.871,5.468L680.113,449.1l-24.6,32.806v5.468l8.2,8.2-10.935,5.468-19.137-8.2-2.734,2.734,8.2,16.4,13.669,5.468,2.734-2.734v10.935l8.2-2.734-2.734-2.734h5.468l2.734-5.468-8.2-10.936h5.468l8.2-8.2,8.2,5.468,2.734,8.2,19.137,2.734,5.468,10.935-2.734,8.2,8.2,8.2h16.4l2.734-8.2h8.2v-16.4h16.4l-2.734-19.137h5.468l-8.2-8.2,5.468-5.468-2.734-8.2,24.6,5.468,5.468-2.734-5.468-5.468L784,468.242l16.4,2.734v-16.4l5.468-5.468-2.734-10.936-24.6-10.935-8.2-8.2H759.4v10.935l-5.468,5.468,2.734,8.2L767.6,449.1l-2.734,8.2h-8.2Zm-10.935,5.468h0ZM674.645,440.9h0Zm73.815,24.6Zm8.2-8.2Z" transform="translate(263.548 225.403)" fill="rgba(238,238,238,0.5)" stroke="rgba(51,136,255,0)" stroke-linecap="round" stroke-linejoin="round" stroke-width="3" fill-rule="evenodd"/>
      <path id="青海省" d="M716.258,373.282V362.347l-16.4-27.339-2.734,2.734-5.468-5.468H680.718l-5.468-10.936-2.734,2.734-13.669-10.935V318.6h-5.468l-21.871-21.871H626.04l-2.734,5.468-5.468-5.468-5.468,8.2L598.7,294H587.766l2.734,13.669-8.2,8.2v5.468l-5.468-2.734-5.468,5.468-10.935-8.2-24.6,2.734-5.468-13.669-8.2,2.734-5.468-5.468H505.75v-5.468l-8.2-2.734-32.807,13.669H451.073l-13.669,8.2,2.734,5.468,8.2-2.734-2.734,16.4,19.137,16.4-13.669,8.2v5.468l8.2,2.734v8.2l-5.468,5.468-16.4-5.468-5.468,5.468H421l10.935,5.468-8.2,13.669v5.468l8.2,8.2v16.4l-5.468,5.468,16.4,19.137,10.935,5.468,8.2-2.734,21.871,10.936,24.6,2.734,5.468,5.468,21.871-5.468,19.137,13.669-2.734,5.468,5.468,5.468,8.2-2.734,5.468,5.468,2.734-8.2,10.936,5.468-2.734-8.2,2.734,2.734,8.2-2.734,2.734-8.2,2.734,2.734-2.734-8.2h5.468L598.7,460.766l5.468-8.2L598.7,441.629l8.2-10.936,13.669,5.468,8.2,19.137,10.935,10.935,8.2,2.734,5.468-5.468,5.468,5.468-2.734,2.734,8.2-2.734,5.468,5.468,13.669-5.468L680.718,455.3h8.2l2.734,5.468,2.734-10.935-10.936-5.468-10.935-13.669,5.468-5.468,13.669,8.2,13.669-5.468-8.2-8.2V414.29l10.935-10.935-2.734-2.734,10.936-5.468-2.734-5.468,8.2-8.2-2.734-8.2Z" transform="translate(221.936 293.024)" fill="rgba(238,238,238,0.5)" stroke="rgba(51,136,255,0)" stroke-linecap="round" stroke-linejoin="round" stroke-width="3" fill-rule="evenodd"/>
      <path id="宁夏回族自治区" d="M606.613,354.879V343.944l8.2-8.2-8.2-8.2-16.4-5.468,10.936-19.137L595.677,292l-10.936,2.734V300.2l-2.734-2.734L576.54,308.4v21.871l-5.468,8.2L541,346.677h5.468L565.6,365.815l-2.734,2.734,5.468,10.935v13.669h5.468v5.468h5.468l8.2,8.2V393.153h10.936l2.734-8.2-10.936-8.2v-16.4l5.468-5.468Zm-27.339,43.742v0Zm2.734,2.734Z" transform="translate(430 289.557)" fill="rgba(238,238,238,0.5)" stroke="rgba(51,136,255,0)" stroke-linecap="round" stroke-linejoin="round" stroke-width="3" fill-rule="evenodd"/>
      <path id="新疆维吾尔自治区" d="M797.032,386.04,786.1,372.371l-8.2-24.6h-5.468l2.734-8.2H764.226l-32.807-21.871H704.081l-16.4-5.468-2.734,2.734-5.468-5.468-2.734,2.734-5.468-13.669,8.2-13.669-5.468-8.2,5.468-10.936-2.734-10.935h-5.468l-10.935-24.6-16.4-10.935-8.2,2.734L624.8,216.54v-5.468l-13.669-10.936,2.734-2.734-8.2-2.734V181l-5.468,5.468-13.669-2.734v10.935l-13.669,13.669-5.468-2.734L556.452,216.54l5.468,24.6-5.468,10.935-10.935,5.468-24.6-2.734-19.137-8.2-16.4,49.21v5.468l8.2,5.468-2.734,5.468-13.669-2.734-2.734-5.468-5.468,5.468-19.137,5.468-2.734-2.734-13.669,8.2,10.936,8.2v16.4l8.2,19.137v8.2l-8.2,5.468,2.734,2.734-8.2,8.2,2.734,13.669L427.96,413.379l-32.806,13.669-2.734,5.468h-5.468v5.468H367.815l-13.669,19.137-8.2-2.734-5.468,5.468V448.919l-10.935,5.468-8.2-2.734,2.734,5.468H318.6l-8.2,8.2-2.734-2.734-8.2,8.2,2.734,8.2-8.2,2.734,2.734,13.669,2.734-2.734-2.734,8.2,8.2,8.2,2.734-5.468,13.669,5.468,5.468,21.871-2.734,2.734,5.468,5.468-5.468,5.468H313.137l30.073,13.669,5.468,5.468-2.734,13.669,8.2,5.468,2.734-2.734,21.871,13.669,13.669-2.734v10.935l5.468,5.468-2.734,5.468,16.4,10.935,21.871-5.468,2.734-13.669,8.2-5.468v-5.468l32.806,5.468,13.669-13.669h5.468l8.2,8.2,13.669,2.734,32.807-13.669,5.468,5.468,8.2-2.734,13.669-13.669h10.936l8.2-5.468H624.8l27.339,10.935,5.468-5.468,16.4,5.468,5.468-10.935-8.2-8.2,13.669-10.935-16.4-16.4v-16.4l-8.2,2.734-2.734-8.2,49.21-13.669,13.669-46.476,16.4-2.734,10.935-16.4,16.4-13.669h5.468l2.734,5.468,5.468-8.2h5.468l8.2-10.935-5.468-8.2,5.468-5.468Z" transform="translate(1.734 97.097)" fill="rgba(238,238,238,0.5)" stroke="rgba(51,136,255,0)" stroke-linecap="round" stroke-linejoin="round" stroke-width="3" fill-rule="evenodd"/>
      <path id="台湾省" d="M684.871,505.75l8.2,13.669,2.734-16.4,10.935-13.669,10.936-32.806v-16.4h-16.4L687.6,456.54l-5.468,16.4-5.468,2.734,5.468,27.339ZM775.089,421Zm-24.6,5.468,2.734-2.734Zm-82.016,51.944-2.734,2.734ZM755.952,421Zm-90.218,54.677L663,478.411Zm0,8.2Zm0-8.2ZM720.411,429.2Zm-13.669,71.081h0Zm2.734,13.669Zm10.936-82.016h0ZM663,486.613Zm19.137,21.871h0Z" transform="translate(641.532 513.226)" fill="rgba(238,238,238,0.5)" stroke="rgba(51,136,255,0)" stroke-linecap="round" stroke-linejoin="round" stroke-width="3" fill-rule="evenodd"/>
      <path id="香港特别行政区" d="M623.468,451v5.468H618l2.734,2.734,10.935-5.468Zm0,8.2h0Zm5.468-5.468Zm0,0Zm0,0Zm0,2.734Zm0-2.734Zm0,2.734Zm0,0Z" transform="translate(563.508 565.242)" fill="rgba(238,238,238,0.5)" stroke="rgba(51,136,255,0)" stroke-linecap="round" stroke-linejoin="round" stroke-width="3" fill-rule="evenodd"/>
      <path id="澳门特别行政区" d="M616,456.734v0ZM616,454Z" transform="translate(560.041 570.444)" fill="rgba(238,238,238,0.5)" stroke="rgba(51,136,255,0)" stroke-linecap="round" stroke-linejoin="round" stroke-width="3" fill-rule="evenodd"/>
      <path id="_100000_JD" data-name="100000_JD" d="M887.4,460.339,892.863,433Zm-30.072,62.879,16.4-21.871Zm-38.274,65.613,13.669-24.6Zm-8.2,68.347v0Zm-8.2,87.484-2.734,5.468,8.2-24.6-2.734,8.2ZM734.3,834.879l13.669-19.137Zm-71.081,79.282L652.282,916.9l21.871-8.2-8.2,2.734ZM573,856.75l2.734,2.734L573,837.613Zm41.008-117.557,5.468-8.2V720.057l-2.734,16.4ZM608.54,651.71,597.6,629.839l8.2,16.4Z" transform="translate(485.484 534.032)" fill="rgba(238,238,238,0.5)" stroke="rgba(51,136,255,0)" stroke-linecap="round" stroke-linejoin="round" stroke-width="3" fill-rule="evenodd"/>
    </g>
    <g id="组_312" data-name="组 312" transform="translate(-14.443 348)">
      <circle id="椭圆_201" data-name="椭圆 201" cx="49" cy="49" r="49" transform="translate(976 10236)" fill="#f9be7d" opacity="0.46"/>
      <circle id="椭圆_202" data-name="椭圆 202" cx="46" cy="46" r="46" transform="translate(1110 9953)" fill="#f9be7d" opacity="0.57"/>
      <circle id="椭圆_311" data-name="椭圆 311" cx="32" cy="32" r="32" transform="translate(812 10166)" fill="#f9be7d" opacity="0.57"/>
      <circle id="椭圆_207" data-name="椭圆 207" cx="6" cy="6" r="6" transform="translate(1390 9704)" fill="#f9be7d"/>
      <circle id="椭圆_208" data-name="椭圆 208" cx="6" cy="6" r="6" transform="translate(827 10109)" fill="#f9be7d"/>
      <circle id="椭圆_208-2" data-name="椭圆 208" cx="6" cy="6" r="6" transform="translate(831 10045)" fill="#f9be7d"/>
      <circle id="椭圆_208-3" data-name="椭圆 208" cx="6" cy="6" r="6" transform="translate(1004 10239)" fill="#f9be7d"/>
      <circle id="椭圆_208-4" data-name="椭圆 208" cx="6" cy="6" r="6" transform="matrix(-0.921, -0.391, 0.391, -0.921, 965.128, 10103.674)" fill="#f9be7d"/>
      <circle id="椭圆_208-5" data-name="椭圆 208" cx="6" cy="6" r="6" transform="translate(854 10199)" fill="#f9be7d"/>
      <circle id="椭圆_260" data-name="椭圆 260" cx="6" cy="6" r="6" transform="translate(1071.816 10159.867)" fill="#f9be7d"/>
      <circle id="椭圆_267" data-name="椭圆 267" cx="6" cy="6" r="6" transform="translate(1165.636 10171.061)" fill="#f9be7d"/>
      <circle id="椭圆_208-6" data-name="椭圆 208" cx="6" cy="6" r="6" transform="matrix(-0.921, 0.391, -0.391, -0.921, 917.888, 10133.022)" fill="#f9be7d"/>
      <circle id="椭圆_208-7" data-name="椭圆 208" cx="6" cy="6" r="6" transform="matrix(-0.921, 0.391, -0.391, -0.921, 900.398, 10140.447)" fill="#f9be7d"/>
      <circle id="椭圆_212" data-name="椭圆 212" cx="6" cy="6" r="6" transform="matrix(-0.921, 0.391, -0.391, -0.921, 1186, 10217.179)" fill="#f9be7d"/>
      <circle id="椭圆_213" data-name="椭圆 213" cx="6" cy="6" r="6" transform="matrix(-0.921, 0.391, -0.391, -0.921, 1230.734, 10219.046)" fill="#f9be7d"/>
      <circle id="椭圆_208-8" data-name="椭圆 208" cx="6" cy="6" r="6" transform="matrix(0.695, 0.719, -0.719, 0.695, 511.664, 9965)" fill="#f9be7d"/>
      <circle id="椭圆_226" data-name="椭圆 226" cx="6" cy="6" r="6" transform="matrix(0.695, 0.719, -0.719, 0.695, 536.664, 9902)" fill="#f9be7d"/>
      <circle id="椭圆_208-9" data-name="椭圆 208" cx="6" cy="6" r="6" transform="translate(978.816 10031.852)" fill="#f9be7d"/>
      <circle id="椭圆_208-10" data-name="椭圆 208" cx="6" cy="6" r="6" transform="matrix(0.695, 0.719, -0.719, 0.695, 993.57, 10107.083)" fill="#f9be7d"/>
      <circle id="椭圆_208-11" data-name="椭圆 208" cx="6" cy="6" r="6" transform="translate(1093.816 10082.852)" fill="#f9be7d"/>
      <circle id="椭圆_210" data-name="椭圆 210" cx="6" cy="6" r="6" transform="translate(1114.816 10191)" fill="#f9be7d"/>
      <circle id="椭圆_215" data-name="椭圆 215" cx="6" cy="6" r="6" transform="translate(1207 10167.148)" fill="#f9be7d"/>
      <circle id="椭圆_208-12" data-name="椭圆 208" cx="6" cy="6" r="6" transform="translate(629.816 10169)" fill="#f9be7d"/>
      <circle id="椭圆_225" data-name="椭圆 225" cx="6" cy="6" r="6" transform="translate(429.816 9884)" fill="#f9be7d"/>
      <circle id="椭圆_208-13" data-name="椭圆 208" cx="6" cy="6" r="6" transform="translate(1038.816 10089.852)" fill="#f9be7d"/>
      <circle id="椭圆_209" data-name="椭圆 209" cx="6" cy="6" r="6" transform="translate(1114.816 10143.852)" fill="#f9be7d"/>
      <circle id="椭圆_208-14" data-name="椭圆 208" cx="6" cy="6" r="6" transform="translate(947 10175)" fill="#f9be7d"/>
      <circle id="椭圆_208-15" data-name="椭圆 208" cx="6" cy="6" r="6" transform="translate(774 10167.148)" fill="#f9be7d"/>
      <circle id="椭圆_227" data-name="椭圆 227" cx="6" cy="6" r="6" transform="translate(660 10188.223)" fill="#f9be7d"/>
      <circle id="椭圆_232" data-name="椭圆 232" cx="6" cy="6" r="6" transform="matrix(0.309, 0.951, -0.951, 0.309, 871.618, 10122.052)" fill="#f9be7d"/>
      <circle id="椭圆_237" data-name="椭圆 237" cx="6" cy="6" r="6" transform="matrix(0.309, 0.951, -0.951, 0.309, 846.438, 10184.988)" fill="#f9be7d"/>
      <circle id="椭圆_258" data-name="椭圆 258" cx="6" cy="6" r="6" transform="matrix(0.309, 0.951, -0.951, 0.309, 1064.254, 10145.855)" fill="#f9be7d"/>
      <circle id="椭圆_265" data-name="椭圆 265" cx="6" cy="6" r="6" transform="matrix(0.309, 0.951, -0.951, 0.309, 1158.073, 10157.049)" fill="#f9be7d"/>
      <circle id="椭圆_242" data-name="椭圆 242" cx="6" cy="6" r="6" transform="matrix(0.309, 0.951, -0.951, 0.309, 985.422, 10310.305)" fill="#f9be7d"/>
      <circle id="椭圆_247" data-name="椭圆 247" cx="6" cy="6" r="6" transform="matrix(0.309, 0.951, -0.951, 0.309, 1139.548, 10302.677)" fill="#f9be7d"/>
      <circle id="椭圆_252" data-name="椭圆 252" cx="6" cy="6" r="6" transform="matrix(0.309, 0.951, -0.951, 0.309, 1132.237, 10222.044)" fill="#f9be7d"/>
      <circle id="椭圆_208-16" data-name="椭圆 208" cx="6" cy="6" r="6" transform="translate(1056.816 10175)" fill="#f9be7d"/>
      <circle id="椭圆_208-17" data-name="椭圆 208" cx="6" cy="6" r="6" transform="translate(797 10167.148)" fill="#f9be7d"/>
      <circle id="椭圆_228" data-name="椭圆 228" cx="6" cy="6" r="6" transform="translate(683 10188.223)" fill="#f9be7d"/>
      <circle id="椭圆_233" data-name="椭圆 233" cx="6" cy="6" r="6" transform="matrix(0.309, 0.951, -0.951, 0.309, 878.726, 10143.927)" fill="#f9be7d"/>
      <circle id="椭圆_261" data-name="椭圆 261" cx="6" cy="6" r="6" transform="matrix(0.309, 0.951, -0.951, 0.309, 1096.542, 10104.794)" fill="#f9be7d"/>
      <circle id="椭圆_268" data-name="椭圆 268" cx="6" cy="6" r="6" transform="matrix(0.309, 0.951, -0.951, 0.309, 1190.361, 10115.986)" fill="#f9be7d"/>
      <circle id="椭圆_238" data-name="椭圆 238" cx="6" cy="6" r="6" transform="matrix(0.309, 0.951, -0.951, 0.309, 853.545, 10206.863)" fill="#f9be7d"/>
      <circle id="椭圆_263" data-name="椭圆 263" cx="6" cy="6" r="6" transform="matrix(0.309, 0.951, -0.951, 0.309, 1071.361, 10167.73)" fill="#f9be7d"/>
      <circle id="椭圆_270" data-name="椭圆 270" cx="6" cy="6" r="6" transform="matrix(0.309, 0.951, -0.951, 0.309, 1165.181, 10178.924)" fill="#f9be7d"/>
      <circle id="椭圆_243" data-name="椭圆 243" cx="6" cy="6" r="6" transform="matrix(0.309, 0.951, -0.951, 0.309, 992.529, 10332.18)" fill="#f9be7d"/>
      <circle id="椭圆_273" data-name="椭圆 273" cx="6" cy="6" r="6" transform="matrix(0.309, 0.951, -0.951, 0.309, 970.921, 10374)" fill="#f9be7d"/>
      <circle id="椭圆_248" data-name="椭圆 248" cx="6" cy="6" r="6" transform="matrix(0.309, 0.951, -0.951, 0.309, 1146.655, 10324.552)" fill="#f9be7d"/>
      <circle id="椭圆_253" data-name="椭圆 253" cx="6" cy="6" r="6" transform="matrix(0.309, 0.951, -0.951, 0.309, 1139.345, 10243.919)" fill="#f9be7d"/>
      <circle id="椭圆_208-18" data-name="椭圆 208" cx="6" cy="6" r="6" transform="translate(800 10140)" fill="#f9be7d"/>
      <circle id="椭圆_229" data-name="椭圆 229" cx="6" cy="6" r="6" transform="translate(686 10161.074)" fill="#f9be7d"/>
      <circle id="椭圆_234" data-name="椭圆 234" cx="6" cy="6" r="6" transform="matrix(0.309, 0.951, -0.951, 0.309, 905.473, 10138.391)" fill="#f9be7d"/>
      <circle id="椭圆_239" data-name="椭圆 239" cx="6" cy="6" r="6" transform="matrix(0.309, 0.951, -0.951, 0.309, 880.292, 10201.327)" fill="#f9be7d"/>
      <circle id="椭圆_262" data-name="椭圆 262" cx="6" cy="6" r="6" transform="matrix(0.309, 0.951, -0.951, 0.309, 1098.108, 10162.194)" fill="#f9be7d"/>
      <circle id="椭圆_269" data-name="椭圆 269" cx="6" cy="6" r="6" transform="matrix(0.309, 0.951, -0.951, 0.309, 1191.928, 10173.387)" fill="#f9be7d"/>
      <circle id="椭圆_244" data-name="椭圆 244" cx="6" cy="6" r="6" transform="matrix(0.309, 0.951, -0.951, 0.309, 1019.276, 10326.644)" fill="#f9be7d"/>
      <circle id="椭圆_249" data-name="椭圆 249" cx="6" cy="6" r="6" transform="matrix(0.309, 0.951, -0.951, 0.309, 1173.402, 10319.016)" fill="#f9be7d"/>
      <circle id="椭圆_254" data-name="椭圆 254" cx="6" cy="6" r="6" transform="matrix(0.309, 0.951, -0.951, 0.309, 1166.092, 10238.383)" fill="#f9be7d"/>
      <circle id="椭圆_208-19" data-name="椭圆 208" cx="6" cy="6" r="6" transform="translate(852 10167.148)" fill="#f9be7d"/>
      <circle id="椭圆_259" data-name="椭圆 259" cx="6" cy="6" r="6" transform="translate(1069.816 10128.016)" fill="#f9be7d"/>
      <circle id="椭圆_266" data-name="椭圆 266" cx="6" cy="6" r="6" transform="translate(1163.636 10139.209)" fill="#f9be7d"/>
      <circle id="椭圆_208-20" data-name="椭圆 208" cx="6" cy="6" r="6" transform="translate(1134 10245.69)" fill="#f9be7d"/>
      <circle id="椭圆_257" data-name="椭圆 257" cx="6" cy="6" r="6" transform="translate(1095.816 10171.69)" fill="#f9be7d"/>
      <circle id="椭圆_208-21" data-name="椭圆 208" cx="6" cy="6" r="6" transform="translate(902 10167.148)" fill="#f9be7d"/>
      <circle id="椭圆_208-22" data-name="椭圆 208" cx="6" cy="6" r="6" transform="matrix(-0.921, -0.391, 0.391, -0.921, 991.293, 10143.852)" fill="#f9be7d"/>
      <circle id="椭圆_211" data-name="椭圆 211" cx="6" cy="6" r="6" transform="matrix(-0.921, -0.391, 0.391, -0.921, 1125.862, 10192.586)" fill="#f9be7d"/>
      <circle id="椭圆_214" data-name="椭圆 214" cx="6" cy="6" r="6" transform="matrix(-0.921, -0.391, 0.391, -0.921, 1230.862, 10155.852)" fill="#f9be7d"/>
      <circle id="椭圆_208-23" data-name="椭圆 208" cx="6" cy="6" r="6" transform="translate(1086 10283)" fill="#f9be7d"/>
      <circle id="椭圆_208-24" data-name="椭圆 208" cx="6" cy="6" r="6" transform="translate(1073 10215)" fill="#f9be7d"/>
      <circle id="椭圆_208-25" data-name="椭圆 208" cx="6" cy="6" r="6" transform="translate(1025 10209)" fill="#f9be7d"/>
      <circle id="椭圆_208-26" data-name="椭圆 208" cx="6" cy="6" r="6" transform="translate(1035.816 10155.852)" fill="#f9be7d"/>
      <circle id="椭圆_208-27" data-name="椭圆 208" cx="6" cy="6" r="6" transform="translate(1043 10271.542)" fill="#f9be7d"/>
      <circle id="椭圆_208-28" data-name="椭圆 208" cx="6" cy="6" r="6" transform="translate(921.063 10308.934) rotate(163)" fill="#f9be7d"/>
      <circle id="椭圆_219" data-name="椭圆 219" cx="6" cy="6" r="6" transform="translate(1183.492 10321.476) rotate(163)" fill="#f9be7d"/>
      <circle id="椭圆_220" data-name="椭圆 220" cx="3.466" cy="3.466" r="3.466" transform="translate(1242.555 10363.809) rotate(163)" fill="#f9be7d"/>
      <circle id="椭圆_221" data-name="椭圆 221" cx="6" cy="6" r="6" transform="translate(1235.551 10377.983) rotate(163)" fill="#f9be7d"/>
      <circle id="椭圆_208-29" data-name="椭圆 208" cx="6" cy="6" r="6" transform="translate(935 10199)" fill="#f9be7d"/>
      <circle id="椭圆_208-30" data-name="椭圆 208" cx="6" cy="6" r="6" transform="translate(797 10194.148)" fill="#f9be7d"/>
      <circle id="椭圆_231" data-name="椭圆 231" cx="6" cy="6" r="6" transform="translate(683 10215.223)" fill="#f9be7d"/>
      <circle id="椭圆_236" data-name="椭圆 236" cx="6" cy="6" r="6" transform="matrix(0.309, 0.951, -0.951, 0.309, 909.108, 10196.953)" fill="#f9be7d"/>
      <circle id="椭圆_241" data-name="椭圆 241" cx="6" cy="6" r="6" transform="matrix(0.309, 0.951, -0.951, 0.309, 827.867, 10215.206)" fill="#f9be7d"/>
      <circle id="椭圆_246" data-name="椭圆 246" cx="6" cy="6" r="6" transform="matrix(0.309, 0.951, -0.951, 0.309, 966.852, 10340.522)" fill="#f9be7d"/>
      <circle id="椭圆_276" data-name="椭圆 276" cx="6" cy="6" r="6" transform="matrix(0.309, 0.951, -0.951, 0.309, 988.597, 10352.135)" fill="#f9be7d"/>
      <circle id="椭圆_280" data-name="椭圆 280" cx="6" cy="6" r="6" transform="matrix(0.309, 0.951, -0.951, 0.309, 972.771, 10268.92)" fill="#f9be7d"/>
      <circle id="椭圆_284" data-name="椭圆 284" cx="6" cy="6" r="6" transform="matrix(0.309, 0.951, -0.951, 0.309, 1031.199, 10137.993)" fill="#f9be7d"/>
      <circle id="椭圆_288" data-name="椭圆 288" cx="6" cy="6" r="6" transform="matrix(0.309, 0.951, -0.951, 0.309, 1167.006, 10104.436)" fill="#f9be7d"/>
      <circle id="椭圆_292" data-name="椭圆 292" cx="6" cy="6" r="6" transform="matrix(0.309, 0.951, -0.951, 0.309, 1192.359, 10042.441)" fill="#f9be7d"/>
      <circle id="椭圆_296" data-name="椭圆 296" cx="6" cy="6" r="6" transform="matrix(0.309, 0.951, -0.951, 0.309, 1388.359, 9805.441)" fill="#f9be7d"/>
      <circle id="椭圆_300" data-name="椭圆 300" cx="6" cy="6" r="6" transform="matrix(0.309, 0.951, -0.951, 0.309, 1263.418, 9817.441)" fill="#f9be7d"/>
      <circle id="椭圆_304" data-name="椭圆 304" cx="6" cy="6" r="6" transform="matrix(0.309, 0.951, -0.951, 0.309, 1329.416, 9789.278)" fill="#f9be7d"/>
      <circle id="椭圆_308" data-name="椭圆 308" cx="6" cy="6" r="6" transform="matrix(0.309, 0.951, -0.951, 0.309, 1337.867, 9828.196)" fill="#f9be7d"/>
      <circle id="椭圆_251" data-name="椭圆 251" cx="6" cy="6" r="6" transform="matrix(0.309, 0.951, -0.951, 0.309, 1120.977, 10332.895)" fill="#f9be7d"/>
      <circle id="椭圆_256" data-name="椭圆 256" cx="6" cy="6" r="6" transform="matrix(0.309, 0.951, -0.951, 0.309, 1113.666, 10252.262)" fill="#f9be7d"/>
      <circle id="椭圆_208-31" data-name="椭圆 208" cx="6" cy="6" r="6" transform="matrix(-0.921, -0.391, 0.391, -0.921, 948.777, 10121.72)" fill="#f9be7d"/>
      <circle id="椭圆_208-32" data-name="椭圆 208" cx="6" cy="6" r="6" transform="translate(1180 10235)" fill="#f9be7d"/>
      <circle id="椭圆_208-33" data-name="椭圆 208" cx="6" cy="6" r="6" transform="translate(878 10194.148)" fill="#f9be7d"/>
      <circle id="椭圆_264" data-name="椭圆 264" cx="6" cy="6" r="6" transform="translate(1095.816 10155.016)" fill="#f9be7d"/>
      <circle id="椭圆_271" data-name="椭圆 271" cx="6" cy="6" r="6" transform="translate(1189.636 10166.209)" fill="#f9be7d"/>
      <circle id="椭圆_208-34" data-name="椭圆 208" cx="6" cy="6" r="6" transform="translate(902 10194.148)" fill="#f9be7d"/>
      <circle id="椭圆_208-35" data-name="椭圆 208" cx="6" cy="6" r="6" transform="translate(946 10202)" fill="#f9be7d"/>
      <circle id="椭圆_216" data-name="椭圆 216" cx="6" cy="6" r="6" transform="translate(1140 10306)" fill="#f9be7d"/>
      <circle id="椭圆_208-36" data-name="椭圆 208" cx="6" cy="6" r="6" transform="translate(1164 10242.706)" fill="#f9be7d"/>
      <circle id="椭圆_208-37" data-name="椭圆 208" cx="6" cy="6" r="6" transform="translate(1031 10229)" fill="#f9be7d"/>
      <circle id="椭圆_208-38" data-name="椭圆 208" cx="6" cy="6" r="6" transform="translate(1043 10202)" fill="#f9be7d"/>
      <circle id="椭圆_208-39" data-name="椭圆 208" cx="6" cy="6" r="6" transform="matrix(-0.105, -0.995, 0.995, -0.105, 857.667, 10307.139)" fill="#f9be7d"/>
      <circle id="椭圆_208-40" data-name="椭圆 208" cx="6" cy="6" r="6" transform="translate(774 10221.148)" fill="#f9be7d"/>
      <circle id="椭圆_208-41" data-name="椭圆 208" cx="6" cy="6" r="6" transform="matrix(-0.105, -0.995, 0.995, -0.105, 905.951, 10326.229)" fill="#f9be7d"/>
      <circle id="椭圆_208-42" data-name="椭圆 208" cx="6" cy="6" r="6" transform="translate(407 9953)" fill="#f9be7d"/>
      <circle id="椭圆_208-43" data-name="椭圆 208" cx="6" cy="6" r="6" transform="translate(1196 10248)" fill="#f9be7d"/>
      <circle id="椭圆_208-44" data-name="椭圆 208" cx="6" cy="6" r="6" transform="translate(1004 10170.852)" fill="#f9be7d"/>
      <circle id="椭圆_208-45" data-name="椭圆 208" cx="6" cy="6" r="6" transform="translate(997 10368)" fill="#f9be7d"/>
      <circle id="椭圆_208-46" data-name="椭圆 208" cx="6" cy="6" r="6" transform="translate(1067 10298)" fill="#f9be7d"/>
      <circle id="椭圆_208-47" data-name="椭圆 208" cx="6" cy="6" r="6" transform="translate(997 10244.198)" fill="#f9be7d"/>
      <circle id="椭圆_208-48" data-name="椭圆 208" cx="6" cy="6" r="6" transform="translate(971 10229)" fill="#f9be7d"/>
      <circle id="椭圆_208-49" data-name="椭圆 208" cx="6" cy="6" r="6" transform="translate(1102.816 10101.852)" fill="#f9be7d"/>
      <circle id="椭圆_208-50" data-name="椭圆 208" cx="6" cy="6" r="6" transform="translate(1180 10259)" fill="#f9be7d"/>
      <circle id="椭圆_208-51" data-name="椭圆 208" cx="6" cy="6" r="6" transform="translate(817.748 10253.384) rotate(101)" fill="#f9be7d"/>
      <circle id="椭圆_208-52" data-name="椭圆 208" cx="6" cy="6" r="6" transform="translate(774 10248.148)" fill="#f9be7d"/>
      <circle id="椭圆_208-53" data-name="椭圆 208" cx="6" cy="6" r="6" transform="translate(1168 10244.419) rotate(101)" fill="#f9be7d"/>
      <circle id="椭圆_208-54" data-name="椭圆 208" cx="6" cy="6" r="6" transform="translate(847.069 10334.256) rotate(101)" fill="#f9be7d"/>
      <circle id="椭圆_208-55" data-name="椭圆 208" cx="6" cy="6" r="6" transform="translate(831.315 10304.809) rotate(101)" fill="#f9be7d"/>
      <circle id="椭圆_208-56" data-name="椭圆 208" cx="6" cy="6" r="6" transform="translate(573 10179)" fill="#f9be7d"/>
      <circle id="椭圆_208-57" data-name="椭圆 208" cx="6" cy="6" r="6" transform="translate(913.984 10337.085) rotate(163)" fill="#f9be7d"/>
      <circle id="椭圆_208-58" data-name="椭圆 208" cx="6" cy="6" r="6" transform="translate(931.861 10264.148)" fill="#f9be7d"/>
      <circle id="椭圆_208-59" data-name="椭圆 208" cx="6" cy="6" r="6" transform="translate(924 10338)" fill="#f9be7d"/>
      <circle id="椭圆_275" data-name="椭圆 275" cx="6" cy="6" r="6" transform="translate(945.745 10349.612)" fill="#f9be7d"/>
      <circle id="椭圆_279" data-name="椭圆 279" cx="6" cy="6" r="6" transform="translate(929.92 10266.397)" fill="#f9be7d"/>
      <circle id="椭圆_283" data-name="椭圆 283" cx="6" cy="6" r="6" transform="translate(988.349 10135.471)" fill="#f9be7d"/>
      <circle id="椭圆_287" data-name="椭圆 287" cx="6" cy="6" r="6" transform="translate(1124.154 10101.913)" fill="#f9be7d"/>
      <circle id="椭圆_291" data-name="椭圆 291" cx="6" cy="6" r="6" transform="translate(1149.508 10039.918)" fill="#f9be7d"/>
      <circle id="椭圆_295" data-name="椭圆 295" cx="6" cy="6" r="6" transform="translate(1345.508 9802.918)" fill="#f9be7d"/>
      <circle id="椭圆_299" data-name="椭圆 299" cx="6" cy="6" r="6" transform="translate(1220.566 9814.918)" fill="#f9be7d"/>
      <circle id="椭圆_303" data-name="椭圆 303" cx="6" cy="6" r="6" transform="translate(1286.564 9786.755)" fill="#f9be7d"/>
      <circle id="椭圆_307" data-name="椭圆 307" cx="6" cy="6" r="6" transform="translate(1295.016 9825.673)" fill="#f9be7d"/>
      <circle id="椭圆_208-60" data-name="椭圆 208" cx="6" cy="6" r="6" transform="translate(1089 10340)" fill="#f9be7d"/>
      <circle id="椭圆_208-61" data-name="椭圆 208" cx="6" cy="6" r="6" transform="translate(1086 10257.69)" fill="#f9be7d"/>
      <circle id="椭圆_208-62" data-name="椭圆 208" cx="6" cy="6" r="6" transform="translate(1000 10256)" fill="#f9be7d"/>
      <circle id="椭圆_208-63" data-name="椭圆 208" cx="6" cy="6" r="6" transform="translate(1043 10256)" fill="#f9be7d"/>
      <circle id="椭圆_208-64" data-name="椭圆 208" cx="6" cy="6" r="6" transform="translate(1156 10244)" fill="#f9be7d"/>
      <circle id="椭圆_208-65" data-name="椭圆 208" cx="6" cy="6" r="6" transform="translate(774 10265.148)" fill="#f9be7d"/>
      <circle id="椭圆_208-66" data-name="椭圆 208" cx="6" cy="6" r="6" transform="translate(859.777 10283.542)" fill="#f9be7d"/>
      <circle id="椭圆_208-67" data-name="椭圆 208" cx="6" cy="6" r="6" transform="translate(797 10265.148)" fill="#f9be7d"/>
      <circle id="椭圆_208-68" data-name="椭圆 208" cx="6" cy="6" r="6" transform="translate(762 10185)" fill="#f9be7d"/>
      <circle id="椭圆_230" data-name="椭圆 230" cx="6" cy="6" r="6" transform="translate(648 10206.074)" fill="#f9be7d"/>
      <circle id="椭圆_235" data-name="椭圆 235" cx="6" cy="6" r="6" transform="matrix(0.309, 0.951, -0.951, 0.309, 850.933, 10116.156)" fill="#f9be7d"/>
      <circle id="椭圆_240" data-name="椭圆 240" cx="6" cy="6" r="6" transform="matrix(0.309, 0.951, -0.951, 0.309, 825.752, 10179.093)" fill="#f9be7d"/>
      <circle id="椭圆_245" data-name="椭圆 245" cx="6" cy="6" r="6" transform="matrix(0.309, 0.951, -0.951, 0.309, 964.736, 10304.409)" fill="#f9be7d"/>
      <circle id="椭圆_250" data-name="椭圆 250" cx="6" cy="6" r="6" transform="matrix(0.309, 0.951, -0.951, 0.309, 1118.862, 10296.781)" fill="#f9be7d"/>
      <circle id="椭圆_255" data-name="椭圆 255" cx="6" cy="6" r="6" transform="matrix(0.309, 0.951, -0.951, 0.309, 1111.552, 10216.148)" fill="#f9be7d"/>
      <circle id="椭圆_208-69" data-name="椭圆 208" cx="6" cy="6" r="6" transform="translate(933.878 10313.226) rotate(163)" fill="#f9be7d"/>
      <circle id="椭圆_218" data-name="椭圆 218" cx="6" cy="6" r="6" transform="translate(1124.984 10356.327) rotate(163)" fill="#f9be7d"/>
      <circle id="椭圆_208-70" data-name="椭圆 208" cx="6" cy="6" r="6" transform="translate(974.492 10359.491) rotate(163)" fill="#f9be7d"/>
      <circle id="椭圆_278" data-name="椭圆 278" cx="6" cy="6" r="6" transform="translate(996.237 10371.104) rotate(163)" fill="#f9be7d"/>
      <circle id="椭圆_282" data-name="椭圆 282" cx="6" cy="6" r="6" transform="translate(980.412 10287.889) rotate(163)" fill="#f9be7d"/>
      <circle id="椭圆_286" data-name="椭圆 286" cx="6" cy="6" r="6" transform="translate(1038.842 10156.962) rotate(163)" fill="#f9be7d"/>
      <circle id="椭圆_290" data-name="椭圆 290" cx="6" cy="6" r="6" transform="translate(1174.646 10123.404) rotate(163)" fill="#f9be7d"/>
      <circle id="椭圆_294" data-name="椭圆 294" cx="6" cy="6" r="6" transform="translate(1200 10061.41) rotate(163)" fill="#f9be7d"/>
      <circle id="椭圆_298" data-name="椭圆 298" cx="6" cy="6" r="6" transform="translate(1396 9824.41) rotate(163)" fill="#f9be7d"/>
      <circle id="椭圆_302" data-name="椭圆 302" cx="6" cy="6" r="6" transform="translate(1271.059 9836.41) rotate(163)" fill="#f9be7d"/>
      <circle id="椭圆_306" data-name="椭圆 306" cx="6" cy="6" r="6" transform="translate(1337.057 9808.247) rotate(163)" fill="#f9be7d"/>
      <circle id="椭圆_310" data-name="椭圆 310" cx="6" cy="6" r="6" transform="translate(1345.508 9847.165) rotate(163)" fill="#f9be7d"/>
      <circle id="椭圆_274" data-name="椭圆 274" cx="6" cy="6" r="6" transform="translate(952.716 10368.654) rotate(163)" fill="#f9be7d"/>
      <circle id="椭圆_277" data-name="椭圆 277" cx="6" cy="6" r="6" transform="translate(974.461 10380.267) rotate(163)" fill="#f9be7d"/>
      <circle id="椭圆_281" data-name="椭圆 281" cx="6" cy="6" r="6" transform="translate(958.636 10297.052) rotate(163)" fill="#f9be7d"/>
      <circle id="椭圆_285" data-name="椭圆 285" cx="6" cy="6" r="6" transform="translate(1017.064 10166.125) rotate(163)" fill="#f9be7d"/>
      <circle id="椭圆_289" data-name="椭圆 289" cx="6" cy="6" r="6" transform="translate(1152.871 10132.567) rotate(163)" fill="#f9be7d"/>
      <circle id="椭圆_293" data-name="椭圆 293" cx="6" cy="6" r="6" transform="translate(1178.225 10070.572) rotate(163)" fill="#f9be7d"/>
      <circle id="椭圆_297" data-name="椭圆 297" cx="6" cy="6" r="6" transform="translate(1374.225 9833.572) rotate(163)" fill="#f9be7d"/>
      <circle id="椭圆_301" data-name="椭圆 301" cx="6" cy="6" r="6" transform="translate(1249.283 9845.572) rotate(163)" fill="#f9be7d"/>
      <circle id="椭圆_305" data-name="椭圆 305" cx="6" cy="6" r="6" transform="translate(1315.281 9817.409) rotate(163)" fill="#f9be7d"/>
      <circle id="椭圆_309" data-name="椭圆 309" cx="6" cy="6" r="6" transform="translate(1323.732 9856.327) rotate(163)" fill="#f9be7d"/>
      <circle id="椭圆_208-71" data-name="椭圆 208" cx="6" cy="6" r="6" transform="translate(931.861 10281.148)" fill="#f9be7d"/>
      <circle id="椭圆_217" data-name="椭圆 217" cx="6" cy="6" r="6" transform="translate(1137 10357)" fill="#f9be7d"/>
      <circle id="椭圆_208-72" data-name="椭圆 208" cx="6" cy="6" r="6" transform="translate(809 10357)" fill="#f9be7d"/>
      <circle id="椭圆_208-73" data-name="椭圆 208" cx="6" cy="6" r="6" transform="translate(1079 10379)" fill="#f9be7d"/>
      <circle id="椭圆_208-74" data-name="椭圆 208" cx="6" cy="6" r="6" transform="translate(986.861 10289)" fill="#f9be7d"/>
      <circle id="椭圆_208-75" data-name="椭圆 208" cx="6" cy="6" r="6" transform="translate(1000 10273)" fill="#f9be7d"/>
      <circle id="椭圆_208-76" data-name="椭圆 208" cx="6" cy="6" r="6" transform="translate(1043 10273)" fill="#f9be7d"/>
      <circle id="椭圆_208-77" data-name="椭圆 208" cx="6" cy="6" r="6" transform="translate(827 10333)" fill="#f9be7d"/>
      <circle id="椭圆_208-78" data-name="椭圆 208" cx="6" cy="6" r="6" transform="translate(794 10310)" fill="#f9be7d"/>
      <circle id="椭圆_208-79" data-name="椭圆 208" cx="6" cy="6" r="6" transform="translate(785 10355)" fill="#f9be7d"/>
      <circle id="椭圆_208-80" data-name="椭圆 208" cx="6" cy="6" r="6" transform="translate(817 10310)" fill="#f9be7d"/>
      <circle id="椭圆_208-81" data-name="椭圆 208" cx="6" cy="6" r="6" transform="translate(792 10355)" fill="#f9be7d"/>
      <circle id="椭圆_208-82" data-name="椭圆 208" cx="6" cy="6" r="6" transform="translate(871.777 10260.182) rotate(163)" fill="#f9be7d"/>
      <g id="组_276" data-name="组 276">
        <circle id="椭圆_208-83" data-name="椭圆 208" cx="6" cy="6" r="6" transform="translate(1164 10259)" fill="#f9be7d"/>
        <circle id="椭圆_208-84" data-name="椭圆 208" cx="6" cy="6" r="6" transform="translate(1124.551 10276)" fill="#f9be7d"/>
        <circle id="椭圆_208-85" data-name="椭圆 208" cx="6" cy="6" r="6" transform="translate(1038 10340)" fill="#f9be7d"/>
        <circle id="椭圆_208-86" data-name="椭圆 208" cx="6" cy="6" r="6" transform="translate(563 10214)" fill="#f9be7d"/>
        <circle id="椭圆_208-87" data-name="椭圆 208" cx="6" cy="6" r="6" transform="translate(1162 10270)" fill="#f9be7d"/>
        <circle id="椭圆_208-88" data-name="椭圆 208" cx="6" cy="6" r="6" transform="translate(1092 10340)" fill="#f9be7d"/>
        <circle id="椭圆_208-89" data-name="椭圆 208" cx="6" cy="6" r="6" transform="translate(1043 10310)" fill="#f9be7d"/>
        <circle id="椭圆_206" data-name="椭圆 206" cx="11" cy="11" r="11" transform="translate(1361 9710)" fill="#f9be7d"/>
        <circle id="椭圆_205" data-name="椭圆 205" cx="15" cy="15" r="15" transform="translate(1047 10015)" fill="#f9be7d"/>
        <circle id="椭圆_222" data-name="椭圆 222" cx="15" cy="15" r="15" transform="translate(1103 10210)" fill="#f9be7d"/>
        <circle id="椭圆_223" data-name="椭圆 223" cx="15" cy="15" r="15" transform="translate(911 10230)" fill="#f9be7d"/>
        <circle id="椭圆_224" data-name="椭圆 224" cx="15" cy="15" r="15" transform="translate(1170 10169)" fill="#f9be7d"/>
        <circle id="椭圆_272" data-name="椭圆 272" cx="15" cy="15" r="15" transform="translate(1209 10203)" fill="#f9be7d"/>
        <circle id="椭圆_203" data-name="椭圆 203" cx="40" cy="40" r="40" transform="translate(1138 10217)" fill="#f9be7d" opacity="0.5"/>
        <circle id="椭圆_204" data-name="椭圆 204" cx="35" cy="35" r="35" transform="translate(1342 9686)" fill="#f9be7d" opacity="0.5"/>
        <circle id="椭圆_208-90" data-name="椭圆 208" cx="6" cy="6" r="6" transform="translate(1055 10257)" fill="#f9be7d"/>
        <circle id="椭圆_208-91" data-name="椭圆 208" cx="6" cy="6" r="6" transform="translate(1149 10211)" fill="#f9be7d"/>
      </g>
    </g>
  </g>
</svg>
