<svg xmlns="http://www.w3.org/2000/svg" width="579" height="360" viewBox="0 0 579 360">
  <defs>
    <style>
      .cls-1 {
        fill: none;
        stroke: #d3d3d3;
        stroke-linecap: round;
        stroke-width: 6px;
      }

      .cls-2 {
        fill: #d3d3d3;
      }
    </style>
  </defs>
  <g id="组_266" data-name="组 266" transform="translate(-497.616 -2377.478)">
    <path id="路径_329" data-name="路径 329" class="cls-1" d="M13068,6311.653c6.972,49.288,135.755,135.307,254.7,140" transform="translate(-12296.736 -3744.892)"/>
    <path id="路径_330" data-name="路径 330" class="cls-1" d="M13068,6422.2c3.7-38.919,71.965-106.842,135.021-110.549" transform="translate(-12304.405 -3884.685)"/>
    <ellipse id="椭圆_176" data-name="椭圆 176" class="cls-2" cx="34" cy="34.5" rx="34" ry="34.5" transform="translate(723.616 2516.478)"/>
    <path id="路径_331" data-name="路径 331" class="cls-1" d="M13068,6422.2c3.7-38.919,71.965-106.842,135.021-110.549" transform="translate(-12304.405 -3884.685)"/>
    <path id="路径_332" data-name="路径 332" class="cls-1" d="M13068,6422.2c3.7-38.919,71.965-106.842,135.021-110.549" transform="translate(-12304.405 -3884.685)"/>
    <path id="路径_333" data-name="路径 333" class="cls-1" d="M13068,6422.2c3.7-38.919,71.965-106.842,135.021-110.549" transform="translate(-12304.405 -3884.685)"/>
    <path id="路径_334" data-name="路径 334" class="cls-1" d="M13068,6422.2c3.7-38.919,71.965-106.842,135.021-110.549" transform="translate(-12304.405 -3884.685)"/>
    <path id="路径_335" data-name="路径 335" class="cls-1" d="M13068,6422.2c3.7-38.919,71.965-106.842,135.021-110.549" transform="translate(-12304.405 -3884.685)"/>
    <path id="路径_336" data-name="路径 336" class="cls-1" d="M13068,6422.2c3.7-38.919,71.965-106.842,135.021-110.549" transform="translate(-12304.405 -3884.685)"/>
    <path id="路径_337" data-name="路径 337" class="cls-1" d="M13068,6422.2c3.7-38.919,71.965-106.842,135.021-110.549" transform="translate(-12304.405 -3884.685)"/>
    <path id="路径_338" data-name="路径 338" class="cls-1" d="M13068,6422.2c3.7-38.919,71.965-106.842,135.021-110.549" transform="translate(-12304.405 -3884.685)"/>
    <path id="路径_339" data-name="路径 339" class="cls-1" d="M13068,6422.2c3.7-38.919,71.965-106.842,135.021-110.549" transform="translate(-12304.405 -3884.685)"/>
    <path id="路径_340" data-name="路径 340" class="cls-1" d="M13068,6422.2c3.7-38.919,71.965-106.842,135.021-110.549" transform="translate(-12304.405 -3884.685)"/>
    <path id="路径_341" data-name="路径 341" class="cls-1" d="M13068,6422.2c3.7-38.919,71.965-106.842,135.021-110.549" transform="translate(-12304.405 -3884.685)"/>
    <path id="路径_342" data-name="路径 342" class="cls-1" d="M13068,6422.2c3.7-38.919,71.965-106.842,135.021-110.549" transform="translate(-12304.405 -3884.685)"/>
    <path id="路径_343" data-name="路径 343" class="cls-1" d="M13068,6422.2c3.7-38.919,71.965-106.842,135.021-110.549" transform="translate(-12304.405 -3884.685)"/>
    <path id="路径_344" data-name="路径 344" class="cls-1" d="M13068,6422.2c3.7-38.919,71.965-106.842,135.021-110.549" transform="translate(-12304.405 -3884.685)"/>
    <path id="路径_345" data-name="路径 345" class="cls-1" d="M13164.936,6425.556c-2.652-40.1-51.666-110.083-96.937-113.9" transform="translate(-12415.458 -3858.794)"/>
    <path id="路径_346" data-name="路径 346" class="cls-1" d="M0,119.767C3.388,77.6,65.982,4.016,123.794,0" transform="matrix(0.848, -0.53, 0.53, 0.848, 694.24, 2465.194)"/>
    <path id="路径_347" data-name="路径 347" class="cls-1" d="M0,71.518C5.809,46.34,113.146,2.4,212.283,0" transform="translate(771.262 2466)"/>
    <path id="路径_348" data-name="路径 348" class="cls-1" d="M0,0C4.822,20.721,93.925,56.883,176.221,58.857" transform="matrix(0.848, -0.53, 0.53, 0.848, 558.558, 2597.582)"/>
    <path id="路径_349" data-name="路径 349" class="cls-1" d="M0,110.549C3.7,71.63,71.965,3.707,135.02,0" transform="matrix(-0.848, 0.53, -0.53, -0.848, 815.687, 2645.188)"/>
    <path id="路径_350" data-name="路径 350" class="cls-1" d="M206.163,0C200.517,23.371,96.275,64.159,0,66.385" transform="matrix(0.848, 0.53, -0.53, 0.848, 593.737, 2438.524)"/>
    <circle id="椭圆_177" data-name="椭圆 177" class="cls-2" cx="24.5" cy="24.5" r="24.5" transform="translate(882.616 2517.478)"/>
    <circle id="椭圆_178" data-name="椭圆 178" class="cls-2" cx="24.5" cy="24.5" r="24.5" transform="translate(882.616 2399.478)"/>
    <ellipse id="椭圆_179" data-name="椭圆 179" class="cls-2" cx="15" cy="15.5" rx="15" ry="15.5" transform="translate(871.616 2661.478)"/>
    <ellipse id="椭圆_180" data-name="椭圆 180" class="cls-2" cx="17.5" cy="18" rx="17.5" ry="18" transform="translate(497.616 2535.478)"/>
    <ellipse id="椭圆_181" data-name="椭圆 181" class="cls-2" cx="14" cy="14.5" rx="14" ry="14.5" transform="translate(538.616 2582.478)"/>
    <ellipse id="椭圆_182" data-name="椭圆 182" class="cls-2" cx="8" cy="9" rx="8" ry="9" transform="translate(552.616 2484.478)"/>
    <ellipse id="椭圆_183" data-name="椭圆 183" class="cls-2" cx="20" cy="19.5" rx="20" ry="19.5" transform="translate(628.616 2413.478)"/>
    <circle id="椭圆_184" data-name="椭圆 184" class="cls-2" cx="18" cy="18" r="18" transform="translate(779.616 2377.478)"/>
    <ellipse id="椭圆_185" data-name="椭圆 185" class="cls-2" cx="10.5" cy="10" rx="10.5" ry="10" transform="translate(815.616 2432.478)"/>
    <circle id="椭圆_186" data-name="椭圆 186" class="cls-2" cx="22" cy="22" r="22" transform="translate(945.616 2435.478)"/>
    <ellipse id="椭圆_187" data-name="椭圆 187" class="cls-2" cx="32.5" cy="33" rx="32.5" ry="33" transform="translate(604.616 2556.478)"/>
    <circle id="椭圆_188" data-name="椭圆 188" class="cls-2" cx="20" cy="20" r="20" transform="translate(733.616 2652.478)"/>
    <ellipse id="椭圆_189" data-name="椭圆 189" class="cls-2" cx="25" cy="25.5" rx="25" ry="25.5" transform="translate(1026.616 2672.478)"/>
    <ellipse id="椭圆_190" data-name="椭圆 190" class="cls-2" cx="19.5" cy="20" rx="19.5" ry="20" transform="translate(532.616 2637.478)"/>
    <ellipse id="椭圆_191" data-name="椭圆 191" class="cls-2" cx="19.5" cy="20" rx="19.5" ry="20" transform="translate(674.616 2697.478)"/>
  </g>
</svg>
